<svg viewBox="0 0 19 18" fill="none" xmlns="http://www.w3.org/2000/svg"><mask id="path-1-inside-1_36919_6786" fill="white"><path fill-rule="evenodd" clip-rule="evenodd" d="M18.5229 9C18.5229 13.9706 14.3764 18 9.26143 18C4.14648 18 0 13.9706 0 9C0 4.02944 4.14648 0 9.26143 0C14.3764 0 18.5229 4.02944 18.5229 9ZM5.66019 8.84111C5.66019 8.51895 5.92136 8.25778 6.24352 8.25778H8.71678V6.10032C8.71678 5.76877 8.98555 5.5 9.3171 5.5C9.64865 5.5 9.91742 5.76877 9.91742 6.10032V8.25778H12.2807C12.6029 8.25778 12.8641 8.51895 12.8641 8.84111C12.8641 9.16328 12.6029 9.42444 12.2807 9.42444H9.91742V11.8997C9.91742 12.2312 9.64865 12.5 9.3171 12.5C8.98555 12.5 8.71678 12.2312 8.71678 11.8997V9.42444H6.24352C5.92136 9.42444 5.66019 9.16328 5.66019 8.84111Z"></path></mask><path fill-rule="evenodd" clip-rule="evenodd" d="M18.5229 9C18.5229 13.9706 14.3764 18 9.26143 18C4.14648 18 0 13.9706 0 9C0 4.02944 4.14648 0 9.26143 0C14.3764 0 18.5229 4.02944 18.5229 9ZM5.66019 8.84111C5.66019 8.51895 5.92136 8.25778 6.24352 8.25778H8.71678V6.10032C8.71678 5.76877 8.98555 5.5 9.3171 5.5C9.64865 5.5 9.91742 5.76877 9.91742 6.10032V8.25778H12.2807C12.6029 8.25778 12.8641 8.51895 12.8641 8.84111C12.8641 9.16328 12.6029 9.42444 12.2807 9.42444H9.91742V11.8997C9.91742 12.2312 9.64865 12.5 9.3171 12.5C8.98555 12.5 8.71678 12.2312 8.71678 11.8997V9.42444H6.24352C5.92136 9.42444 5.66019 9.16328 5.66019 8.84111Z" fill="#40196D"></path><path d="M8.71678 8.25778V8.75778H9.21678V8.25778H8.71678ZM9.91742 8.25778H9.41742V8.75778H9.91742V8.25778ZM9.91742 9.42444V8.92444H9.41742V9.42444H9.91742ZM8.71678 9.42444H9.21678V8.92444H8.71678V9.42444ZM9.26143 18.5C14.6389 18.5 19.0229 14.2601 19.0229 9H18.0229C18.0229 13.681 14.1138 17.5 9.26143 17.5V18.5ZM-0.5 9C-0.5 14.2601 3.88393 18.5 9.26143 18.5V17.5C4.40903 17.5 0.5 13.681 0.5 9H-0.5ZM9.26143 -0.5C3.88393 -0.5 -0.5 3.7399 -0.5 9H0.5C0.5 4.31898 4.40903 0.5 9.26143 0.5V-0.5ZM19.0229 9C19.0229 3.7399 14.6389 -0.5 9.26143 -0.5V0.5C14.1138 0.5 18.0229 4.31898 18.0229 9H19.0229ZM6.24352 7.75778C5.64521 7.75778 5.16019 8.2428 5.16019 8.84111H6.16019C6.16019 8.79509 6.1975 8.75778 6.24352 8.75778V7.75778ZM8.71678 7.75778H6.24352V8.75778H8.71678V7.75778ZM9.21678 8.25778V6.10032H8.21678V8.25778H9.21678ZM9.21678 6.10032C9.21678 6.04492 9.26169 6 9.3171 6V5C8.70941 5 8.21678 5.49263 8.21678 6.10032H9.21678ZM9.3171 6C9.37251 6 9.41742 6.04492 9.41742 6.10032H10.4174C10.4174 5.49263 9.92479 5 9.3171 5V6ZM9.41742 6.10032V8.25778H10.4174V6.10032H9.41742ZM12.2807 7.75778H9.91742V8.75778H12.2807V7.75778ZM13.3641 8.84111C13.3641 8.2428 12.879 7.75778 12.2807 7.75778V8.75778C12.3268 8.75778 12.3641 8.79509 12.3641 8.84111H13.3641ZM12.2807 9.92444C12.879 9.92444 13.3641 9.43942 13.3641 8.84111H12.3641C12.3641 8.88713 12.3268 8.92444 12.2807 8.92444V9.92444ZM9.91742 9.92444H12.2807V8.92444H9.91742V9.92444ZM9.41742 9.42444V11.8997H10.4174V9.42444H9.41742ZM9.41742 11.8997C9.41742 11.9551 9.37251 12 9.3171 12V13C9.92479 13 10.4174 12.5074 10.4174 11.8997H9.41742ZM9.3171 12C9.26169 12 9.21678 11.9551 9.21678 11.8997H8.21678C8.21678 12.5074 8.70941 13 9.3171 13V12ZM9.21678 11.8997V9.42444H8.21678V11.8997H9.21678ZM6.24352 9.92444H8.71678V8.92444H6.24352V9.92444ZM5.16019 8.84111C5.16019 9.43942 5.64522 9.92444 6.24352 9.92444V8.92444C6.1975 8.92444 6.16019 8.88713 6.16019 8.84111H5.16019Z" fill="#40196D" mask="url(#path-1-inside-1_36919_6786)"></path></svg>