<svg viewBox="0 0 9 16" fill="currentColor" xmlns="http://www.w3.org/2000/svg"><path fill-rule="evenodd" clip-rule="evenodd" d="M2 0.799805C0.895431 0.799805 0 1.69524 0 2.79981V13.1998C0 14.3044 0.89543 15.1998 2 15.1998H7C8.10457 15.1998 9 14.3044 9 13.1998V2.7998C9 1.69524 8.10457 0.799805 7 0.799805H2ZM6.3 12.9498C6.3 12.7013 6.09853 12.4998 5.85 12.4998H3.15C2.90147 12.4998 2.7 12.7013 2.7 12.9498V12.9498C2.7 13.1983 2.90147 13.3998 3.15 13.3998H5.85C6.09853 13.3998 6.3 13.1983 6.3 12.9498V12.9498Z" fill="currentColor"></path></svg>