<svg viewBox="0 0 72 20" fill="currentColor" xmlns="http://www.w3.org/2000/svg"><path d="M72.0801 19.4697C70.788 19.8221 69.4371 19.9983 68.0569 19.9983C64.5036 19.9983 61.0678 18.7062 58.3661 16.3863C57.7201 15.8283 57.1328 15.2116 56.6042 14.5656C56.5748 14.5656 56.5748 14.5362 56.5748 14.5068H56.6042C62.3012 12.8917 68.38 14.8592 72.0801 19.4697ZM70.6999 0C69.2903 8.66299 63.652 12.8917 56.6042 13.6259C57.7494 6.10814 62.5949 0.998447 70.6999 0ZM54.02 0.440491C55.6938 2.87788 56.5748 5.78512 56.5748 8.72173C56.5748 10.3369 56.3105 11.952 55.7819 13.5084C53.1683 9.66144 52.5223 4.8454 54.02 0.440491Z" fill="currentColor"></path><path d="M52.7573 18.1187C53.1978 17.6489 53.4328 17.0028 53.4034 16.3568C53.4328 15.7107 53.2272 15.0646 52.7867 14.5948C52.4049 14.1837 51.847 13.9487 51.289 13.9487C50.7311 13.9194 50.1731 14.1543 49.7914 14.5654C49.3802 15.0646 49.1747 15.6813 49.204 16.3274C49.1747 16.9734 49.3802 17.5901 49.7914 18.0894C50.1731 18.5005 50.7017 18.7354 51.2597 18.7354C51.8176 18.7354 52.3756 18.5298 52.7573 18.1187ZM51.2597 19.9981C50.3199 20.0275 49.3802 19.6751 48.7342 18.9997C48.0588 18.2949 47.677 17.3258 47.7357 16.3568C47.6476 14.448 49.1453 12.8035 51.0541 12.7154C51.1422 12.7154 51.2303 12.7154 51.3184 12.7154C53.2272 12.6566 54.8423 14.1543 54.9011 16.0631C54.9011 16.1512 54.9011 16.2393 54.9011 16.3274C54.9304 17.3258 54.5487 18.2949 53.8439 18.9703C53.1685 19.6458 52.2287 19.9981 51.2597 19.9981ZM44.6229 18.1187C45.0634 17.6489 45.2983 17.0028 45.269 16.3568C45.2983 15.7107 45.0928 15.0646 44.6523 14.5948C44.2705 14.1837 43.7126 13.9487 43.1546 13.9487C42.5967 13.9487 42.0681 14.1837 41.6863 14.5948C41.2752 15.094 41.0696 15.7107 41.099 16.3568C41.0696 17.0028 41.2752 17.6195 41.6863 18.1187C42.0681 18.5298 42.5967 18.7648 43.1546 18.7648C43.6832 18.7354 44.2412 18.5298 44.6229 18.1187ZM43.0959 19.9981C42.1562 20.0275 41.2165 19.6751 40.5704 18.9997C39.895 18.2949 39.5426 17.3258 39.572 16.3568C39.5132 14.3599 41.0696 12.7154 43.0665 12.6566C45.0634 12.5979 46.7079 14.1543 46.7666 16.1512C46.7666 16.2099 46.7666 16.298 46.7666 16.3568C46.796 17.3552 46.4143 18.3243 45.7095 18.9997C45.0047 19.6458 44.065 19.9981 43.0959 19.9981ZM36.4592 18.06C36.8996 17.5901 37.1346 16.9734 37.1052 16.3274C37.1346 15.6813 36.8996 15.0646 36.4592 14.6242C36.0774 14.213 35.5194 14.0075 34.9615 14.0075C34.4035 14.0075 33.8456 14.2424 33.4638 14.6535C33.0233 15.1234 32.7884 15.7401 32.8178 16.3568C32.7884 17.0028 33.0233 17.6195 33.4638 18.0894C34.2567 18.9116 35.5782 18.9703 36.4004 18.1775C36.4298 18.1187 36.4592 18.0894 36.4592 18.06ZM35.2845 12.7154C36.1949 12.686 37.0465 13.0678 37.6632 13.7138C38.3092 14.4186 38.6616 15.3583 38.6029 16.3274C38.6322 17.2965 38.3092 18.2362 37.6632 18.9703C37.0758 19.6458 36.1949 19.9981 35.3139 19.9981C34.7853 19.9981 34.2861 19.8807 33.8456 19.6164C33.4345 19.3521 33.0821 18.9997 32.8471 18.5886V19.91H31.4082V10.4248H32.8765V14.0956C33.1114 13.6844 33.4638 13.332 33.8749 13.0971C34.2861 12.8622 34.7853 12.7154 35.2845 12.7154ZM19.5443 12.8328V13.9487C20.0141 13.1265 20.7483 12.7154 21.8055 12.7154C22.3341 12.7154 22.8333 12.8328 23.2738 13.0971C23.7143 13.3614 24.0373 13.7432 24.2429 14.213C24.4778 13.7725 24.8302 13.3908 25.2707 13.1265C25.7112 12.8622 26.2398 12.7154 26.7683 12.7447C27.5025 12.7154 28.2367 13.009 28.7652 13.5376C29.2938 14.0662 29.5581 14.8004 29.5581 15.7401V19.8807H28.0898V15.9456C28.1192 15.417 27.943 14.8884 27.62 14.5067C26.8858 13.8313 25.7699 13.8313 25.0357 14.5067C24.7127 14.9178 24.5365 15.417 24.5659 15.9456V19.8807H23.127V15.9456C23.1563 15.417 22.9801 14.8884 22.6571 14.5067C22.3047 14.1543 21.8348 13.9781 21.365 14.0075C20.8951 13.9781 20.3959 14.1543 20.0729 14.5067C19.7205 14.9178 19.5737 15.417 19.603 15.9456V19.8807H18.1347V12.8328H19.5443ZM14.0528 18.06C14.4933 17.5901 14.7283 16.9734 14.6989 16.3274C14.7283 15.6813 14.4933 15.0646 14.0528 14.5948C13.2306 13.7725 11.9091 13.7432 11.0869 14.5361L11.0575 14.5654C10.617 15.0353 10.4114 15.652 10.4408 16.2687C10.4114 16.9147 10.6464 17.5314 11.0869 18.0013C11.8504 18.8235 13.1719 18.8822 13.9941 18.0894C14.0235 18.1187 14.0528 18.0894 14.0528 18.06ZM9.88285 18.9703C9.2368 18.2655 8.88441 17.2965 8.91377 16.3274C8.88441 15.3583 9.20743 14.4186 9.88285 13.7138C10.4995 13.0678 11.3512 12.686 12.2615 12.7154C12.7901 12.7154 13.2893 12.8328 13.7298 13.0971C14.1409 13.332 14.464 13.6844 14.6989 14.0956V12.8328H16.1672V19.8513H14.6989V18.5298C14.464 18.9703 14.1409 19.3227 13.7298 19.587C13.2893 19.8513 12.7901 19.9981 12.2615 19.9688C11.3512 19.9981 10.4995 19.6164 9.88285 18.9703ZM5.8597 18.0894C6.30019 17.6195 6.53512 17.0028 6.50575 16.3568C6.53512 15.7107 6.30019 15.094 5.8597 14.6535C5.47794 14.2424 4.91998 14.0075 4.36203 14.0368C3.80407 14.0368 3.24612 14.2424 2.86436 14.6535C2.42387 15.1234 2.2183 15.7401 2.24767 16.3861C2.2183 17.0322 2.45323 17.6489 2.89372 18.1187C3.65724 18.941 4.97872 18.9997 5.80097 18.2362C5.80097 18.1481 5.83033 18.1187 5.8597 18.0894ZM4.65569 12.7154C5.56604 12.686 6.41765 13.0678 7.03434 13.7138C7.6804 14.4186 8.03279 15.3583 7.97406 16.3274C8.00342 17.2965 7.6804 18.2362 7.03434 18.941C6.44702 19.6164 5.56604 19.9688 4.68506 19.9688C4.15647 19.9688 3.65724 19.8513 3.21675 19.587C2.80563 19.3227 2.45323 18.9703 2.2183 18.5592V19.8807H0.75V10.4248H2.2183V14.0956C2.45323 13.6844 2.80563 13.332 3.21675 13.0971C3.65724 12.8622 4.15647 12.7154 4.65569 12.7154Z" fill="currentColor"></path></svg>