<svg viewBox="0 0 12 12" fill="currentColor" xmlns="http://www.w3.org/2000/svg"><path d="M11.6529 5.67574H9.51968C9.49703 5.2536 9.44431 4.83395 9.36195 4.42046C9.28073 4.00739 9.1685 3.60204 9.02637 3.20838H11.0119C11.0207 3.20713 11.0297 3.20905 11.0374 3.21382C11.0451 3.2186 11.0511 3.22597 11.0544 3.23478C11.3015 3.76073 11.4753 4.32276 11.5701 4.90289C11.6083 5.13315 11.6345 5.36553 11.6484 5.59893C11.6479 5.60852 11.6479 5.61814 11.6484 5.62773V5.67574H11.6529Z" fill="currentColor"></path><path d="M11.6531 6.36026C11.6531 6.39986 11.6464 6.43946 11.6431 6.48026C11.6053 7.05901 11.4862 7.6283 11.2896 8.16877C11.2303 8.33438 11.1587 8.49519 11.0938 8.6584C11.0915 8.66578 11.0869 8.67208 11.0808 8.67624C11.0747 8.6804 11.0674 8.68215 11.0602 8.6812H9.10713H9.08252C9.21462 8.2996 9.31751 7.90707 9.39014 7.50753C9.46261 7.1085 9.50636 6.70408 9.52102 6.29785H11.6531V6.36026Z" fill="currentColor"></path><path d="M6.7339 0L6.87932 0.0240015C7.22835 0.0788849 7.57179 0.168887 7.9051 0.292819C8.39544 0.474837 8.8594 0.73017 9.28324 1.05127C9.82782 1.45595 10.2959 1.96784 10.6625 2.55976L10.6804 2.59097H10.6547H8.78434C8.77617 2.59159 8.76805 2.58919 8.76133 2.58416C8.75461 2.57914 8.7497 2.5718 8.74742 2.56336C8.54396 2.13057 8.30036 1.72087 8.02031 1.34049C7.71451 0.931831 7.3594 0.568624 6.96433 0.260417C6.88491 0.196813 6.80213 0.140409 6.72159 0.0756048L6.69922 0.0588037L6.72495 0.0384024L6.71152 0H6.7339Z" fill="currentColor"></path><path d="M6.28906 3.21044H8.31154C8.32169 3.20885 8.33205 3.21125 8.34068 3.2172C8.34932 3.22316 8.35565 3.23227 8.35852 3.24284C8.56095 3.74243 8.70704 4.26618 8.79366 4.80294C8.83862 5.0809 8.86887 5.36137 8.88427 5.643C8.88427 5.643 8.88427 5.6514 8.88427 5.6574H6.28906V3.21044Z" fill="currentColor"></path><path d="M6.27344 8.6795V6.31055H8.872C8.872 6.36215 8.872 6.41255 8.86529 6.46296C8.83875 6.90868 8.77283 7.35069 8.66841 7.78304C8.59643 8.07948 8.50637 8.37052 8.39882 8.6543C8.39696 8.66235 8.39239 8.66938 8.38599 8.67403C8.37959 8.67868 8.37181 8.68063 8.36415 8.6795H6.27344Z" fill="currentColor"></path><path d="M3.16016 5.67497C3.16799 5.56936 3.17358 5.46616 3.18365 5.36295C3.20816 5.10458 3.2455 4.8478 3.29551 4.5937C3.38462 4.13212 3.51807 3.68168 3.69374 3.24962C3.69601 3.24224 3.7006 3.23593 3.70672 3.23178C3.71284 3.22762 3.72011 3.22587 3.7273 3.22681H5.70167V5.67497H3.16016Z" fill="currentColor"></path><path d="M5.70055 8.6807H3.67361C3.66347 8.68193 3.65327 8.67921 3.64485 8.67304C3.63643 8.66687 3.63036 8.65767 3.62774 8.6471C3.45505 8.19726 3.32901 7.72841 3.25188 7.24901C3.20242 6.94348 3.17178 6.63479 3.16016 6.32495C3.16016 6.32495 3.16016 6.31655 3.16016 6.31055H5.69943V8.6807H5.70055Z" fill="currentColor"></path><path d="M3.01355 3.20996C2.9867 3.28917 2.95986 3.36357 2.93525 3.43798C2.70042 4.1444 2.56031 4.88302 2.51912 5.63172C2.51992 5.63586 2.51968 5.64015 2.51844 5.64416C2.5172 5.64817 2.51499 5.65176 2.51203 5.65456C2.50908 5.65736 2.50549 5.65928 2.50163 5.66011C2.49777 5.66095 2.49377 5.66067 2.49003 5.65932H0.5C0.5 5.59571 0.50783 5.53931 0.512305 5.47331C0.549636 5.02877 0.631393 4.58982 0.756165 4.16402C0.849345 3.84721 0.964513 3.53832 1.1007 3.23996C1.10319 3.23175 1.10819 3.22468 1.11489 3.21989C1.12158 3.2151 1.12959 3.21287 1.13762 3.21356H3.01355V3.20996Z" fill="currentColor"></path><path d="M2.95388 8.68165H1.10255C1.09228 8.68306 1.08187 8.6806 1.0731 8.67469C1.06432 8.66878 1.05773 8.65979 1.05445 8.64925C0.82575 8.134 0.664991 7.58713 0.576799 7.02434C0.540239 6.79188 0.51485 6.55756 0.500732 6.3223C0.500732 6.3139 0.500732 6.3067 0.500732 6.2959H2.51426C2.54363 7.11092 2.69198 7.91595 2.95388 8.68165Z" fill="currentColor"></path><path d="M6.69922 11.9701L6.78759 11.9041C7.18828 11.6053 7.5531 11.2547 7.87377 10.8601C8.24063 10.405 8.55084 9.90075 8.79664 9.35997C8.80156 9.34331 8.81205 9.32919 8.8261 9.32032C8.84014 9.31146 8.85674 9.30848 8.87271 9.31197H10.7464C10.7173 9.35997 10.6916 9.40317 10.6647 9.44638C10.487 9.72384 10.2888 9.98551 10.0719 10.2288C9.77124 10.566 9.43312 10.8622 9.06511 11.1109C8.69331 11.3664 8.29404 11.5727 7.87601 11.7253C7.53604 11.8504 7.1853 11.9389 6.82898 11.9893L6.77081 11.9989C6.75761 12.0005 6.74426 11.9987 6.73183 11.9937C6.71939 11.9887 6.70823 11.9806 6.69922 11.9701Z" fill="currentColor"></path><path d="M5.33541 11.9772C5.31645 11.9794 5.29732 11.9794 5.27836 11.9772C4.24014 11.8218 3.26508 11.3508 2.46838 10.6199C2.05872 10.247 1.70551 9.80813 1.42134 9.319L1.41016 9.2962H3.16975C3.18044 9.29496 3.1912 9.2976 3.20032 9.30369C3.20944 9.30978 3.2164 9.31897 3.22009 9.3298C3.41813 9.76306 3.65729 10.1733 3.93377 10.5539C4.17562 10.883 4.44401 11.1886 4.73583 11.4671C4.92019 11.644 5.11525 11.8076 5.31975 11.9568L5.33094 11.9652V11.9772H5.33541Z" fill="currentColor"></path><path d="M5.3034 0.0210958L5.33024 0.0534979L5.26984 0.0979007C4.88026 0.394366 4.52336 0.737391 4.20602 1.12037C3.84264 1.54851 3.53587 2.02823 3.29435 2.54606C3.2909 2.55615 3.2844 2.56471 3.27588 2.57037C3.26736 2.57602 3.25732 2.57845 3.24736 2.57726H1.46875C2.41511 1.13957 3.68475 0.276712 5.30004 0.0126953L5.3034 0.0210958Z" fill="currentColor"></path><path d="M8.11748 9.31641C7.66472 10.1735 7.03531 10.9083 6.27734 11.4645V9.31641H8.11748Z" fill="currentColor"></path><path d="M3.93677 9.31543H5.70308V11.4216C4.968 10.8784 4.36282 10.1568 3.93677 9.31543Z" fill="currentColor"></path><path d="M8.0561 2.57422H6.28979V0.571289C7.01417 1.0845 7.61857 1.76987 8.0561 2.57422Z" fill="currentColor"></path><path d="M5.70292 0.632812V2.59254H4.00708C4.42148 1.80582 5.00237 1.13454 5.70292 0.632812Z" fill="currentColor"></path></svg>