<svg viewBox="0 0 18 18" fill="none" xmlns="http://www.w3.org/2000/svg"><mask id="path-1-inside-1_36919_6778" fill="white"><path fill-rule="evenodd" clip-rule="evenodd" d="M8.99915 18C13.9692 18 17.9983 13.9706 17.9983 9C17.9983 4.02944 13.9692 0 8.99915 0C4.02906 0 0 4.02944 0 9C0 13.9706 4.02906 18 8.99915 18ZM4.929 9.15501C4.69215 9.15501 4.5 8.96286 4.5 8.72601V8.39086C4.5 7.20218 5.32671 6.44697 6.64052 6.44697H9.63903V5.54876C9.63903 5.33873 9.77756 5.2002 9.99652 5.2002C10.0904 5.2002 10.1887 5.23595 10.2646 5.29851L11.8421 6.58997C12.0298 6.7419 12.0343 6.99662 11.8421 7.14856L10.2646 8.43108C10.1887 8.49364 10.0904 8.52939 9.99652 8.52939C9.77756 8.52939 9.63903 8.39533 9.63903 8.18083V7.29156H6.55114C5.83168 7.29156 5.36246 7.75183 5.36246 8.45789V8.72601C5.36246 8.96286 5.17031 9.15501 4.929 9.15501ZM8.00348 9.4857C8.22244 9.4857 8.36097 9.61976 8.36097 9.83426V10.7146H11.4489C12.1683 10.7146 12.6375 10.2543 12.6375 9.54826V9.28014C12.6375 9.04329 12.8297 8.85114 13.071 8.85114C13.3078 8.85114 13.5 9.04329 13.5 9.28014V9.61529C13.5 10.804 12.6733 11.5592 11.3595 11.5592H8.36097V12.4663C8.36097 12.6764 8.22244 12.8149 8.00348 12.8149C7.90963 12.8149 7.81132 12.7791 7.73535 12.7166L6.15789 11.4251C5.96574 11.2687 5.97021 11.014 6.15789 10.8665L7.73535 9.58401C7.81132 9.52145 7.90963 9.4857 8.00348 9.4857Z"></path></mask><path fill-rule="evenodd" clip-rule="evenodd" d="M8.99915 18C13.9692 18 17.9983 13.9706 17.9983 9C17.9983 4.02944 13.9692 0 8.99915 0C4.02906 0 0 4.02944 0 9C0 13.9706 4.02906 18 8.99915 18ZM4.929 9.15501C4.69215 9.15501 4.5 8.96286 4.5 8.72601V8.39086C4.5 7.20218 5.32671 6.44697 6.64052 6.44697H9.63903V5.54876C9.63903 5.33873 9.77756 5.2002 9.99652 5.2002C10.0904 5.2002 10.1887 5.23595 10.2646 5.29851L11.8421 6.58997C12.0298 6.7419 12.0343 6.99662 11.8421 7.14856L10.2646 8.43108C10.1887 8.49364 10.0904 8.52939 9.99652 8.52939C9.77756 8.52939 9.63903 8.39533 9.63903 8.18083V7.29156H6.55114C5.83168 7.29156 5.36246 7.75183 5.36246 8.45789V8.72601C5.36246 8.96286 5.17031 9.15501 4.929 9.15501ZM8.00348 9.4857C8.22244 9.4857 8.36097 9.61976 8.36097 9.83426V10.7146H11.4489C12.1683 10.7146 12.6375 10.2543 12.6375 9.54826V9.28014C12.6375 9.04329 12.8297 8.85114 13.071 8.85114C13.3078 8.85114 13.5 9.04329 13.5 9.28014V9.61529C13.5 10.804 12.6733 11.5592 11.3595 11.5592H8.36097V12.4663C8.36097 12.6764 8.22244 12.8149 8.00348 12.8149C7.90963 12.8149 7.81132 12.7791 7.73535 12.7166L6.15789 11.4251C5.96574 11.2687 5.97021 11.014 6.15789 10.8665L7.73535 9.58401C7.81132 9.52145 7.90963 9.4857 8.00348 9.4857Z" fill="#40196D"></path><path d="M9.63903 6.44697V6.94697H10.139V6.44697H9.63903ZM10.2646 5.29851L9.94679 5.68447L9.94791 5.68539L10.2646 5.29851ZM11.8421 6.58997L11.5254 6.97685L11.5275 6.97859L11.8421 6.58997ZM11.8421 7.14856L11.532 6.75631L11.5267 6.7606L11.8421 7.14856ZM10.2646 8.43108L9.94922 8.04311L9.94679 8.04511L10.2646 8.43108ZM9.63903 7.29156H10.139V6.79156H9.63903V7.29156ZM8.36097 10.7146H7.86097V11.2146H8.36097V10.7146ZM8.36097 11.5592V11.0592H7.86097V11.5592H8.36097ZM7.73535 12.7166L8.05321 12.3306L8.05209 12.3297L7.73535 12.7166ZM6.15789 11.4251L6.47463 11.0382L6.47353 11.0373L6.15789 11.4251ZM6.15789 10.8665L6.46685 11.2597L6.47331 11.2545L6.15789 10.8665ZM7.73535 9.58401L8.05078 9.97197L8.05321 9.96997L7.73535 9.58401ZM17.4983 9C17.4983 13.6945 13.6931 17.5 8.99915 17.5V18.5C14.2454 18.5 18.4983 14.2467 18.4983 9H17.4983ZM8.99915 0.5C13.6931 0.5 17.4983 4.30554 17.4983 9H18.4983C18.4983 3.75334 14.2454 -0.5 8.99915 -0.5V0.5ZM0.5 9C0.5 4.30554 4.30524 0.5 8.99915 0.5V-0.5C3.75287 -0.5 -0.5 3.75334 -0.5 9H0.5ZM8.99915 17.5C4.30524 17.5 0.5 13.6945 0.5 9H-0.5C-0.5 14.2467 3.75287 18.5 8.99915 18.5V17.5ZM4 8.72601C4 9.239 4.41601 9.65501 4.929 9.65501V8.65501C4.9683 8.65501 5 8.68671 5 8.72601H4ZM4 8.39086V8.72601H5V8.39086H4ZM6.64052 5.94697C5.88973 5.94697 5.22443 6.16367 4.74113 6.60329C4.25268 7.04761 4 7.67487 4 8.39086H5C5 7.91818 5.16068 7.57349 5.41403 7.34303C5.67254 7.10788 6.0775 6.94697 6.64052 6.94697V5.94697ZM9.63903 5.94697H6.64052V6.94697H9.63903V5.94697ZM9.13903 5.54876V6.44697H10.139V5.54876H9.13903ZM9.99652 4.7002C9.78023 4.7002 9.5568 4.77059 9.38534 4.93896C9.21317 5.10803 9.13903 5.33122 9.13903 5.54876H10.139C10.139 5.55626 10.1342 5.60517 10.086 5.65247C10.0385 5.69907 9.99385 5.7002 9.99652 5.7002V4.7002ZM10.5825 4.91254C10.4205 4.7791 10.2107 4.7002 9.99652 4.7002V5.7002C9.98081 5.7002 9.97082 5.6974 9.9655 5.69545C9.96003 5.69345 9.95387 5.6903 9.94679 5.68447L10.5825 4.91254ZM12.1588 6.20309L10.5814 4.91163L9.94791 5.68539L11.5254 6.97685L12.1588 6.20309ZM12.1522 7.54076C12.3612 7.37551 12.486 7.13167 12.4845 6.86651C12.4831 6.6035 12.3579 6.3642 12.1567 6.20134L11.5275 6.97859C11.514 6.96767 11.4849 6.93169 11.4846 6.87201C11.4842 6.81018 11.5151 6.76967 11.532 6.75635L12.1522 7.54076ZM10.5801 8.81904L12.1575 7.53651L11.5267 6.7606L9.94923 8.04312L10.5801 8.81904ZM9.99652 9.02939C10.2107 9.02939 10.4205 8.95048 10.5825 8.81704L9.94679 8.04511C9.95387 8.03928 9.96003 8.03613 9.9655 8.03413C9.97082 8.03219 9.98081 8.02939 9.99652 8.02939V9.02939ZM9.13903 8.18083C9.13903 8.39832 9.21183 8.62349 9.38699 8.79391C9.56058 8.96281 9.7847 9.02939 9.99652 9.02939V8.02939C9.98938 8.02939 10.0348 8.02894 10.0843 8.07718C10.1355 8.12695 10.139 8.17785 10.139 8.18083H9.13903ZM9.13903 7.29156V8.18083H10.139V7.29156H9.13903ZM6.55114 7.79156H9.63903V6.79156H6.55114V7.79156ZM5.86246 8.45789C5.86246 8.21854 5.93953 8.06266 6.03717 7.96686C6.13575 7.87014 6.29944 7.79156 6.55114 7.79156V6.79156C6.08338 6.79156 5.65273 6.94311 5.33683 7.25305C5.02 7.5639 4.86246 7.99118 4.86246 8.45789H5.86246ZM5.86246 8.72601V8.45789H4.86246V8.72601H5.86246ZM4.929 9.65501C5.44306 9.65501 5.86246 9.24237 5.86246 8.72601H4.86246C4.86246 8.68334 4.89755 8.65501 4.929 8.65501V9.65501ZM8.86097 9.83426C8.86097 9.61677 8.78817 9.3916 8.61302 9.22118C8.43942 9.05228 8.2153 8.9857 8.00348 8.9857V9.9857C8.01061 9.9857 7.96525 9.98615 7.91566 9.9379C7.86451 9.88814 7.86097 9.83724 7.86097 9.83426H8.86097ZM8.86097 10.7146V9.83426H7.86097V10.7146H8.86097ZM11.4489 10.2146H8.36097V11.2146H11.4489V10.2146ZM12.1375 9.54826C12.1375 9.78761 12.0605 9.94349 11.9628 10.0393C11.8643 10.136 11.7006 10.2146 11.4489 10.2146V11.2146C11.9166 11.2146 12.3473 11.063 12.6632 10.7531C12.98 10.4423 13.1375 10.015 13.1375 9.54826H12.1375ZM12.1375 9.28014V9.54826H13.1375V9.28014H12.1375ZM13.071 8.35114C12.5569 8.35114 12.1375 8.76378 12.1375 9.28014H13.1375C13.1375 9.32281 13.1025 9.35114 13.071 9.35114V8.35114ZM14 9.28014C14 8.76715 13.584 8.35114 13.071 8.35114V9.35114C13.0317 9.35114 13 9.31944 13 9.28014H14ZM14 9.61529V9.28014H13V9.61529H14ZM11.3595 12.0592C12.1103 12.0592 12.7756 11.8425 13.2589 11.4029C13.7473 10.9585 14 10.3313 14 9.61529H13C13 10.088 12.8393 10.4327 12.586 10.6631C12.3275 10.8983 11.9225 11.0592 11.3595 11.0592V12.0592ZM8.36097 12.0592H11.3595V11.0592H8.36097V12.0592ZM8.86097 12.4663V11.5592H7.86097V12.4663H8.86097ZM8.00348 13.3149C8.21977 13.3149 8.4432 13.2445 8.61466 13.0761C8.78683 12.9071 8.86097 12.6839 8.86097 12.4663H7.86097C7.86097 12.4588 7.86585 12.4099 7.91401 12.3626C7.96147 12.316 8.00615 12.3149 8.00348 12.3149V13.3149ZM7.4175 13.1025C7.57953 13.236 7.78927 13.3149 8.00348 13.3149V12.3149C8.01919 12.3149 8.02918 12.3177 8.0345 12.3196C8.03997 12.3216 8.04613 12.3248 8.05321 12.3306L7.4175 13.1025ZM5.84116 11.812L7.41861 13.1035L8.05209 12.3297L6.47463 11.0382L5.84116 11.812ZM5.84898 10.4734C5.64306 10.6352 5.51691 10.8759 5.51546 11.1397C5.51401 11.4041 5.63788 11.6465 5.84226 11.8129L6.47353 11.0373C6.48576 11.0473 6.51578 11.0842 6.51545 11.1452C6.51511 11.2057 6.48505 11.2454 6.46681 11.2597L5.84898 10.4734ZM7.41993 9.19605L5.84247 10.4786L6.47331 11.2545L8.05077 9.97196L7.41993 9.19605ZM8.00348 8.9857C7.78927 8.9857 7.57953 9.0646 7.4175 9.19804L8.05321 9.96997C8.04613 9.9758 8.03997 9.97895 8.0345 9.98095C8.02918 9.9829 8.01919 9.9857 8.00348 9.9857V8.9857Z" fill="#40196D" mask="url(#path-1-inside-1_36919_6778)"></path></svg>