<svg viewBox="0 0 11 18" fill="currentColor" xmlns="http://www.w3.org/2000/svg"><path d="M10.2013 11.9555C10.2013 12.9852 9.83898 13.8559 9.11441 14.5678C8.40254 15.2669 7.4428 15.7055 6.23517 15.8835V18H4.29025V15.9216C3.43856 15.8581 2.64407 15.6928 1.90678 15.4258C1.1822 15.1589 0.54661 14.7966 0 14.339L0.838983 12.5466C1.94492 13.411 3.13983 13.8877 4.42373 13.9767V10.0106C3.57203 9.79449 2.85381 9.55932 2.26907 9.30509C1.68432 9.03814 1.19492 8.65042 0.800848 8.14195C0.40678 7.62076 0.209746 6.94703 0.209746 6.12076C0.209746 5.43432 0.381356 4.81144 0.724576 4.25212C1.0678 3.68009 1.54449 3.20975 2.15466 2.8411C2.77754 2.45975 3.48941 2.21822 4.29025 2.11653V0H6.23517V2.09746C6.97246 2.18644 7.66525 2.36441 8.31356 2.63136C8.96186 2.89831 9.50848 3.23517 9.95339 3.64195L9.11441 5.43432C8.18644 4.67161 7.1822 4.21398 6.10169 4.06144V8.19915C6.95339 8.41525 7.6589 8.65042 8.21822 8.90466C8.77754 9.14619 9.24788 9.51483 9.62924 10.0106C10.0106 10.5064 10.2013 11.1547 10.2013 11.9555ZM2.66949 5.98729C2.66949 6.4322 2.82203 6.79449 3.12712 7.07415C3.4322 7.3411 3.86441 7.56992 4.42373 7.76059V4.08051C3.87712 4.19492 3.44492 4.41737 3.12712 4.74788C2.82203 5.07839 2.66949 5.49153 2.66949 5.98729ZM6.10169 13.8814C6.63559 13.7669 7.04237 13.5572 7.32203 13.2521C7.6017 12.9343 7.74153 12.5275 7.74153 12.0318C7.74153 11.6377 7.6017 11.3199 7.32203 11.0784C7.04237 10.8369 6.63559 10.6335 6.10169 10.4682V13.8814Z" fill="currentColor"></path></svg>