<svg viewBox="0 0 19 18" fill="currentColor" xmlns="http://www.w3.org/2000/svg"><path fill-rule="evenodd" clip-rule="evenodd" d="M17.4032 0H1.93933C1.40944 0 0.97998 0.429461 0.97998 0.959351V16.4232C0.97998 16.953 1.40944 17.3826 1.93933 17.3826H10.2646V10.6511H7.99926V8.02774H10.2646V6.09308C10.2646 3.84795 11.6358 2.62542 13.6387 2.62542C14.5981 2.62542 15.4226 2.6968 15.6629 2.72871V5.07505L14.2738 5.0757C13.1846 5.0757 12.9736 5.59328 12.9736 6.35282V8.02774H15.5714L15.2332 10.6511H12.9736V17.3826H17.4032C17.933 17.3826 18.3625 16.953 18.3625 16.4232V0.959351C18.3625 0.429461 17.933 0 17.4032 0Z" fill="currentColor"/></svg>