<svg viewBox="0 0 60 60" fill="none" xmlns="http://www.w3.org/2000/svg"><path d="M59.1621 29.5811C59.1621 45.9182 45.9182 59.1621 29.5811 59.1621C13.2439 59.1621 0 45.9182 0 29.5811C0 13.2439 13.2439 0 29.5811 0C45.9182 0 59.1621 13.2439 59.1621 29.5811Z" fill="#008751" fill-opacity="0.3"></path><mask id="mask0_36919_7269" maskUnits="userSpaceOnUse" x="13" y="14" width="33" height="31" style="mask-type: alpha;"><path d="M13.6328 19.1875C13.6328 16.5383 15.7805 14.3906 18.4297 14.3906H40.729C43.3782 14.3906 45.5259 16.5383 45.5259 19.1876V39.9681C45.5259 42.6173 43.3782 44.765 40.729 44.765H18.4297C15.7805 44.765 13.6328 42.6173 13.6328 39.9681V19.1875Z" fill="#E94D1E"></path></mask><g mask="url(#mask0_36919_7269)"><g clip-path="url(#clip0_36919_7269)"><path d="M0.640625 8.15479H58.2038V51.3271H0.640625V8.15479Z" fill="#008751"></path><path d="M22.0664 7.99463H38.0562V51.167H22.0664V7.99463Z" fill="white"></path></g></g><defs><clipPath id="clip0_36919_7269"><rect width="57.5631" height="43.1724" fill="white" transform="translate(0.640625 8.15479)"></rect></clipPath></defs></svg>