<svg viewBox="0 0 109 95" fill="none" xmlns="http://www.w3.org/2000/svg" class="investment__stock-image-box"><path d="M58.6693 25.602C58.2294 24.4932 58.8115 23.2489 59.9395 22.8609C60.1459 22.7899 60.3526 22.7202 60.56 22.6522C71.3099 19.1188 83.3708 19.4279 94.5419 24.453C117.926 34.9721 128.583 62.5124 118.389 86.0408C108.072 109.853 80.4138 120.813 56.5831 110.522C33.4029 100.511 22.3768 74.0779 31.2351 50.7052C31.6548 49.5977 32.9179 49.068 34.0052 49.5375C45.4907 54.4976 63.0638 62.0866 71.0371 65.53C72.5851 66.1985 74.1675 64.661 73.5456 63.0937L58.6693 25.602Z" fill="#48D38A"></path><path d="M56.5841 110.521C57.5332 110.931 58.489 111.303 59.4489 111.646C38.1886 100.786 28.3949 75.5602 36.8899 53.1463C37.3095 52.0388 38.5727 51.5091 39.66 51.9786L34.0064 49.5371C32.9191 49.0675 31.656 49.5973 31.2363 50.7047C22.3776 74.0773 33.4039 100.511 56.5841 110.521Z" fill="black" fill-opacity="0.1"></path><path d="M71.0377 65.53L39.3917 51.8634C30.8436 71.6572 39.96 94.6329 59.7539 103.181C79.5476 111.729 102.523 102.613 111.071 82.8188C119.619 63.0251 110.503 40.0494 90.7092 31.5012C81.5925 27.5641 71.8009 27.3743 63.0548 30.2491C62.3223 30.4899 61.5973 30.7529 60.8804 31.0362L60.8616 30.9888C60.8461 30.9949 60.8306 31.0016 60.815 31.0079L73.5462 63.0937C74.1681 64.661 72.5858 66.1985 71.0377 65.53Z" fill="#FFC83E"></path><path d="M60.1384 86.0704C57.5015 84.9317 54.4408 86.1461 53.3021 88.783C52.1633 91.4198 53.3778 94.4805 56.0146 95.6193C58.6515 96.758 61.7122 95.5436 62.8509 92.9067C63.9897 90.2699 62.7752 87.2092 60.1384 86.0704Z" fill="#1DCBEF"></path><path d="M23.3608 39.0029C34.8462 43.9629 52.4193 51.552 60.3927 54.9953C61.9407 55.6639 63.523 54.1264 62.9011 52.559L48.025 15.0676C47.589 13.9688 46.3231 13.4457 45.2454 13.9318C35.5422 18.3057 27.2868 25.966 22.3117 36.1859C21.7929 37.2505 22.2733 38.5332 23.3608 39.0029Z" fill="#48D38A"></path><path d="M60.3924 54.995C61.9405 55.6635 63.5232 54.1262 62.9013 52.5589L50.2108 20.5766C50.2076 20.5777 50.2043 20.5789 50.2012 20.5803L50.1824 20.5329C40.9 24.216 33.0221 31.4389 28.7467 41.3288C39.7852 46.0956 53.5862 52.0557 60.3924 54.995Z" fill="#FFC83E"></path><path d="M46.7662 33.1531C44.2912 32.0843 41.4184 33.2242 40.3496 35.6991C39.2808 38.1741 40.4207 41.0469 42.8956 42.1157C45.3706 43.1846 48.2434 42.0447 49.3122 39.5697C50.3811 37.0948 49.2412 34.2219 46.7662 33.1531Z" fill="#1DCBEF"></path><path d="M63.8245 67.5723C62.3375 66.9301 60.6115 67.615 59.9693 69.102C59.3271 70.5889 60.012 72.315 61.499 72.9571C62.986 73.5993 64.712 72.9144 65.3541 71.4274C65.9963 69.9405 65.3115 68.2144 63.8245 67.5723Z" fill="#40196D"></path><path d="M72.4865 79.1075C71.0546 78.4891 69.3925 79.1486 68.7741 80.5805C68.1557 82.0124 68.8152 83.6745 70.2471 84.2929C71.679 84.9113 73.3411 84.2518 73.9595 82.8199C74.5779 81.3879 73.9184 79.7258 72.4865 79.1075Z" fill="#40196D"></path><path d="M89.177 85.6669C86.5859 84.548 83.5783 85.7414 82.4594 88.3324C81.3404 90.9235 82.5338 93.9311 85.1248 95.0501C87.7159 96.1691 90.7235 94.9757 91.8425 92.3846C92.9615 89.7935 91.7681 86.7859 89.177 85.6669Z" fill="#1DCBEF"></path><path d="M90.2727 68.2707C87.6816 67.1517 84.674 68.3451 83.5551 70.9362C82.4361 73.5273 83.6295 76.5349 86.2205 77.6538C88.8116 78.7728 91.8192 77.5794 92.9382 74.9884C94.0572 72.3973 92.8638 69.3897 90.2727 68.2707Z" fill="#1DCBEF"></path><path d="M103.421 55.7426C100.83 54.6237 97.8225 55.817 96.7035 58.4081C95.5845 60.9992 96.7779 64.0068 99.369 65.1258C101.96 66.2447 104.968 65.0514 106.087 62.4603C107.206 59.8692 106.012 56.8616 103.421 55.7426Z" fill="#1DCBEF"></path><path d="M80.302 36.0969C77.7109 34.9779 74.7033 36.1713 73.5844 38.7624C72.4654 41.3534 73.6588 44.361 76.2498 45.48C78.8409 46.599 81.8485 45.4056 82.9675 42.8145C84.0865 40.2235 82.8931 37.2159 80.302 36.0969Z" fill="#1DCBEF"></path><path d="M82.633 54.8201C81.2011 54.2017 79.539 54.8612 78.9206 56.2932C78.3022 57.7251 78.9617 59.3872 80.3936 60.0056C81.8255 60.6239 83.4876 59.9644 84.106 58.5325C84.7244 57.1006 84.0649 55.4385 82.633 54.8201Z" fill="#40196D"></path><path d="M104.108 76.7356C102.676 76.1173 101.014 76.7768 100.395 78.2087C99.7768 79.6406 100.436 81.3027 101.868 81.9211C103.3 82.5395 104.962 81.88 105.581 80.448C106.199 79.0161 105.54 77.354 104.108 76.7356Z" fill="#40196D"></path><path d="M95.3459 45.0828C93.9139 44.4644 92.2518 45.1239 91.6335 46.5558C91.0151 47.9878 91.6746 49.6499 93.1065 50.2683C94.5384 50.8866 96.2005 50.2271 96.8189 48.7952C97.4373 47.3633 96.7778 45.7012 95.3459 45.0828Z" fill="#40196D"></path><path d="M75.7521 95.2098C74.3202 94.5914 72.6581 95.2509 72.0397 96.6828C71.4213 98.1147 72.0808 99.7768 73.5127 100.395C74.9447 101.014 76.6068 100.354 77.2252 98.9222C77.8435 97.4902 77.184 95.8281 75.7521 95.2098Z" fill="#40196D"></path><path d="M62.473 35.1927L66.5322 33.4805C67.249 33.1972 67.9739 32.9341 68.7065 32.6934C76.5424 30.1178 85.2171 30.0045 93.4943 32.8396C92.5904 32.3624 91.6617 31.9161 90.7074 31.504C80.685 27.1758 69.7298 27.4255 60.8319 31.0581L62.473 35.1927Z" fill="black" fill-opacity="0.05"></path><path d="M59.7513 103.182C60.7027 103.593 61.6617 103.962 62.6259 104.292C44.776 94.8733 36.9055 73.1484 45.0427 54.306L39.3891 51.8645C30.8411 71.6582 39.9574 94.6339 59.7513 103.182Z" fill="black" fill-opacity="0.05"></path><path d="M23.3601 39.0023C24.252 39.3875 25.1809 39.7886 26.1389 40.2023C26.1343 39.8893 26.1985 39.5706 26.3453 39.269C31.2506 29.1928 39.3456 21.6071 48.872 17.2037L48.0241 15.067C47.5881 13.9681 46.3224 13.4452 45.2445 13.9311C35.5414 18.305 27.286 25.9653 22.3108 36.1852C21.7923 37.2502 22.2728 38.5327 23.3601 39.0023Z" fill="black" fill-opacity="0.1"></path><path d="M33.2896 43.2898C37.2682 34.8176 43.9382 28.4123 51.8308 24.6577L50.2111 20.5758C50.2079 20.5769 50.2046 20.5781 50.2015 20.5795L50.1827 20.5321C40.9003 24.2152 33.0224 31.4381 28.747 41.328C30.2195 41.9639 31.742 42.6214 33.2896 43.2898Z" fill="black" fill-opacity="0.05"></path><path d="M62.4749 35.1895L66.5341 33.4773C67.2509 33.194 67.9758 32.9309 68.7085 32.6903C76.5443 30.1147 85.2191 30.0013 93.4962 32.8364C92.5923 32.3593 91.6636 31.9129 90.7094 31.5008C80.6869 27.1726 69.7318 27.4223 60.8339 31.0549L62.4749 35.1895Z" fill="black" fill-opacity="0.05"></path><path d="M59.7533 103.181C60.7047 103.592 61.6637 103.961 62.6279 104.291C44.778 94.8723 36.9075 73.1474 45.0447 54.305L39.3911 51.8635C30.843 71.6572 39.9594 94.633 59.7533 103.181Z" fill="black" fill-opacity="0.05"></path><path d="M60.8811 31.0362C60.8957 31.0305 60.9105 31.0251 60.9251 31.0195L60.8811 31.0362Z" fill="black" fill-opacity="0.1"></path><path d="M58.6703 25.602C58.2303 24.4932 58.8124 23.2489 59.9404 22.8609C60.1468 22.7899 60.3535 22.7202 60.5609 22.6522C71.3108 19.1188 83.3717 19.4279 94.5429 24.453C95.2689 24.7797 95.9826 25.1228 96.684 25.4817C86.5302 21.8497 75.8462 21.9278 66.2145 25.0937C66.0073 25.1618 65.8004 25.2314 65.594 25.3024L59.6325 28.0271L58.6703 25.602Z" fill="black" fill-opacity="0.1"></path><path d="M48.7434 66.3618C46.1523 65.2428 43.1447 66.4362 42.0258 69.0273C40.9068 71.6183 42.1002 74.6259 44.6912 75.7449C47.2823 76.8639 50.2899 75.6705 51.4089 73.0794C52.5279 70.4883 51.3345 67.4808 48.7434 66.3618Z" fill="#1DCBEF"></path></svg>