<svg viewBox="0 0 65 64" fill="none" xmlns="http://www.w3.org/2000/svg"><g opacity="0.5"><path opacity="0.5" d="M44.8188 1.82784C43.4909 0.465599 41.5542 -0.0758926 39.3653 0.301441C37.3182 0.655324 35.2689 1.79372 33.597 3.49918C33.1127 3.99724 32.7057 4.56805 32.39 5.19185C32.0826 4.54705 31.6789 3.95513 31.1934 3.43736C29.5506 1.69992 27.5202 0.529551 25.4709 0.145822C23.2904 -0.280544 21.3453 0.237495 19.9924 1.57628C18.6394 2.91507 18.0849 4.88701 18.4226 7.12969C18.7395 9.22741 19.8194 11.3401 21.4642 13.0732C24.9206 16.7208 31.8188 15.2967 32.1106 15.2328L32.1961 15.2136L32.4609 15.2754C32.7527 15.3436 39.6259 16.8892 43.1428 13.3035C44.8105 11.598 45.93 9.50668 46.2844 7.41323C46.67 5.17268 46.1468 3.19221 44.8188 1.82784ZM30.9515 13.1265C29.2838 13.3568 25.129 13.668 23.0673 11.4914C21.7414 10.0908 20.8742 8.41944 20.6261 6.78007C20.401 5.28779 20.7262 4.0087 21.5476 3.20287C21.8681 2.88826 22.2514 2.64827 22.6712 2.49935C23.4472 2.24288 24.2755 2.20024 25.0728 2.37572C26.6655 2.68057 28.2748 3.61857 29.6007 5.01918C31.6624 7.18085 31.2288 11.4275 30.9515 13.1244V13.1265ZM44.108 7.02737C43.8328 8.66035 42.9384 10.3189 41.5876 11.6939C39.4883 13.8258 35.3335 13.4484 33.6762 13.1862C33.4281 11.4807 33.0654 7.24054 35.1647 5.10019C36.5156 3.72516 38.1395 2.81487 39.7364 2.54199C40.5366 2.38063 41.3643 2.43799 42.1358 2.70828C42.5538 2.86483 42.9335 3.1121 43.2491 3.4331C44.0538 4.25811 44.3581 5.53295 44.108 7.02523V7.02737Z" fill="url(#paint0_linear_38244_9871)"/></g><path d="M32.7841 14.7738L32.1274 14.9145C31.8481 14.9742 25.248 16.3364 21.9396 12.8466C20.3678 11.188 19.3338 9.16706 19.0211 7.15888C18.6958 5.01213 19.2295 3.12547 20.522 1.84424C21.8145 0.563012 23.6761 0.0769595 25.7629 0.475611C27.7162 0.848681 29.6592 1.96789 31.231 3.62858C34.5373 7.11838 32.9988 13.823 32.9321 14.1065L32.7841 14.7738ZM23.0841 2.73107C22.6822 2.87363 22.3152 3.10345 22.0084 3.40474C21.2245 4.18286 20.9119 5.398 21.1266 6.82845C21.3642 8.39535 22.1939 9.99634 23.4635 11.3373C25.4377 13.4201 29.4132 13.1216 31.0079 12.902C31.2727 11.2797 31.6896 7.22497 29.7154 5.14217C28.4459 3.80338 26.9074 2.90376 25.3814 2.61383C24.6189 2.44568 23.8265 2.48612 23.0841 2.73107Z" fill="#CACACA"/><path d="M31.8112 14.8005L31.6653 14.1312C31.6027 13.8455 30.1768 7.11531 33.5415 3.6852C35.1425 2.05436 37.1021 0.969253 39.0617 0.630292C41.1464 0.267882 43.008 0.785911 44.2734 2.09059C45.5388 3.39527 46.0454 5.28833 45.6847 7.42016C45.347 9.42194 44.2797 11.4237 42.6786 13.0546C39.314 16.4847 32.7368 15.0052 32.4637 14.9412L31.8112 14.8005ZM41.7134 2.91987C40.976 2.66149 40.1851 2.60634 39.4203 2.75999C37.8901 3.02433 36.337 3.89625 35.0424 5.21159C33.0328 7.26027 33.3747 11.3193 33.6186 12.948C35.2092 13.1953 39.1805 13.5641 41.1881 11.5175C42.4806 10.2001 43.3353 8.61399 43.6 7.0407C43.8398 5.61451 43.5479 4.39297 42.7766 3.60206C42.4742 3.29925 42.1116 3.06658 41.7134 2.91987Z" fill="#CACACA"/><g opacity="0.5"><path opacity="0.5" d="M64.0017 13H0V26.0958H3.32506V63.9976H60.6766V26.0958H64.0017V13Z" fill="url(#paint1_linear_38244_9871)"/></g><path d="M59.9554 16.9648H4.05478V63.3598H59.9554V16.9648Z" fill="#DBDCE0"/><path d="M37.2654 25.25H26.7336V63.3586H37.2654V25.25Z" fill="#CACACA"/><path opacity="0.1" d="M59.9554 14.4863H4.05478V26.0856H59.9554V14.4863Z" fill="black"/><path d="M63.1893 13.6465H0.807373V25.2458H63.1893V13.6465Z" fill="#DBDCE0"/><path d="M37.2654 13.6465H26.7336V25.2458H37.2654V13.6465Z" fill="#CACACA"/><defs><linearGradient id="paint0_linear_38244_9871" x1="17909.6" y1="9191.46" x2="17909.6" y2="8040.59" gradientUnits="userSpaceOnUse"><stop stop-color="#808080" stop-opacity="0.25"/><stop offset="0.54" stop-color="#808080" stop-opacity="0.12"/><stop offset="1" stop-color="#808080" stop-opacity="0.1"/></linearGradient><linearGradient id="paint1_linear_38244_9871" x1="29115.7" y1="37092.4" x2="29115.7" y2="24892.7" gradientUnits="userSpaceOnUse"><stop stop-color="#808080" stop-opacity="0.25"/><stop offset="0.54" stop-color="#808080" stop-opacity="0.12"/><stop offset="1" stop-color="#808080" stop-opacity="0.1"/></linearGradient></defs></svg>