<svg viewBox="0 0 11 12" fill="currentColor" xmlns="http://www.w3.org/2000/svg"><path opacity="1" d="M10.0605 3.07031H8.06836V2.83594C8.06836 1.34766 6.86133 0.140625 5.37305 0.140625C3.88477 0.140625 2.67773 1.34766 2.67773 2.83594V3.07031H0.685547C0.42627 3.07031 0.216797 3.27979 0.216797 3.53906V11.3906C0.216797 11.6499 0.42627 11.8594 0.685547 11.8594H10.0605C10.3198 11.8594 10.5293 11.6499 10.5293 11.3906V3.53906C10.5293 3.27979 10.3198 3.07031 10.0605 3.07031ZM7.01367 3.07031H3.73242V2.83594C3.73242 1.9292 4.46631 1.19531 5.37305 1.19531C6.27979 1.19531 7.01367 1.9292 7.01367 2.83594V3.07031Z" fill="currentColor"></path></svg>