<svg viewBox="0 0 45 48" fill="none" xmlns="http://www.w3.org/2000/svg"><g filter="url(#filter0_d_37796_13206)"><path d="M31.229 10.5H14.1118C13.2399 10.4985 12.4031 10.823 11.7854 11.402C11.1678 11.9809 10.8199 12.767 10.8184 13.5873V34.4016C10.8432 36.0923 12.2856 37.4615 14.0824 37.5H31.079C31.9509 37.5015 32.7877 37.177 33.4054 36.598C34.023 36.0191 34.3709 35.233 34.3724 34.4127V13.5181C34.3811 12.7257 34.0547 11.9626 33.4652 11.3966C32.8757 10.8305 32.0713 10.508 31.229 10.5Z" fill="white"></path></g><path d="M25.285 21.4339L20.7017 24.957L16.2188 23.1382L28.2188 18.5L23.5805 30.5L21.7618 26.0169L25.285 21.4339Z" fill="#48D38A"></path><defs><filter id="filter0_d_37796_13206" x="0.818359" y="0.5" width="43.5547" height="47" filterUnits="userSpaceOnUse" color-interpolation-filters="sRGB"><feFlood flood-opacity="0" result="BackgroundImageFix"></feFlood><feColorMatrix in="SourceAlpha" type="matrix" values="0 0 0 0 0 0 0 0 0 0 0 0 0 0 0 0 0 0 127 0" result="hardAlpha"></feColorMatrix><feOffset></feOffset><feGaussianBlur stdDeviation="5"></feGaussianBlur><feColorMatrix type="matrix" values="0 0 0 0 0 0 0 0 0 0 0 0 0 0 0 0 0 0 0.06 0"></feColorMatrix><feBlend mode="normal" in2="BackgroundImageFix" result="effect1_dropShadow_37796_13206"></feBlend><feBlend mode="normal" in="SourceGraphic" in2="effect1_dropShadow_37796_13206" result="shape"></feBlend></filter></defs></svg>