<svg viewBox="0 0 14 14" fill="currentColor" xmlns="http://www.w3.org/2000/svg"><path d="M7.5202 0.228853C7.45461 0.156694 7.37467 0.0990405 7.28549 0.0595881C7.19632 0.0201357 7.09988 -0.000244141 7.00237 -0.000244141C6.90486 -0.000244141 6.80843 0.0201357 6.71925 0.0595881C6.63008 0.0990405 6.55014 0.156694 6.48455 0.228853L0.186703 7.22646C0.0938359 7.32659 0.0322966 7.4517 0.00967102 7.58638C-0.0129546 7.72106 0.00432231 7.85941 0.0593721 7.98439C0.114422 8.10937 0.204838 8.2155 0.319477 8.28972C0.434115 8.36394 0.567964 8.40299 0.704526 8.40206H2.10405V13.3004C2.10405 13.486 2.17777 13.664 2.309 13.7952C2.44023 13.9264 2.61822 14.0001 2.80381 14.0001H11.2009C11.3865 14.0001 11.5645 13.9264 11.6957 13.7952C11.827 13.664 11.9007 13.486 11.9007 13.3004V8.40206H13.3002C13.4858 8.40206 13.6638 8.32833 13.795 8.1971C13.9263 8.06587 14 7.88788 14 7.7023C14.0013 7.52646 13.9363 7.35658 13.818 7.22646L7.5202 0.228853Z" fill="currentColor"></path></svg>