<svg viewBox="0 0 52 56" fill="none" xmlns="http://www.w3.org/2000/svg"><g filter="url(#filter0_d_43874_3818)"><rect x="10" y="10" width="32" height="36" rx="4" fill="white"></rect><path d="M29.3587 34.7514C25.9843 34.7514 22.6237 34.7514 19.2567 34.7514C19.2549 34.7148 19.2512 34.6819 19.2512 34.649C19.2512 34.2625 19.2485 33.8759 19.2512 33.4903C19.2576 32.7455 19.5158 32.1058 20.0695 31.6005C20.5201 31.1883 21.0629 30.9855 21.6677 30.9654C22.132 30.9498 22.5982 30.9608 23.0625 30.9608C24.3177 30.9608 25.5729 30.9571 26.8281 30.9617C27.5433 30.9644 28.1664 31.2039 28.669 31.7275C29.1443 32.2228 29.3514 32.8241 29.3587 33.5012C29.3623 33.9134 29.3587 34.3255 29.3587 34.7514Z" fill="#F7685B"></path><path d="M24.3045 24.6289C25.7348 24.6298 26.8322 25.731 26.8304 27.1639C26.8295 28.5977 25.7293 29.6943 24.299 29.6897C22.8668 29.6842 21.7813 28.5949 21.7813 27.163C21.7803 25.7255 22.8732 24.628 24.3045 24.6289Z" fill="#F7685B"></path><path d="M32.75 31.3808C32.6788 31.3808 32.6387 31.3808 32.5986 31.3808C31.5814 31.3808 30.5652 31.3799 29.5481 31.3826C29.4724 31.3826 29.4258 31.358 29.3766 31.3013C28.8101 30.636 28.0986 30.2276 27.2274 30.1444C26.8306 30.106 26.4274 30.138 26.0205 30.1206C26.9747 29.5349 27.4865 28.6704 27.6762 27.582C27.7182 27.582 27.7583 27.582 27.7993 27.582C28.5738 27.582 29.3492 27.582 30.1237 27.582C30.7175 27.582 31.2685 27.7237 31.7465 28.0901C32.2501 28.4767 32.594 28.9811 32.6697 29.6116C32.74 30.1901 32.7263 30.7795 32.75 31.3808Z" fill="#F7685B"></path><path d="M27.586 26.3136C27.3917 25.6583 27.0514 25.1046 26.5506 24.6522C26.172 24.3104 25.7415 24.0573 25.2553 23.9047C25.1722 23.8791 25.1467 23.8416 25.1485 23.7539C25.1613 22.64 25.8227 21.7015 26.8818 21.3743C28.3249 20.9284 29.8447 21.7097 30.1512 23.2778C30.3154 24.1195 30.1174 24.8907 29.5272 25.5304C29.0218 26.0778 28.3751 26.3136 27.638 26.319C27.6216 26.32 27.607 26.3163 27.586 26.3136Z" fill="#F7685B"></path></g><defs><filter id="filter0_d_43874_3818" x="0" y="0" width="52" height="56" filterUnits="userSpaceOnUse" color-interpolation-filters="sRGB"><feFlood flood-opacity="0" result="BackgroundImageFix"></feFlood><feColorMatrix in="SourceAlpha" type="matrix" values="0 0 0 0 0 0 0 0 0 0 0 0 0 0 0 0 0 0 127 0" result="hardAlpha"></feColorMatrix><feOffset></feOffset><feGaussianBlur stdDeviation="5"></feGaussianBlur><feColorMatrix type="matrix" values="0 0 0 0 0 0 0 0 0 0 0 0 0 0 0 0 0 0 0.06 0"></feColorMatrix><feBlend mode="normal" in2="BackgroundImageFix" result="effect1_dropShadow_43874_3818"></feBlend><feBlend mode="normal" in="SourceGraphic" in2="effect1_dropShadow_43874_3818" result="shape"></feBlend></filter></defs></svg>