<svg viewBox="0 0 24 20" fill="currentColor" xmlns="http://www.w3.org/2000/svg"><path d="M19.2162 20H21.8818C23.2804 20 24 19.2438 24 17.754V2.24605C24 0.756208 23.2804 0 21.8818 0H19.2162C17.8277 0 17.1182 0.756208 17.1182 2.24605V17.754C17.1182 19.2438 17.8277 20 19.2162 20ZM19.4291 18.6117C18.6993 18.6117 18.4257 18.307 18.4257 17.5056V2.49436C18.4257 1.693 18.6993 1.38826 19.4291 1.38826H21.6892C22.4088 1.38826 22.6824 1.693 22.6824 2.49436V17.5056C22.6824 18.307 22.4088 18.6117 21.6892 18.6117H19.4291ZM10.6622 20H13.3277C14.7162 20 15.4358 19.2438 15.4358 17.754V5.36117C15.4358 3.86005 14.7162 3.10384 13.3277 3.10384H10.6622C9.26351 3.10384 8.55405 3.86005 8.55405 5.36117V17.754C8.55405 19.2438 9.26351 20 10.6622 20ZM10.8649 18.6117C10.1351 18.6117 9.86149 18.307 9.86149 17.5056V5.59819C9.86149 4.79684 10.1351 4.4921 10.8649 4.4921H13.125C13.8547 4.4921 14.1284 4.79684 14.1284 5.59819V17.5056C14.1284 18.307 13.8547 18.6117 13.125 18.6117H10.8649ZM2.10811 20H4.76351C6.16216 20 6.88176 19.2438 6.88176 17.754V8.43115C6.88176 6.94131 6.16216 6.1851 4.76351 6.1851H2.10811C0.709459 6.1851 0 6.94131 0 8.43115V17.754C0 19.2438 0.709459 20 2.10811 20ZM2.31081 18.6117C1.58108 18.6117 1.30743 18.307 1.30743 17.5056V8.67946C1.30743 7.8781 1.58108 7.57336 2.31081 7.57336H4.57095C5.30068 7.57336 5.57432 7.8781 5.57432 8.67946V17.5056C5.57432 18.307 5.30068 18.6117 4.57095 18.6117H2.31081Z" fill="currentColor"></path></svg>