<svg viewBox="0 0 135 117" fill="none" xmlns="http://www.w3.org/2000/svg" class="investment__stock-box-icon"><path d="M95.7771 116.118H109.091C114.379 116.118 117.069 113.26 117.069 107.442V35.326C117.069 29.5077 114.379 26.6497 109.091 26.6497H95.7771C90.5352 26.6497 87.8447 29.5077 87.8447 35.326V107.442C87.8447 113.26 90.5352 116.118 95.7771 116.118ZM57.0891 116.118H70.4026C75.6909 116.118 78.3814 113.26 78.3814 107.442V49.2592C78.3814 43.4409 75.6909 40.5828 70.4026 40.5828H57.0891C51.8472 40.5828 49.1567 43.4409 49.1567 49.2592V107.442C49.1567 113.26 51.8472 116.118 57.0891 116.118ZM18.4012 116.118H31.7147C37.0029 116.118 39.6935 113.26 39.6935 107.442V62.9882C39.6935 57.17 37.0029 54.3119 31.7147 54.3119H18.4012C13.1593 54.3119 10.4688 57.17 10.4688 62.9882V107.442C10.4688 113.26 13.1593 116.118 18.4012 116.118Z" fill="#48D38A"></path><path fill-rule="evenodd" clip-rule="evenodd" d="M119.724 0.000181496C127.979 0.000181496 134.715 6.69072 134.715 14.977C134.715 23.2627 127.979 29.9541 119.724 29.9541C117.933 29.9541 116.259 29.6423 114.663 29.0593L93.0526 55.0453C95.0774 57.6127 96.2844 60.8415 96.2844 64.3426C96.2844 72.6283 89.5872 79.3196 81.2938 79.3196C73.039 79.3196 66.3418 72.6289 66.3418 64.3426C66.3418 62.242 66.7701 60.2192 67.5489 58.3906L54.7777 45.9424C52.4026 47.4984 49.5991 48.3933 46.6009 48.3933C42.5514 48.3933 38.8522 46.7982 36.1658 44.1918L29.6244 49.2879C30.1306 50.805 30.4032 52.4001 30.4032 54.1117C30.4032 62.3587 23.706 69.0493 15.4125 69.0493C7.11907 69.0493 0.421875 62.3587 0.421875 54.1117C0.421875 45.826 7.11907 39.1347 15.4125 39.1347C19.1505 39.1347 22.5772 40.4962 25.1856 42.7524L32.1166 37.3453C31.7661 36.1004 31.6104 34.7779 31.6104 33.4163C31.6104 25.1306 38.3076 18.4392 46.601 18.4392C54.8558 18.4392 61.5917 25.13 61.5917 33.4163C61.5917 35.7893 61.0076 38.0844 59.9952 40.0683L72.494 52.2441C74.986 50.4546 78.0231 49.3654 81.2936 49.3654C83.2015 49.3654 85.0315 49.7155 86.7058 50.3767L108.199 24.5466C106.019 21.9402 104.734 18.6336 104.734 14.9768C104.734 6.69113 111.431 0 119.724 0L119.724 0.000181496ZM46.6029 26.686C50.302 26.686 53.3388 29.6813 53.3388 33.4159C53.3388 37.1115 50.3017 40.1459 46.6029 40.1459C42.865 40.1459 39.8671 37.1116 39.8671 33.4159C39.8671 29.6814 42.8653 26.686 46.6029 26.686ZM15.4144 47.3813C19.1134 47.3813 22.1502 50.3766 22.1502 54.1111C22.1502 57.8068 19.1131 60.8018 15.4144 60.8018C11.7153 60.8018 8.6785 57.8065 8.6785 54.1111C8.6785 50.3767 11.7156 47.3813 15.4144 47.3813ZM81.298 57.6124C85.036 57.6124 88.0339 60.6467 88.0339 64.3422C88.0339 68.0767 85.0357 71.0723 81.298 71.0723C77.599 71.0723 74.6008 68.0768 74.6008 64.3422C74.6008 60.6467 77.599 57.6124 81.298 57.6124ZM119.729 8.24717C123.428 8.24717 126.465 11.2814 126.465 14.977C126.465 18.6726 123.428 21.7071 119.729 21.7071C115.991 21.7071 112.993 18.6727 112.993 14.977C112.993 11.2815 115.991 8.24717 119.729 8.24717Z" fill="#FFC83E"></path><path d="M15.2463 69.4817C23.6665 69.4817 30.4925 62.6636 30.4925 54.2531C30.4925 45.8425 23.6665 39.0244 15.2463 39.0244C6.82598 39.0244 -1.96608e-09 45.8425 -4.39135e-09 54.2531C-6.81663e-09 62.6636 6.82598 69.4817 15.2463 69.4817Z" fill="#FFC83E"></path><path d="M15.2446 68.3424C7.47878 68.3424 1.16016 62.0311 1.16016 54.2742C1.16016 46.5174 7.47878 40.2061 15.2446 40.2061C23.0104 40.2061 29.329 46.5174 29.329 54.2742C29.329 62.0311 23.0104 68.3424 15.2446 68.3424ZM15.2446 40.8983C7.86605 40.8983 1.87355 46.8839 1.87355 54.2539C1.87355 61.6239 7.86605 67.6095 15.2446 67.6095C22.6231 67.6095 28.6156 61.6239 28.6156 54.2539C28.636 46.9042 22.6231 40.8983 15.2446 40.8983Z" fill="#E2951A"></path><path d="M17.5722 58.8708L13.5623 54.6548L15.7509 58.8708L14.2369 58.8708L12.0034 54.5727L12.9327 58.8708L11.9959 58.8708L11.0665 54.5658L11.0665 58.8708L10.6992 58.8708L10.6992 49.5695L11.0665 49.5695L11.0665 54.2099L12.0109 49.5695L12.9403 49.5695L11.9959 54.2304L14.2744 49.5695L15.7734 49.5695L13.5024 54.2099L17.6247 49.5695L19.9781 49.5695L15.7134 54.3742L20.0006 58.8708L17.5722 58.8708Z" fill="#E2951A"></path><path d="M46.3713 48.5401C54.7915 48.5401 61.6175 41.722 61.6175 33.3114C61.6175 24.9009 54.7915 18.0828 46.3713 18.0828C37.951 18.0828 31.125 24.9009 31.125 33.3114C31.125 41.722 37.951 48.5401 46.3713 48.5401Z" fill="#FFC83E"></path><path d="M46.3696 47.4003C38.6038 47.4003 32.2852 41.0889 32.2852 33.3321C32.2852 25.5753 38.6038 19.2639 46.3696 19.2639C54.1354 19.2639 60.454 25.5753 60.454 33.3321C60.454 41.0889 54.1354 47.4003 46.3696 47.4003ZM46.3696 19.9561C38.991 19.9561 32.9985 25.9417 32.9985 33.3117C32.9985 40.6818 38.991 46.6673 46.3696 46.6673C53.7481 46.6673 59.7406 40.6818 59.7406 33.3117C59.761 25.9621 53.7481 19.9561 46.3696 19.9561Z" fill="#E2951A"></path><path d="M48.6972 37.9287L44.6873 33.7126L46.8759 37.9287L45.3619 37.9287L43.1284 33.6305L44.0577 37.9287L43.1209 37.9287L42.1915 33.6237L42.1915 37.9287L41.8242 37.9287L41.8242 28.6274L42.1915 28.6274L42.1915 33.2678L43.1359 28.6274L44.0653 28.6274L43.1209 33.2883L45.3994 28.6274L46.8984 28.6274L44.6274 33.2678L48.7497 28.6274L51.1031 28.6274L46.8384 33.432L51.1256 37.9287L48.6972 37.9287Z" fill="#E2951A"></path><path d="M81.3009 79.7583C89.7212 79.7583 96.5472 72.9402 96.5472 64.5297C96.5472 56.1191 89.7212 49.301 81.3009 49.301C72.8807 49.301 66.0547 56.1191 66.0547 64.5297C66.0547 72.9402 72.8807 79.7583 81.3009 79.7583Z" fill="#FFC83E"></path><path d="M81.2993 78.6168C73.5335 78.6168 67.2148 72.3055 67.2148 64.5486C67.2148 56.7918 73.5335 50.4805 81.2993 50.4805C89.065 50.4805 95.3837 56.7918 95.3837 64.5486C95.3837 72.3055 89.065 78.6168 81.2993 78.6168ZM81.2993 51.1727C73.9207 51.1727 67.9282 57.1583 67.9282 64.5283C67.9282 71.8983 73.9207 77.8839 81.2993 77.8839C88.6778 77.8839 94.6703 71.8983 94.6703 64.5283C94.6907 57.1786 88.6778 51.1727 81.2993 51.1727Z" fill="#E2951A"></path><path d="M83.6269 69.1487L79.617 64.9326L81.8056 69.1487L80.2916 69.1487L78.0581 64.8505L78.9874 69.1487L78.0506 69.1487L77.1212 64.8436L77.1212 69.1487L76.7539 69.1487L76.7539 59.8473L77.1212 59.8473L77.1212 64.4877L78.0655 59.8473L78.9949 59.8473L78.0506 64.5083L80.3291 59.8473L81.8281 59.8473L79.5571 64.4877L83.6793 59.8473L86.0328 59.8473L81.7681 64.652L86.0553 69.1487L83.6269 69.1487Z" fill="#E2951A"></path><path d="M119.754 30.4573C128.174 30.4573 135 23.6392 135 15.2287C135 6.81811 128.174 6.8245e-09 119.754 4.39642e-09C111.334 1.96835e-09 104.508 6.81811 104.508 15.2287C104.508 23.6392 111.334 30.4573 119.754 30.4573Z" fill="#FFC83E"></path><path d="M119.752 29.3182C111.987 29.3182 105.668 23.0069 105.668 15.2501C105.668 7.49322 111.987 1.18188 119.752 1.18188C127.518 1.18188 133.837 7.49322 133.837 15.2501C133.837 23.0069 127.518 29.3182 119.752 29.3182ZM119.752 1.8741C112.374 1.8741 106.381 7.85969 106.381 15.2297C106.381 22.5997 112.374 28.5853 119.752 28.5853C127.131 28.5853 133.123 22.5997 133.123 15.2297C133.144 7.88005 127.131 1.8741 119.752 1.8741Z" fill="#E2951A"></path><path d="M122.08 19.8423L118.07 15.6262L120.259 19.8423L118.745 19.8423L116.511 15.5441L117.441 19.8423L116.504 19.8423L115.574 15.5372L115.574 19.8423L115.207 19.8423L115.207 10.5409L115.574 10.5409L115.574 15.1813L116.519 10.5409L117.448 10.5409L116.504 15.2019L118.782 10.5409L120.281 10.5409L118.01 15.1813L122.132 10.5409L124.486 10.5409L120.221 15.3456L124.508 19.8423L122.08 19.8423Z" fill="#E2951A"></path></svg>