<svg xmlns="http://www.w3.org/2000/svg" viewBox="0 0 37 38" fill="none"><circle cx="18.5" cy="18.7012" r="18.5" fill="#DFE3FF"></circle><path d="M11 14.2549C11 12.4573 12.4573 11 14.2549 11H22.7451C24.5427 11 26 12.4573 26 14.2549V22.7451C26 24.5427 24.5427 26 22.7451 26H14.2549C12.4573 26 11 24.5427 11 22.7451V14.2549Z" fill="#40196D"></path><path d="M19.2959 14.5449H21.072L17.9526 18.4823L21.1426 22.4196H19.2783L15.9823 18.6411L19.2959 14.5449Z" fill="white"></path><path d="M16.7147 14.5449H17.9558L16.0631 18.6411L17.8676 22.4196H16.5205L14.9102 18.6058L16.7147 14.5449Z" fill="white"></path><path d="M14.9718 14.5449H15.678L14.9204 18.6058L15.678 22.4196H14.9718L14.2318 18.6058L14.9718 14.5449Z" fill="white"></path><path d="M13.959 14.5449H14.3549V22.4196H13.959V14.5449Z" fill="white"></path><circle cx="22.1756" cy="21.5723" r="0.882613" fill="white"></circle></svg>


