<svg xmlns="http://www.w3.org/2000/svg" viewBox="0 0 38 38" fill="none"><circle cx="19.4609" cy="18.7012" r="18.5" fill="#DFE3FF"></circle><path d="M19.498 26.6997C23.8745 26.6997 27.498 23.0762 27.498 18.6997C27.498 14.3311 23.8667 10.6997 19.4902 10.6997C15.1216 10.6997 11.498 14.3311 11.498 18.6997C11.498 23.0762 15.1294 26.6997 19.498 26.6997ZM16.0628 18.8252C16.0628 18.5899 16.2353 18.4174 16.4628 18.4174H16.9098V15.5232C16.9098 15.1389 17.1686 14.8644 17.5765 14.8644C17.9137 14.8644 18.1333 15.0526 18.2824 15.3507L19.8353 18.4174H20.9961V15.4134C20.9961 15.084 21.2157 14.8723 21.5216 14.8723C21.8275 14.8723 22.0471 15.084 22.0471 15.4134V18.4174H22.5098C22.7294 18.4174 22.9098 18.5899 22.9098 18.8252C22.9098 19.0526 22.7294 19.233 22.5098 19.233H22.0471V22.1036C22.0471 22.4879 21.7882 22.7625 21.3804 22.7625C21.0431 22.7625 20.8157 22.5742 20.6745 22.2762L19.1294 19.2252H17.9529V22.2134C17.9529 22.5428 17.7412 22.7546 17.4353 22.7546C17.1294 22.7546 16.9098 22.5428 16.9098 22.2134V19.2252H16.4628C16.2275 19.2252 16.0628 19.0448 16.0628 18.8252ZM17.9529 18.4174H18.7294L17.9529 16.7625V18.4174ZM20.2275 19.233L20.9961 20.8801V19.233H20.2275Z" fill="#40196D"></path></svg>