<svg xmlns="http://www.w3.org/2000/svg" viewBox="0 0 37 38" fill="none"><circle cx="18.5" cy="18.7012" r="18.5" fill="#DFE3FF"></circle><path d="M14.6899 26.6155H22.5122C24.1309 26.6155 24.9951 25.7439 24.9951 24.1179V17.6433H19.3555C18.4546 17.6433 18.0151 17.2039 18.0151 16.3103V10.6194H14.6899C13.0713 10.6194 12.207 11.4983 12.207 13.1243V24.1179C12.207 25.7512 13.0713 26.6155 14.6899 26.6155ZM19.5898 16.5154H24.9219C24.8853 16.1638 24.6143 15.8196 24.2114 15.4094L20.2417 11.3884C19.8535 11.0002 19.502 10.7292 19.1504 10.6926V16.0759C19.1504 16.3689 19.2969 16.5154 19.5898 16.5154ZM15.7812 20.7927C15.4443 20.7927 15.1953 20.551 15.1953 20.2288C15.1953 19.9065 15.4443 19.6575 15.7812 19.6575H21.4282C21.7578 19.6575 22.0142 19.9065 22.0142 20.2288C22.0142 20.5437 21.7578 20.7927 21.4282 20.7927H15.7812ZM15.7812 23.6199C15.4443 23.6199 15.1953 23.3782 15.1953 23.0559C15.1953 22.7336 15.4443 22.4919 15.7812 22.4919H21.4282C21.7578 22.4919 22.0142 22.741 22.0142 23.0559C22.0142 23.3782 21.7578 23.6199 21.4282 23.6199H15.7812Z" fill="#40196D"></path></svg>