<svg viewBox="0 0 10 12" fill="currentColor" xmlns="http://www.w3.org/2000/svg"><path d="M8.41892 0.000824883H0.797582C0.694555 -0.00397234 0.591626 0.012192 0.495029 0.0483391C0.398432 0.0844862 0.310176 0.139864 0.235608 0.211118C0.161039 0.282372 0.101709 0.368021 0.0612111 0.462876C0.0207129 0.557731 -0.000111179 0.65982 4.46397e-07 0.762958V11.7519L1.02799 10.7948C1.11171 10.7224 1.21866 10.6826 1.3293 10.6826C1.43995 10.6826 1.5469 10.7224 1.63061 10.7948L2.97764 12L4.30694 10.7948C4.39217 10.7257 4.49855 10.688 4.60825 10.688C4.71796 10.688 4.82433 10.7257 4.90956 10.7948L6.23886 12L7.58589 10.7948C7.66961 10.7224 7.77656 10.6826 7.8872 10.6826C7.99784 10.6826 8.10479 10.7224 8.18851 10.7948L9.2165 11.7519V0.762958C9.21661 0.65982 9.19579 0.557731 9.15529 0.462876C9.11479 0.368021 9.05546 0.282372 8.9809 0.211118C8.90633 0.139864 8.81807 0.0844862 8.72147 0.0483391C8.62488 0.012192 8.52195 -0.00397234 8.41892 0.000824883V0.000824883ZM2.41047 2.65943H4.67915C4.74966 2.65943 4.81728 2.68744 4.86714 2.7373C4.917 2.78716 4.94501 2.85478 4.94501 2.92529C4.94501 2.9958 4.917 3.06342 4.86714 3.11328C4.81728 3.16314 4.74966 3.19115 4.67915 3.19115H2.41047C2.33996 3.19115 2.27234 3.16314 2.22248 3.11328C2.17262 3.06342 2.14461 2.9958 2.14461 2.92529C2.14461 2.85478 2.17262 2.78716 2.22248 2.7373C2.27234 2.68744 2.33996 2.65943 2.41047 2.65943V2.65943ZM6.80603 7.7994H2.41047C2.33996 7.7994 2.27234 7.77139 2.22248 7.72153C2.17262 7.67168 2.14461 7.60405 2.14461 7.53354C2.14461 7.46303 2.17262 7.39541 2.22248 7.34555C2.27234 7.29569 2.33996 7.26768 2.41047 7.26768H6.80603C6.87654 7.26768 6.94417 7.29569 6.99402 7.34555C7.04388 7.39541 7.07189 7.46303 7.07189 7.53354C7.07189 7.60405 7.04388 7.67168 6.99402 7.72153C6.94417 7.77139 6.87654 7.7994 6.80603 7.7994V7.7994ZM6.80603 5.49528H2.41047C2.33996 5.49528 2.27234 5.46727 2.22248 5.41741C2.17262 5.36755 2.14461 5.29993 2.14461 5.22942C2.14461 5.15891 2.17262 5.09128 2.22248 5.04142C2.27234 4.99157 2.33996 4.96356 2.41047 4.96356H6.80603C6.87654 4.96356 6.94417 4.99157 6.99402 5.04142C7.04388 5.09128 7.07189 5.15891 7.07189 5.22942C7.07189 5.29993 7.04388 5.36755 6.99402 5.41741C6.94417 5.46727 6.87654 5.49528 6.80603 5.49528V5.49528Z" fill="currentColor"></path></svg>