<svg viewBox="0 0 217 71" fill="none" xmlns="http://www.w3.org/2000/svg"><path d="M34.9632 68.8591C53.4436 68.8591 68.4265 53.887 68.4265 35.416C68.4265 16.945 53.4436 1.9729 34.9632 1.9729C16.4829 1.9729 1.5 16.945 1.5 35.416C1.5 53.887 16.4829 68.8591 34.9632 68.8591Z" fill="#F4E6FF" stroke="white" stroke-width="3"></path><mask id="mask0_38244_9819" maskUnits="userSpaceOnUse" x="14" y="15" width="42" height="42" style="mask-type: alpha;"><circle cx="34.9639" cy="35.9639" r="20.4893" fill="#D42E12"></circle></mask><g mask="url(#mask0_38244_9819)"><path d="M41.4454 37.8677C42.8451 37.8677 43.9798 39.105 43.9798 40.6311V41.7597C43.9798 42.4643 43.7778 43.1512 43.4021 43.7244C41.66 46.3826 38.8153 47.6995 34.9608 47.6995C31.1055 47.6995 28.2623 46.3821 26.5244 43.7225C26.1503 43.15 25.9492 42.4646 25.9492 41.7616V40.6311C25.9492 39.105 27.0839 37.8677 28.4836 37.8677H41.4454ZM34.9608 23.1279C38.0728 23.1279 40.5955 25.8787 40.5955 29.2719C40.5955 32.6652 38.0728 35.4159 34.9608 35.4159C31.8488 35.4159 29.3261 32.6652 29.3261 29.2719C29.3261 25.8787 31.8488 23.1279 34.9608 23.1279Z" fill="#40196D"></path></g><path d="M83.6693 68.8589C102.15 68.8589 117.133 53.8868 117.133 35.4158C117.133 16.9448 102.15 1.97266 83.6693 1.97266C65.189 1.97266 50.2061 16.9448 50.2061 35.4158C50.2061 53.8868 65.189 68.8589 83.6693 68.8589Z" fill="#F4E6FF" stroke="white" stroke-width="3"></path><mask id="mask1_38244_9819" maskUnits="userSpaceOnUse" x="63" y="15" width="42" height="42" style="mask-type: alpha;"><circle cx="83.6133" cy="35.9641" r="20.4893" fill="#D42E12"></circle></mask><g mask="url(#mask1_38244_9819)"><path d="M90.0948 37.8677C91.4945 37.8677 92.6292 39.105 92.6292 40.6311V41.7597C92.6292 42.4643 92.4272 43.1512 92.0515 43.7244C90.3094 46.3826 87.4646 47.6995 83.6102 47.6995C79.7549 47.6995 76.9117 46.3821 75.1738 43.7225C74.7997 43.15 74.5986 42.4646 74.5986 41.7616V40.6311C74.5986 39.105 75.7333 37.8677 77.133 37.8677H90.0948ZM83.6102 23.1279C86.7221 23.1279 89.2449 25.8787 89.2449 29.2719C89.2449 32.6652 86.7221 35.4159 83.6102 35.4159C80.4982 35.4159 77.9755 32.6652 77.9755 29.2719C77.9755 25.8787 80.4982 23.1279 83.6102 23.1279Z" fill="#40196D"></path></g><path d="M132.375 68.8589C150.856 68.8589 165.839 53.8868 165.839 35.4158C165.839 16.9448 150.856 1.97266 132.375 1.97266C113.895 1.97266 98.9121 16.9448 98.9121 35.4158C98.9121 53.8868 113.895 68.8589 132.375 68.8589Z" fill="#F4E6FF" stroke="white" stroke-width="3"></path><mask id="mask2_38244_9819" maskUnits="userSpaceOnUse" x="111" y="15" width="42" height="42" style="mask-type: alpha;"><circle cx="132.32" cy="35.9641" r="20.4893" fill="#D42E12"></circle></mask><g mask="url(#mask2_38244_9819)"><path d="M138.803 37.8677C140.202 37.8677 141.337 39.105 141.337 40.6311V41.7597C141.337 42.4643 141.135 43.1512 140.76 43.7244C139.017 46.3826 136.173 47.6995 132.318 47.6995C128.463 47.6995 125.62 46.3821 123.882 43.7225C123.508 43.15 123.307 42.4646 123.307 41.7616V40.6311C123.307 39.105 124.441 37.8677 125.841 37.8677H138.803ZM132.318 23.1279C135.43 23.1279 137.953 25.8787 137.953 29.2719C137.953 32.6652 135.43 35.4159 132.318 35.4159C129.206 35.4159 126.683 32.6652 126.683 29.2719C126.683 25.8787 129.206 23.1279 132.318 23.1279Z" fill="#40196D"></path></g><path d="M181.08 68.8589C199.561 68.8589 214.544 53.8868 214.544 35.4158C214.544 16.9448 199.561 1.97266 181.08 1.97266C162.6 1.97266 147.617 16.9448 147.617 35.4158C147.617 53.8868 162.6 68.8589 181.08 68.8589Z" fill="#F4E6FF" stroke="white" stroke-width="3"></path><mask id="mask3_38244_9819" maskUnits="userSpaceOnUse" x="160" y="15" width="42" height="42" style="mask-type: alpha;"><circle cx="181.081" cy="35.9636" r="20.4893" fill="#D42E12"></circle></mask><g mask="url(#mask3_38244_9819)"><path d="M187.563 37.8676C188.962 37.8676 190.097 39.1048 190.097 40.631V41.7596C190.097 42.4641 189.895 43.1511 189.519 43.7243C187.777 46.3825 184.932 47.6994 181.078 47.6994C177.223 47.6994 174.379 46.3819 172.642 43.7224C172.267 43.1499 172.066 42.4644 172.066 41.7615V40.631C172.066 39.1048 173.201 37.8676 174.601 37.8676H187.563ZM181.078 23.1277C184.19 23.1277 186.713 25.8785 186.713 29.2717C186.713 32.665 184.19 35.4157 181.078 35.4157C177.966 35.4157 175.443 32.665 175.443 29.2717C175.443 25.8785 177.966 23.1277 181.078 23.1277Z" fill="#40196D"></path></g></svg>