<svg viewBox="0 0 146 116" fill="none" xmlns="http://www.w3.org/2000/svg"><g opacity="0.5"><path opacity="0.5" d="M86.3189 53.6411C84.991 52.2798 83.0543 51.7386 80.8654 52.1157C78.8182 52.4694 76.769 53.607 75.0971 55.3114C74.6128 55.8092 74.2057 56.3796 73.8901 57.003C73.5827 56.3586 73.179 55.7671 72.6934 55.2497C71.0507 53.5133 69.0202 52.3437 66.971 51.9602C64.7904 51.5341 62.8454 52.0518 61.4924 53.3897C60.1395 54.7277 59.585 56.6984 59.9227 58.9397C60.2396 61.0361 61.3194 63.1474 62.9642 64.8795C66.4206 68.5247 73.3188 67.1016 73.6107 67.0377L73.6962 67.0185L73.9609 67.0803C74.2528 67.1484 81.126 68.693 84.6428 65.1096C86.3106 63.4052 87.4301 61.3152 87.7845 59.223C88.1701 56.9839 87.6469 55.0047 86.3189 53.6411ZM72.4516 64.9327C70.7839 65.1628 66.6291 65.4739 64.5674 63.2986C63.2415 61.8989 62.3743 60.2286 62.1262 58.5903C61.9011 57.0989 62.2263 55.8206 63.0476 55.0153C63.3682 54.7009 63.7515 54.4611 64.1713 54.3122C64.9472 54.0559 65.7756 54.0133 66.5728 54.1887C68.1655 54.4933 69.7749 55.4307 71.1007 56.8305C73.1625 58.9908 72.7289 63.2347 72.4516 64.9306V64.9327ZM85.608 58.8374C85.3329 60.4694 84.4385 62.1269 83.0877 63.501C80.9884 65.6315 76.8336 65.2544 75.1763 64.9924C74.9282 63.288 74.5655 59.0504 76.6648 56.9114C78.0156 55.5373 79.6396 54.6276 81.2365 54.3549C82.0367 54.1936 82.8643 54.2509 83.6359 54.521C84.0538 54.6775 84.4336 54.9246 84.7492 55.2454C85.5538 56.0699 85.8582 57.3439 85.608 58.8353V58.8374Z" fill="url(#paint0_linear_40436_4411)"></path></g><path d="M74.2838 66.5772L73.6272 66.7178C73.3478 66.7775 66.7477 68.1389 63.4393 64.6512C61.8675 62.9937 60.8335 60.974 60.5208 58.9671C60.1956 56.8217 60.7292 54.9362 62.0218 53.6558C63.3143 52.3754 65.1759 51.8896 67.2626 52.288C69.216 52.6609 71.1589 53.7794 72.7308 55.439C76.0371 58.9266 74.4986 65.627 74.4318 65.9104L74.2838 66.5772ZM64.5838 54.5421C64.1819 54.6845 63.8149 54.9142 63.5081 55.2153C62.7243 55.9929 62.4116 57.2073 62.6263 58.6369C62.864 60.2028 63.6937 61.8028 64.9632 63.1429C66.9374 65.2243 70.9129 64.9261 72.5077 64.7066C72.7724 63.0853 73.1894 59.0331 71.2152 56.9517C69.9456 55.6137 68.4071 54.7146 66.8811 54.4249C66.1186 54.2569 65.3262 54.2973 64.5838 54.5421Z" fill="#FFC83E"></path><path d="M73.3113 66.606L73.1654 65.937C73.1028 65.6516 71.6769 58.9256 75.0416 55.4977C76.6426 53.8678 78.6022 52.7834 80.5618 52.4447C82.6465 52.0825 84.5081 52.6002 85.7735 53.9041C87.0389 55.2079 87.5455 57.0998 87.1849 59.2303C86.8471 61.2308 85.7798 63.2313 84.1788 64.8611C80.8141 68.2891 74.2369 66.8105 73.9638 66.7466L73.3113 66.606ZM83.2135 54.7328C82.4762 54.4746 81.6852 54.4195 80.9204 54.573C79.3902 54.8372 77.8372 55.7086 76.5426 57.0231C74.5329 59.0705 74.8748 63.1269 75.1187 64.7546C76.7094 65.0018 80.6807 65.3703 82.6882 63.3251C83.9807 62.0084 84.8354 60.4233 85.1002 58.851C85.3399 57.4258 85.0481 56.205 84.2767 55.4146C83.9743 55.112 83.6117 54.8794 83.2135 54.7328Z" fill="#FFC83E"></path><g opacity="0.5"><path opacity="0.5" d="M105.502 64.8066H41.5V77.8942H44.8251V115.772H102.177V77.8942H105.502V64.8066Z" fill="url(#paint1_linear_40436_4411)"></path></g><path d="M101.455 68.7695H45.5547V115.135H101.455V68.7695Z" fill="#40196D"></path><path d="M78.7661 77.0488H68.2344V115.133H78.7661V77.0488Z" fill="#FFC83E"></path><path opacity="0.1" d="M101.455 66.291H45.5547V77.883H101.455V66.291Z" fill="black"></path><path d="M104.689 65.4531H42.3066V77.0451H104.689V65.4531Z" fill="#40196D"></path><path d="M78.7661 65.4531H68.2344V77.0451H78.7661V65.4531Z" fill="#FFC83E"></path><path d="M26.776 29.1611C34.0324 32.3979 37.593 40.4739 35.3218 47.8246L38.1406 51.1338L33.7967 51.2383C29.8328 57.8438 21.434 60.5756 14.1857 57.3425C6.35528 53.8497 2.81797 44.7093 6.29767 36.9205C9.78191 29.1435 18.9455 25.6683 26.776 29.1611Z" fill="#48D38A"></path><mask id="mask0_40436_4411" maskUnits="userSpaceOnUse" x="4" y="27" width="35" height="32" style="mask-type: alpha;"><path d="M26.7738 29.1628C34.0312 32.4005 37.5932 40.4765 35.323 47.8263L38.1425 51.1357L33.7984 51.2396C29.8353 57.844 21.4366 60.5742 14.1874 57.3402C6.35604 53.8465 2.81712 44.7061 6.29577 36.9184C9.77897 29.1426 18.9425 25.6691 26.7738 29.1628Z" fill="#48D38A"></path></mask><g mask="url(#mask0_40436_4411)"><path d="M29.8184 56.2375C27.1967 58.2542 23.9017 59.4588 20.3284 59.4588C16.5935 59.4588 13.1638 58.1471 10.4883 55.9609C13.3793 54.8634 16.7102 54.0157 19.7987 53.6855C23.1476 54.0514 26.7747 55.0062 29.8184 56.2375Z" fill="#FFF5DB"></path><path d="M16.5074 39.3705C17.3064 37.4164 18.6262 35.6139 20.5386 34.6234C20.9426 34.4182 21.4544 34.2487 21.8135 34.5342C22.1188 34.7751 22.1277 35.257 21.9392 35.605C21.7507 35.953 21.4185 36.176 21.0953 36.3991C22.2085 35.8816 23.5194 35.8013 24.6865 36.176C24.9738 36.2653 25.2971 36.4527 25.2971 36.7471C25.2971 36.988 25.0906 37.1665 24.8841 37.3004C24.4351 37.5948 23.9324 37.8179 23.4116 37.9517C24.4082 38.0856 25.3779 38.4336 26.2308 38.96C26.572 39.1742 26.9042 39.424 27.0927 39.772C27.2812 40.12 27.2992 40.584 27.0388 40.8874C26.7246 41.2533 26.159 41.2443 25.6741 41.1908C23.7169 40.9856 22.6844 40.2093 20.6643 38.5942C20.1974 38.2194 18.7609 39.6293 18.1594 39.5311C17.8362 39.4776 16.8306 39.3437 16.5074 39.3705Z" fill="#5F36A8"></path><path d="M18.5122 49.8611H21.3583C22.6871 49.8611 23.7734 48.7903 23.7734 47.4608V39.662C23.7734 38.3414 22.696 37.2617 21.3583 37.2617H18.5122C17.1834 37.2617 16.097 38.3325 16.097 39.662V47.4608C16.097 48.7814 17.1834 49.8611 18.5122 49.8611Z" fill="#9C7ACD"></path><path d="M22.0018 48.3457L22.8457 54.0565C22.8457 55.6537 21.5439 56.9476 19.9368 56.9476C18.3297 56.9476 17.0278 55.6537 17.0278 54.0565L17.8718 48.3457H22.0018Z" fill="#9C7ACD"></path><path d="M23.9542 45.2697H24.8071C25.2022 45.2697 25.5254 44.9484 25.5254 44.5558V42.5927C25.5254 42.2001 25.2022 41.8789 24.8071 41.8789H23.9542C23.5591 41.8789 23.2359 42.2001 23.2359 42.5927V44.5558C23.2269 44.9484 23.5501 45.2697 23.9542 45.2697Z" fill="#9C7ACD"></path><path d="M21.5879 44.8711C21.5879 45.7723 20.8517 46.504 19.9449 46.504C19.0381 46.504 18.3019 45.7723 18.3019 44.8711H21.5879Z" fill="white"></path><path d="M19.9574 43.7645C19.9933 43.7645 20.0293 43.7288 20.0293 43.6931V40.6593C20.0293 40.6236 19.9933 40.5879 19.9574 40.5879C19.9214 40.5879 19.8854 40.6236 19.8854 40.6593V43.6931C19.8854 43.7377 19.9124 43.7645 19.9574 43.7645Z" fill="#40196D"></path><path d="M21.6507 42.0943C21.6867 42.0943 21.7227 42.0586 21.7227 42.0229V41.5675C21.7227 41.5318 21.6867 41.4961 21.6507 41.4961C21.6148 41.4961 21.5788 41.5318 21.5788 41.5675V42.0229C21.5788 42.0675 21.6148 42.0943 21.6507 42.0943Z" fill="#40196D"></path><path d="M18.2328 42.0943C18.2687 42.0943 18.3047 42.0586 18.3047 42.0229V41.5675C18.3047 41.5318 18.2687 41.4961 18.2328 41.4961C18.1968 41.4961 18.1608 41.5318 18.1608 41.5675V42.0229C18.1608 42.0675 18.1968 42.0943 18.2328 42.0943Z" fill="#40196D"></path><mask id="mask1_40436_4411" maskUnits="userSpaceOnUse" x="16" y="37" width="8" height="13" style="mask-type: alpha;"><path d="M18.5122 49.8611H21.3583C22.6871 49.8611 23.7734 48.7903 23.7734 47.4608V39.662C23.7734 38.3414 22.696 37.2617 21.3583 37.2617H18.5122C17.1834 37.2617 16.097 38.3325 16.097 39.662V47.4608C16.097 48.7814 17.1834 49.8611 18.5122 49.8611Z" fill="#9C7ACD"></path></mask><g mask="url(#mask1_40436_4411)"><path d="M16.0985 38.5159H18.9985C19.0344 38.5159 19.0703 38.4802 19.0703 38.4445C19.0703 38.4088 19.0344 38.373 18.9985 38.373H16.0985C16.0626 38.373 16.0267 38.4088 16.0267 38.4445C16.0267 38.4802 16.0626 38.5159 16.0985 38.5159Z" fill="#5F36A8"></path><path d="M16.0935 39.2698H18.4907C18.5266 39.2698 18.5625 39.2341 18.5625 39.1984C18.5625 39.1627 18.5266 39.127 18.4907 39.127H16.0935C16.0576 39.127 16.0217 39.1627 16.0217 39.1984C16.0217 39.2341 16.0576 39.2698 16.0935 39.2698Z" fill="#5F36A8"></path><path d="M16.095 40.0335H17.3071C17.343 40.0335 17.3789 39.9978 17.3789 39.9621C17.3789 39.9263 17.343 39.8906 17.3071 39.8906H16.095C16.0591 39.8906 16.0232 39.9263 16.0232 39.9621C16.0232 40.0067 16.0591 40.0335 16.095 40.0335Z" fill="#5F36A8"></path><path d="M16.095 40.7893H17.3071C17.343 40.7893 17.3789 40.7536 17.3789 40.7179C17.3789 40.6822 17.343 40.6465 17.3071 40.6465H16.095C16.0591 40.6465 16.0232 40.6822 16.0232 40.7179C16.0232 40.7536 16.0591 40.7893 16.095 40.7893Z" fill="#5F36A8"></path><path d="M16.1004 41.5589H16.6391C16.675 41.5589 16.7109 41.5232 16.7109 41.4874C16.7109 41.4517 16.675 41.416 16.6391 41.416H16.1004C16.0645 41.416 16.0286 41.4517 16.0286 41.4874C16.0286 41.5232 16.0645 41.5589 16.1004 41.5589Z" fill="#5F36A8"></path></g><path d="M19.9573 49.8611C20.7384 49.8611 21.4657 49.6289 22.0762 49.2271C21.3759 50.0396 20.3344 50.5486 19.1672 50.5486C18.6106 50.5486 18.0898 50.4325 17.614 50.2271L17.7666 49.1914C18.3951 49.6021 19.1403 49.8611 19.9573 49.8611Z" fill="#40196D"></path><path d="M25.6738 41.197C23.7166 40.9918 22.6841 40.2155 20.664 38.6004C20.7986 38.7253 20.9692 38.9038 21.059 39.0644C21.1488 39.225 21.1757 39.4302 21.0859 39.5908C20.9872 39.7604 20.7897 39.8407 20.5921 39.8407C20.3946 39.8407 20.2151 39.7693 20.0355 39.689C19.0479 39.2428 18.186 38.5379 17.5665 37.6634L19.6135 36.6641L22.4955 37.1905L24.1296 39.6533L25.6738 41.197Z" fill="#5F36A8"></path><path d="M15.3468 45.1876H16.1997C16.5948 45.1876 16.918 44.8664 16.918 44.4738V42.5107C16.918 42.1181 16.5948 41.7969 16.1997 41.7969H15.3468C14.9518 41.7969 14.6285 42.1181 14.6285 42.5107V44.4738C14.6285 44.8664 14.9518 45.1876 15.3468 45.1876Z" fill="#9C7ACD"></path></g><path d="M117.892 58.279C111.193 54.4088 108.558 46.2248 111.494 39.3338L109.098 35.8427L113.313 36.1812C117.813 30.1834 126.216 28.3873 132.907 32.2531C140.135 36.4294 142.641 45.6422 138.491 52.8352C134.338 60.0164 125.12 62.4553 117.892 58.279Z" fill="#00CBFF"></path><mask id="mask2_40436_4411" maskUnits="userSpaceOnUse" x="109" y="30" width="32" height="31" style="mask-type: alpha;"><path d="M117.891 58.2769C111.192 54.406 108.556 46.222 111.491 39.3316L109.095 35.8404L113.31 36.1794C117.809 30.1826 126.212 28.3877 132.903 32.2542C140.133 36.4313 142.64 45.644 138.491 52.8361C134.339 60.0164 125.121 62.4539 117.891 58.2769Z" fill="#00CBFF"></path></mask><g mask="url(#mask2_40436_4411)"><path d="M125.595 52.1699C119.263 52.1699 113.818 56.0267 111.397 61.6484H139.789C137.372 56.0267 131.926 52.1699 125.595 52.1699Z" fill="#3D0077"></path><path d="M122.834 49.6051L122.135 52.5161C122.135 52.5161 124.819 59.182 128.531 52.6146L127.655 49.6016H122.834V49.6051Z" fill="#A476D4"></path><path d="M127.455 48.929C127.689 49.4599 127.998 50.5111 128.083 51.0138C128.083 51.0138 125.204 51.2142 124.619 50.4056C124.385 50.0716 124.328 49.597 124.502 49.2067C125.002 48.3419 127.047 48.0079 127.455 48.929Z" fill="#511B7C"></path><path d="M129.581 39.9982C129.365 38.1418 127.567 36.6582 125.334 36.6582C123.101 36.6582 121.271 38.1172 121.087 39.9982H121.055V46.4636H121.087C121.087 46.5445 121.055 46.65 121.055 46.7273C121.055 48.7664 122.977 50.4118 125.366 50.4118C127.752 50.4118 129.677 48.77 129.677 46.7273C129.677 46.6218 129.645 46.541 129.645 46.4636H129.677L129.581 39.9982Z" fill="#A476D4"></path><path d="M121.74 43.0407C121.712 42.5766 121.332 42.2285 120.864 42.2285C120.396 42.2285 120.017 42.5766 119.989 43.0407V44.6087C119.989 44.6368 119.989 44.6368 119.989 44.6684C119.989 45.1642 120.396 45.5685 120.893 45.5685C121.389 45.5685 121.797 45.1607 121.797 44.6684C121.797 44.6403 121.797 44.6087 121.797 44.6087L121.74 43.0407Z" fill="#A476D4"></path><path d="M130.515 43.0407C130.487 42.5766 130.108 42.2285 129.64 42.2285C129.172 42.2285 128.793 42.5766 128.764 43.0407V44.6087C128.764 44.6368 128.764 44.6368 128.764 44.6684C128.764 45.1642 129.172 45.5685 129.668 45.5685C130.164 45.5685 130.572 45.1607 130.572 44.6684C130.572 44.6403 130.572 44.6087 130.572 44.6087L130.515 43.0407Z" fill="#A476D4"></path><path d="M125.318 46.0396C125.3 46.0571 125.272 46.0431 125.272 46.0185V43.1813C125.272 43.1707 125.276 43.1602 125.283 43.1567C125.357 43.0828 125.45 43.1356 125.45 43.2094V46.036C125.45 46.1028 125.382 45.9692 125.318 46.0396Z" fill="#3D0077"></path><path d="M126.854 43.9914C126.754 43.9914 126.676 43.914 126.676 43.8155V43.6114C126.676 43.5165 126.754 43.4355 126.854 43.4355C126.953 43.4355 127.031 43.6185 127.031 43.717V43.8155C127.031 43.914 126.953 43.9914 126.854 43.9914Z" fill="#3D0077"></path><path d="M123.854 44.0969C123.754 44.0969 123.676 43.914 123.676 43.8155V43.6114C123.676 43.5165 123.754 43.4355 123.854 43.4355C123.953 43.4355 124.031 43.5129 124.031 43.6114V43.8155C124.031 43.914 123.953 44.0969 123.854 44.0969Z" fill="#3D0077"></path><path d="M129.628 40.9154C129.667 38.8797 128.855 37.818 127.405 37.1289C127.632 38.7215 128.39 41.0103 129.631 42.2303L129.628 40.9154Z" fill="#40196D"></path><path d="M129.023 36.7608C128.417 38.4765 126.538 39.373 124.823 38.7683C123.107 38.1636 122.206 36.2827 122.813 34.5705C123.419 32.8548 125.298 31.8212 127.013 32.4259C128.474 32.9392 129.64 35.017 129.023 36.7608Z" fill="#40196D"></path><path d="M125.763 38.8787C126.689 38.8787 127.44 38.1341 127.44 37.2157C127.44 36.2973 126.689 35.5527 125.763 35.5527C124.837 35.5527 124.086 36.2973 124.086 37.2157C124.086 38.1341 124.837 38.8787 125.763 38.8787Z" fill="#FEC83E"></path><path d="M128.742 38.2683C127.948 37.1468 126.651 36.4928 125.236 36.5526C122.758 36.6581 120.822 37.8534 121.032 41.2426L121.046 42.3466C123.137 42.0758 126.906 41.2567 128.742 38.2683Z" fill="#40196D"></path><path d="M123.796 47.0449H126.72C126.72 47.0449 126.873 48.3571 125.256 48.3149C123.64 48.2903 123.796 47.0449 123.796 47.0449Z" fill="white"></path><path d="M123.628 42.4995C122.788 42.3764 121.572 42.5171 121.427 42.5241C121.282 42.5276 121.296 42.605 121.296 42.605L121.31 43.069C121.31 43.069 121.296 43.1745 121.381 43.1851C121.48 43.1991 121.551 43.3995 121.597 43.5718C121.643 43.7441 121.654 44.3066 122.122 44.8058C122.576 45.2875 123.635 45.1926 124.061 45.0379C124.621 44.8304 124.922 44.0394 125.014 43.737C125.11 43.4347 125.348 43.4347 125.348 43.4347V42.8265C124.915 42.8019 124.469 42.6225 123.628 42.4995ZM124.376 44.6898C124.093 45.0203 123.575 45.1152 123.132 45.0625C122.689 45.0133 122.147 44.9254 121.976 44.3417C121.82 43.8038 121.856 43.3995 121.856 43.3995C121.856 43.3995 121.799 42.8089 122.668 42.7069C123.589 42.5944 124.688 42.8792 124.823 43.2413C124.954 43.6034 124.66 44.3593 124.376 44.6898Z" fill="#0E0E0E"></path><path opacity="0.3" d="M121.852 43.3847C121.852 43.3847 121.795 42.7905 122.671 42.685C123.599 42.5725 124.712 42.8573 124.847 43.2265C124.982 43.5921 124.684 44.355 124.397 44.689C124.11 45.023 123.589 45.118 123.138 45.0687C122.688 45.0195 122.142 44.9281 121.972 44.341C121.816 43.789 121.852 43.3847 121.852 43.3847Z" fill="#F3CED5"></path><path opacity="0.61" d="M122.055 44.5423C122.172 44.7497 122.349 44.8727 122.548 44.9466L124.076 42.7809C123.877 42.7281 123.654 42.693 123.424 42.6719C123.09 43.143 122.498 43.9481 122.055 44.5423Z" fill="white"></path><path opacity="0.61" d="M122.653 44.9754C122.756 45.0071 122.862 45.0247 122.968 45.0422L124.471 42.9117C124.401 42.8801 124.319 42.8484 124.234 42.8203C123.84 43.3723 123.092 44.3848 122.653 44.9754Z" fill="white"></path><path d="M129.276 42.5195C129.131 42.516 127.919 42.3719 127.075 42.4949C126.235 42.618 125.788 42.7973 125.352 42.8219V43.4301C125.352 43.4301 125.593 43.4301 125.685 43.7325C125.781 44.0348 126.054 44.7239 126.699 45.0157C127.344 45.3075 128.089 45.2337 128.589 44.8013C129.064 44.3899 129.06 43.7395 129.106 43.5672C129.152 43.3985 129.223 43.1946 129.322 43.1805C129.408 43.17 129.393 43.0645 129.393 43.0645L129.408 42.6004C129.408 42.6004 129.422 42.5231 129.276 42.5195ZM128.78 44.2809C128.613 44.8645 128.071 44.9524 127.624 45.0017C127.181 45.0509 126.664 44.9559 126.38 44.629C126.097 44.2985 125.802 43.5461 125.937 43.1805C126.072 42.8184 127.171 42.5336 128.092 42.6461C128.957 42.7516 128.904 43.3387 128.904 43.3387C128.904 43.3387 128.936 43.7395 128.78 44.2809Z" fill="#0E0E0E"></path><path opacity="0.17" d="M128.902 43.3327C128.902 43.3327 128.958 42.7421 128.09 42.6401C127.168 42.5276 126.069 42.8124 125.935 43.1745C125.8 43.5366 126.094 44.2925 126.378 44.623C126.661 44.9535 127.179 45.0484 127.622 44.9992C128.065 44.95 128.607 44.8621 128.778 44.2785C128.934 43.7335 128.902 43.3327 128.902 43.3327Z" fill="#F3CED5"></path><path opacity="0.61" d="M126.323 44.5673C126.436 44.7747 126.613 44.8556 126.812 44.9294L128.326 42.6898C128.131 42.6406 127.911 42.6406 127.68 42.623C127.347 43.0871 126.755 43.9801 126.323 44.5673Z" fill="white"></path><path opacity="0.61" d="M126.95 44.9583C127.056 44.9829 127.152 45.004 127.262 45.011L128.623 42.8594C128.573 42.8102 128.527 42.7785 128.442 42.7363C128.049 43.3199 127.35 44.3817 126.95 44.9583Z" fill="white"></path></g><mask id="mask3_40436_4411" maskUnits="userSpaceOnUse" x="54" y="1" width="38" height="38" style="mask-type: alpha;"><ellipse cx="72.9756" cy="19.9992" rx="18.5887" ry="18.6152" transform="rotate(-4.44545 72.9756 19.9992)" fill="#C4C4C4"></ellipse></mask><g mask="url(#mask3_40436_4411)"><ellipse cx="72.9756" cy="19.9992" rx="18.5887" ry="18.6152" transform="rotate(-4.44545 72.9756 19.9992)" fill="#FFC83E" stroke="#FFC83E" stroke-width="0.5"></ellipse><path d="M73.7181 29.3623C65.2802 29.3623 58.0256 34.2694 54.8008 41.4176H92.6301C89.4106 34.2694 82.1507 29.3623 73.7181 29.3623Z" fill="#48D38A"></path><path d="M73.7077 32.6077C75.2797 32.6077 76.5541 31.4973 76.5541 30.1276C76.5541 28.7578 75.2797 27.6475 73.7077 27.6475C72.1357 27.6475 70.8613 28.7578 70.8613 30.1276C70.8613 31.4973 72.1357 32.6077 73.7077 32.6077Z" fill="#9C7ACD"></path><path d="M76.4553 29.4858L75.2826 25.3753L71.5994 24.8389L70.9277 29.5654L76.4553 29.4858Z" fill="#9C7ACD"></path><path d="M75.3317 25.4809C75.5023 25.8051 75.6142 26.395 75.6835 26.7032C75.6835 26.7032 73.9245 26.7457 73.4981 26.2462C73.3275 26.0389 73.0343 25.8901 73.1623 25.651C73.5301 25.1196 75.0332 24.9123 75.3317 25.4809Z" fill="#511B7C"></path><path d="M73.6995 25.7788C70.5866 25.8 68.0494 23.304 68.028 20.2025L67.9747 13.0809C67.9534 9.97939 70.4587 7.44618 73.5716 7.42494C76.6845 7.4037 79.2217 9.89973 79.2431 13.0012L79.2964 20.1229C79.323 23.2243 76.8178 25.7575 73.6995 25.7788Z" fill="#9C7ACD"></path><path d="M68.1052 18.9368C67.3536 18.9421 66.7406 18.3367 66.7353 17.5932L66.7246 15.8619C66.7193 15.1131 67.327 14.5024 68.0786 14.4971C68.8301 14.4918 69.4431 15.0972 69.4485 15.8407L69.4591 17.572C69.4645 18.3208 68.8568 18.9315 68.1052 18.9368Z" fill="#9C7ACD"></path><path d="M79.7693 18.8646C79.0177 18.8699 78.4047 18.2645 78.3994 17.521L78.3887 15.7897C78.3834 15.0409 78.991 14.4302 79.7426 14.4248C80.4942 14.4195 81.1072 15.025 81.1125 15.7685L81.1232 17.4998C81.1232 18.2486 80.5208 18.8593 79.7693 18.8646Z" fill="#9C7ACD"></path><path d="M73.6185 18.4654C73.5492 18.4495 73.4959 18.391 73.4959 18.322L73.4746 15.6985C73.4746 15.6135 73.5439 15.5498 73.6345 15.5498C73.7251 15.5498 73.7944 15.6135 73.7944 15.6985L73.8157 18.322C73.8157 18.407 73.7464 18.4707 73.6558 18.4707C73.6398 18.4707 73.6292 18.4707 73.6185 18.4654Z" fill="#40196D"></path><path d="M71.4881 16.8253C71.3335 16.8094 71.2802 16.7403 71.2802 16.6659C71.2802 16.5968 71.2802 16.5277 71.2749 16.4586C71.2749 16.2992 71.2695 16.1451 71.2695 15.9857C71.2695 15.906 71.3442 15.8316 71.5094 15.8263C71.6853 15.8156 71.8026 15.8847 71.8079 15.9751C71.8132 16.1292 71.8132 16.278 71.8132 16.4321C71.8132 16.5118 71.8132 16.5862 71.8186 16.6659C71.8186 16.6872 71.8239 16.7031 71.8132 16.7244C71.7866 16.7987 71.6267 16.8413 71.4881 16.8253Z" fill="#40196D"></path><path d="M75.7239 16.8082C75.564 16.7923 75.5107 16.7232 75.5107 16.6541C75.5107 16.5903 75.5107 16.5212 75.5053 16.4575C75.5053 16.3087 75.5 16.1546 75.5 16.0058C75.5 15.9261 75.5746 15.857 75.7505 15.8517C75.9318 15.841 76.0544 15.9101 76.0544 15.9951C76.0597 16.1439 76.0597 16.2874 76.0597 16.4362C76.0597 16.5106 76.0597 16.585 76.065 16.6594C76.065 16.6753 76.0703 16.6966 76.0597 16.7125C76.033 16.7816 75.8678 16.8241 75.7239 16.8082Z" fill="#40196D"></path><path d="M79.818 12.9804C79.802 10.6756 78.4907 8.59907 76.4492 7.56348C76.7957 9.84178 77.9417 12.0617 79.8233 13.8036L79.818 12.9804Z" fill="#40196D"></path><path d="M76.9241 10.1453C77.8623 9.17879 77.6011 7.63868 76.3911 6.99077C75.405 6.46501 74.2536 6.16761 73.033 6.17292C69.3071 6.19416 66.3114 9.04602 66.3381 12.5299C66.3487 13.8522 67.6653 14.8241 69.0352 14.5214C72.1268 13.831 74.8613 12.2749 76.9241 10.1453Z" fill="#40196D"></path><path d="M72.3934 11.9424C73.7922 10.5488 73.7922 8.28914 72.3934 6.89545C70.9945 5.50176 68.7266 5.50176 67.3277 6.89545C65.9289 8.28914 65.9289 10.5488 67.3277 11.9424C68.7266 13.3361 70.9945 13.3361 72.3934 11.9424Z" fill="#40196D"></path><path d="M74.8983 10.583C77.2801 10.4192 79.0954 8.61886 78.9531 6.56189C78.8107 4.50491 76.7646 2.97021 74.3828 3.13404C72.0011 3.29786 70.1857 5.09817 70.3281 7.15515C70.4704 9.21212 72.5166 10.7468 74.8983 10.583Z" fill="#40196D"></path><path d="M78.7856 10.4604C79.7782 10.3922 80.5247 9.49718 80.453 8.46139C80.3813 7.42559 79.5185 6.64123 78.5258 6.70946C77.5332 6.77769 76.7867 7.67269 76.8584 8.70848C76.9301 9.74428 77.7929 10.5286 78.7856 10.4604Z" fill="#40196D"></path><path d="M70.9695 20.8545H75.9747C75.9747 20.8545 76.2359 22.8513 73.4695 22.7876C70.7083 22.7557 70.9695 20.8545 70.9695 20.8545Z" fill="white"></path></g><defs><linearGradient id="paint0_linear_40436_4411" x1="17951.2" y1="9237.5" x2="17951.2" y2="8087.35" gradientUnits="userSpaceOnUse"><stop stop-color="#808080" stop-opacity="0.25"></stop><stop offset="0.54" stop-color="#808080" stop-opacity="0.12"></stop><stop offset="1" stop-color="#808080" stop-opacity="0.1"></stop></linearGradient><linearGradient id="paint1_linear_40436_4411" x1="29157.2" y1="37120.8" x2="29157.2" y2="24928.9" gradientUnits="userSpaceOnUse"><stop stop-color="#808080" stop-opacity="0.25"></stop><stop offset="0.54" stop-color="#808080" stop-opacity="0.12"></stop><stop offset="1" stop-color="#808080" stop-opacity="0.1"></stop></linearGradient></defs></svg>