<svg viewBox="0 0 177 278" fill="none" xmlns="http://www.w3.org/2000/svg"><g opacity="0.13"><mask id="mask0_40094_15568" maskUnits="userSpaceOnUse" x="1" y="50" width="176" height="60" style="mask-type: alpha;"><path d="M39.521 108.175H27.015L11.8411 89.4058V108.175H1.08594V50.2964H11.8411V85.0236L26.1813 66.8332H39.0208L22.2628 87.2561L39.521 108.175Z" fill="#DFE3FF"></path><path d="M67.4394 66.8332H78.1945V108.175H67.4394V103.545C64.827 107.403 60.6861 109.333 55.0167 109.333C50.459 109.333 46.6794 107.817 43.678 104.785C40.7321 101.753 39.2592 97.564 39.2592 92.2171V66.8332H50.0143V90.8942C50.0143 93.6503 50.7647 95.7725 52.2654 97.2608C53.7661 98.694 55.7671 99.4106 58.2683 99.4106C61.0474 99.4106 63.2707 98.5562 64.9381 96.8474C66.6056 95.1386 67.4394 92.5754 67.4394 89.1578V66.8332Z" fill="#DFE3FF"></path><path d="M116.308 50.2964H127.064V108.175H116.308V103.297C113.14 107.321 108.638 109.333 102.802 109.333C97.1882 109.333 92.3803 107.238 88.3784 103.049C84.4321 98.8042 82.4589 93.6227 82.4589 87.5041C82.4589 81.3855 84.4321 76.2316 88.3784 72.0422C92.3803 67.7978 97.1882 65.6756 102.802 65.6756C108.638 65.6756 113.14 67.6876 116.308 71.7115V50.2964ZM96.4656 95.9379C98.6889 98.0877 101.468 99.1625 104.803 99.1625C108.138 99.1625 110.889 98.0877 113.057 95.9379C115.225 93.733 116.308 90.9217 116.308 87.5041C116.308 84.0865 115.225 81.3028 113.057 79.153C110.889 76.9481 108.138 75.8457 104.803 75.8457C101.468 75.8457 98.6889 76.9481 96.4656 79.153C94.2979 81.3028 93.2141 84.0865 93.2141 87.5041C93.2141 90.9217 94.2979 93.733 96.4656 95.9379Z" fill="#DFE3FF"></path><path d="M165.247 66.8332H176.002V108.175H165.247V103.297C162.023 107.321 157.493 109.333 151.657 109.333C146.099 109.333 141.319 107.238 137.317 103.049C133.37 98.8042 131.397 93.6227 131.397 87.5041C131.397 81.3855 133.37 76.2316 137.317 72.0422C141.319 67.7978 146.099 65.6756 151.657 65.6756C157.493 65.6756 162.023 67.6876 165.247 71.7115V66.8332ZM145.404 95.9379C147.572 98.0877 150.323 99.1625 153.658 99.1625C156.993 99.1625 159.744 98.0877 161.912 95.9379C164.135 93.733 165.247 90.9217 165.247 87.5041C165.247 84.0865 164.135 81.3028 161.912 79.153C159.744 76.9481 156.993 75.8457 153.658 75.8457C150.323 75.8457 147.572 76.9481 145.404 79.153C143.236 81.3028 142.152 84.0865 142.152 87.5041C142.152 90.9217 143.236 93.733 145.404 95.9379Z" fill="#DFE3FF"></path></mask><g mask="url(#mask0_40094_15568)"><rect x="-22.2402" y="39.1372" width="198.183" height="75.9042" fill="#DFE3FF"></rect></g></g><g clip-path="url(#clip0_40094_15568)"><path d="M59.4466 12.4187V24.3039H55.9983V22.5681C55.623 23.1936 55.1304 23.6706 54.5205 23.999C53.9106 24.3274 53.2225 24.4916 52.4562 24.4916C50.9706 24.4916 49.8603 24.0772 49.1253 23.2483C48.3902 22.4195 48.0227 21.1684 48.0227 19.4951V12.4187H51.5648V19.5655C51.5648 21.0042 52.1826 21.7236 53.418 21.7236C54.153 21.7236 54.7473 21.4734 55.2008 20.9729C55.6543 20.4725 55.8811 19.8157 55.8811 19.0025V12.4187H59.4466ZM72.9582 7V24.3039H69.463V22.5446C69.1033 23.1545 68.5951 23.6315 67.9383 23.9755C67.2815 24.3196 66.5386 24.4916 65.7098 24.4916C64.6933 24.4916 63.7863 24.2336 62.9887 23.7097C62.1912 23.1858 61.5734 22.4508 61.1277 21.5046C60.6821 20.5585 60.4631 19.4795 60.4631 18.2597C60.4631 17.0399 60.6821 15.9686 61.1277 15.0382C61.5734 14.1077 62.1912 13.3883 62.9809 12.8801C63.7706 12.3718 64.6777 12.1216 65.7098 12.1216C66.5074 12.1216 67.2345 12.2936 67.8914 12.622C68.5482 12.9582 69.0564 13.4196 69.4161 14.0138V7H72.9582ZM68.7593 20.8947C69.2284 20.2927 69.463 19.4326 69.463 18.3066C69.463 17.1963 69.2284 16.344 68.7515 15.7419C68.2745 15.1398 67.6099 14.8427 66.7498 14.8427C65.874 14.8427 65.1937 15.1398 64.7089 15.7341C64.2242 16.3283 63.9818 17.1728 63.9818 18.2675C63.9818 19.3935 64.2242 20.2614 64.7089 20.8791C65.1937 21.4968 65.874 21.8018 66.7498 21.8018C67.6255 21.794 68.2901 21.4968 68.7593 20.8947ZM86.4776 12.4187V24.3039H82.9824V22.5446C82.6228 23.1545 82.1145 23.6315 81.4577 23.9755C80.8009 24.3196 80.0581 24.4916 79.2292 24.4916C78.1971 24.4916 77.2901 24.2414 76.5003 23.7409C75.7106 23.2405 75.0929 22.529 74.6472 21.5985C74.2015 20.668 73.9825 19.5968 73.9825 18.377C73.9825 17.1572 74.2015 16.0703 74.6472 15.1163C75.0929 14.1624 75.7106 13.4274 76.5081 12.9035C77.3057 12.3796 78.2127 12.1216 79.2292 12.1216C80.0581 12.1216 80.8009 12.3014 81.4577 12.6611C82.1145 13.0208 82.6228 13.5056 82.9824 14.1155V12.4187H86.4776ZM82.2787 20.9026C82.7479 20.3083 82.9824 19.4482 82.9824 18.3222C82.9824 17.1963 82.7479 16.3361 82.2787 15.7341C81.8096 15.132 81.1371 14.8349 80.2614 14.8349C79.3856 14.8349 78.7053 15.1476 78.2205 15.7732C77.7357 16.3987 77.4934 17.2666 77.4934 18.377C77.4934 19.4873 77.7279 20.3318 78.2049 20.9182C78.6819 21.5046 79.3621 21.794 80.2535 21.794C81.1371 21.794 81.8096 21.4968 82.2787 20.9026ZM47.3112 24.4759H42.9168L38.194 19.0885V24.4759H34.6128V7H38.194V17.6107L42.7057 12.4578H47.0062L41.9003 18.2284L47.3112 24.4759Z" fill="#CACACA"></path><path d="M24.784 24.4759L17.911 16.5629L21.6642 24.4759H19.0604L15.229 16.4065L16.8241 24.4759H15.2211L13.626 16.3909V24.4759H13.0005V7H13.626V15.7184L15.2446 7H16.8397L15.2133 15.7575L19.1229 7H21.6955L17.8093 15.7262L24.8701 7H28.9126L21.6016 16.0234L28.9439 24.4759H24.784Z" fill="#CACACA"></path><path d="M89.4406 24.2885C90.5116 24.2885 91.3798 23.4203 91.3798 22.3493C91.3798 21.2783 90.5116 20.4102 89.4406 20.4102C88.3697 20.4102 87.5015 21.2783 87.5015 22.3493C87.5015 23.4203 88.3697 24.2885 89.4406 24.2885Z" fill="#CACACA"></path></g><path d="M158.645 243.723C156.746 243.723 154.876 243.723 153.005 243.723C152.698 244.561 152.391 245.398 152.084 246.236C150.548 246.236 149.04 246.236 147.504 246.236C147.532 246.18 147.56 246.124 147.56 246.068C148.705 243.36 149.822 240.652 150.967 237.943C152 235.486 153.005 233.057 154.038 230.6C154.289 229.958 154.736 229.539 155.406 229.371C155.602 229.315 155.797 229.315 155.965 229.315C157.137 229.315 158.31 229.315 159.483 229.315C159.539 229.315 159.567 229.315 159.622 229.315C160.795 234.956 161.968 240.596 163.168 246.236C161.828 246.236 160.488 246.236 159.12 246.236C159.008 245.398 158.841 244.561 158.645 243.723ZM157.919 240.233C157.919 240.233 157.919 240.205 157.919 240.177C157.472 238.083 157.054 236.017 156.607 233.923C156.607 233.923 156.607 233.923 156.579 233.923C155.825 236.017 155.043 238.111 154.289 240.233C154.429 240.261 157.78 240.261 157.919 240.233Z" fill="#CACACA"></path><path d="M122.487 246.264C120.951 246.264 119.416 246.264 117.88 246.264C117.852 246.208 117.852 246.18 117.824 246.124C116.791 242.103 115.758 238.111 114.725 234.09C114.585 233.559 114.446 233.029 114.306 232.498C114.166 231.884 113.804 231.465 113.245 231.214C112.575 230.879 111.905 230.628 111.179 230.404C110.509 230.181 109.839 230.013 109.141 229.846C109.085 229.846 109.057 229.818 109.001 229.818C109.001 229.65 109.057 229.511 109.085 229.343C109.141 229.343 109.196 229.343 109.252 229.343C111.654 229.343 114.027 229.343 116.428 229.343C116.735 229.343 117.042 229.371 117.322 229.511C117.992 229.818 118.383 230.348 118.55 231.046C118.746 232.052 118.941 233.057 119.137 234.09C119.36 235.346 119.611 236.603 119.835 237.859C120.002 238.809 120.198 239.73 120.365 240.679C120.365 240.735 120.393 240.791 120.393 240.847H120.421C120.421 240.847 120.421 240.819 120.449 240.819C120.449 240.819 120.449 240.791 120.477 240.763C121.985 236.966 123.464 233.196 124.972 229.399C124.972 229.399 124.972 229.399 125 229.371C126.508 229.371 128.016 229.371 129.579 229.371C127.206 234.983 124.833 240.624 122.487 246.264Z" fill="#CACACA"></path><path d="M135.247 245.622C135.526 244.366 135.778 243.165 136.029 241.908C136.085 241.936 136.141 241.964 136.224 241.992C136.727 242.244 137.257 242.467 137.816 242.607C138.765 242.886 139.77 242.997 140.776 242.97C141.278 242.942 141.753 242.858 142.2 242.634C142.423 242.523 142.646 242.383 142.842 242.216C143.316 241.713 143.344 241.015 142.898 240.484C142.73 240.289 142.507 240.122 142.283 239.954C141.892 239.675 141.474 239.451 141.027 239.256C140.496 239.005 139.966 238.725 139.463 238.39C138.989 238.083 138.542 237.72 138.151 237.301C137.648 236.743 137.285 236.129 137.146 235.375C137.034 234.844 137.062 234.314 137.146 233.783C137.397 232.303 138.207 231.187 139.435 230.349C140.217 229.818 141.111 229.455 142.032 229.26C142.926 229.065 143.847 228.981 144.74 229.009C145.997 229.037 147.225 229.288 148.426 229.707C148.454 229.707 148.482 229.735 148.51 229.735C148.51 229.735 148.538 229.735 148.538 229.763C148.287 230.935 148.035 232.108 147.784 233.309C147.728 233.281 147.7 233.281 147.672 233.281C146.862 232.918 145.997 232.694 145.131 232.583C144.517 232.527 143.903 232.499 143.289 232.611C142.926 232.666 142.59 232.778 142.283 232.974C142.06 233.113 141.865 233.281 141.753 233.532C141.557 233.895 141.557 234.258 141.809 234.593C141.92 234.733 142.032 234.872 142.2 234.984C142.451 235.179 142.702 235.347 142.981 235.514C143.428 235.766 143.875 235.989 144.322 236.24C144.824 236.52 145.327 236.799 145.774 237.134C146.137 237.385 146.472 237.692 146.751 238.027C147.421 238.781 147.756 239.675 147.756 240.68C147.756 242.774 146.779 244.338 144.992 245.399C144.21 245.845 143.372 246.125 142.507 246.32C141.557 246.516 140.58 246.571 139.603 246.516C138.346 246.46 137.118 246.264 135.917 245.873C135.666 245.79 135.47 245.706 135.247 245.622Z" fill="#CACACA"></path><path d="M135.834 229.315C134.633 234.984 133.433 240.596 132.204 246.236C130.752 246.236 129.3 246.236 127.82 246.236C129.021 240.596 130.222 234.956 131.45 229.315C132.93 229.315 134.382 229.315 135.834 229.315Z" fill="#CACACA"></path><path d="M131.454 264.101H88.6167V266.52H131.454V264.101Z" fill="#00CAF5"></path><path d="M173.815 264.101C172.409 265.593 170.391 266.52 168.191 266.52H131.454V264.101H173.815Z" fill="#48D38A"></path><path d="M88.6163 264.101H45.3936V266.52H88.6163V264.101Z" fill="#FFC700"></path><path d="M3.03418 264.101C4.44017 265.593 6.45844 266.52 8.65812 266.52H45.3952V264.101H3.03418Z" fill="#F7685B"></path><path d="M168.182 276.517H8.73175C4.45894 276.517 1 273.058 1 268.785V8.73175C1 4.45894 4.45894 1 8.73175 1H168.182C172.455 1 175.914 4.45894 175.914 8.73175V268.763C175.937 273.058 172.455 276.517 168.182 276.517Z" fill="#40196D" stroke="#DBDCE0" stroke-opacity="0.5"></path><g opacity="0.13"><mask id="mask1_40094_15568" maskUnits="userSpaceOnUse" x="1" y="60" width="175" height="60" style="mask-type: alpha;"><path d="M39.5206 118.174H27.0148L11.841 99.4054V118.174H1.08594V60.2964H11.841V95.0232L26.181 76.833H39.0204L22.2625 97.2557L39.5206 118.174Z" fill="#DFE3FF"></path><path d="M67.4387 76.833H78.1937V118.174H67.4387V113.544C64.8263 117.403 60.6855 119.332 55.0162 119.332C50.4585 119.332 46.6789 117.816 43.6775 114.784C40.7317 111.753 39.2588 107.563 39.2588 102.217V76.833H50.0138V100.894C50.0138 103.65 50.7642 105.772 52.2649 107.26C53.7656 108.693 55.7665 109.41 58.2677 109.41C61.0468 109.41 63.27 108.556 64.9375 106.847C66.6049 105.138 67.4387 102.575 67.4387 99.1574V76.833Z" fill="#DFE3FF"></path><path d="M116.307 60.2964H127.062V118.174H116.307V113.296C113.139 117.32 108.637 119.332 102.801 119.332C97.1872 119.332 92.3794 117.237 88.3775 113.048C84.4312 108.804 82.4581 103.622 82.4581 97.5037C82.4581 91.3852 84.4312 86.2313 88.3775 82.042C92.3794 77.7976 97.1872 75.6754 102.801 75.6754C108.637 75.6754 113.139 77.6874 116.307 81.7113V60.2964ZM96.4647 105.937C98.6879 108.087 101.467 109.162 104.802 109.162C108.137 109.162 110.888 108.087 113.056 105.937C115.223 103.733 116.307 100.921 116.307 97.5037C116.307 94.0862 115.223 91.3025 113.056 89.1528C110.888 86.9479 108.137 85.8454 104.802 85.8454C101.467 85.8454 98.6879 86.9479 96.4647 89.1528C94.297 91.3025 93.2131 94.0862 93.2131 97.5037C93.2131 100.921 94.297 103.733 96.4647 105.937Z" fill="#DFE3FF"></path><path d="M165.245 76.833H176V118.174H165.245V113.296C162.021 117.32 157.491 119.332 151.655 119.332C146.097 119.332 141.317 117.237 137.315 113.048C133.369 108.804 131.396 103.622 131.396 97.5037C131.396 91.3852 133.369 86.2313 137.315 82.042C141.317 77.7976 146.097 75.6754 151.655 75.6754C157.491 75.6754 162.021 77.6874 165.245 81.7113V76.833ZM145.402 105.937C147.57 108.087 150.321 109.162 153.656 109.162C156.991 109.162 159.742 108.087 161.91 105.937C164.133 103.733 165.245 100.921 165.245 97.5037C165.245 94.0862 164.133 91.3025 161.91 89.1528C159.742 86.9479 156.991 85.8454 153.656 85.8454C150.321 85.8454 147.57 86.9479 145.402 89.1528C143.235 91.3025 142.151 94.0862 142.151 97.5037C142.151 100.921 143.235 103.733 145.402 105.937Z" fill="#DFE3FF"></path></mask><g mask="url(#mask1_40094_15568)"><rect x="-22.2402" y="49.1372" width="198.181" height="75.9034" fill="#DFE3FF"></rect></g></g><g clip-path="url(#clip1_40094_15568)"><path d="M59.5201 22.4187V34.3037H56.0719V32.5679C55.6965 33.1934 55.2039 33.6704 54.594 33.9988C53.9841 34.3272 53.2961 34.4914 52.5298 34.4914C51.0441 34.4914 49.9338 34.077 49.1988 33.2482C48.4638 32.4193 48.0963 31.1683 48.0963 29.495V22.4187H51.6384V29.5654C51.6384 31.0041 52.2561 31.7234 53.4915 31.7234C54.2265 31.7234 54.8208 31.4732 55.2743 30.9728C55.7278 30.4724 55.9546 29.8156 55.9546 29.0024V22.4187H59.5201ZM73.0316 17V34.3037H69.5364V32.5444C69.1767 33.1543 68.6685 33.6313 68.0117 33.9753C67.3549 34.3194 66.612 34.4914 65.7832 34.4914C64.7667 34.4914 63.8597 34.2334 63.0622 33.7095C62.2646 33.1856 61.6469 32.4506 61.2012 31.5045C60.7555 30.5584 60.5366 29.4793 60.5366 28.2596C60.5366 27.0398 60.7555 25.9685 61.2012 25.0381C61.6469 24.1076 62.2646 23.3882 63.0543 22.88C63.8441 22.3717 64.7511 22.1215 65.7832 22.1215C66.5808 22.1215 67.3079 22.2936 67.9648 22.622C68.6216 22.9582 69.1298 23.4195 69.4895 24.0138V17H73.0316ZM68.8327 30.8946C69.3018 30.2925 69.5364 29.4324 69.5364 28.3065C69.5364 27.1962 69.3018 26.3439 68.8249 25.7418C68.3479 25.1397 67.6833 24.8426 66.8232 24.8426C65.9474 24.8426 65.2672 25.1397 64.7824 25.734C64.2976 26.3282 64.0552 27.1727 64.0552 28.2674C64.0552 29.3933 64.2976 30.2613 64.7824 30.879C65.2672 31.4967 65.9474 31.8016 66.8232 31.8016C67.6989 31.7938 68.3635 31.4967 68.8327 30.8946ZM86.5508 22.4187V34.3037H83.0557V32.5444C82.696 33.1543 82.1878 33.6313 81.531 33.9753C80.8741 34.3194 80.1313 34.4914 79.3025 34.4914C78.2704 34.4914 77.3634 34.2412 76.5736 33.7408C75.7839 33.2403 75.1662 32.5288 74.7205 31.5983C74.2748 30.6678 74.0559 29.5966 74.0559 28.3768C74.0559 27.1571 74.2748 26.0702 74.7205 25.1163C75.1662 24.1623 75.7839 23.4273 76.5814 22.9034C77.379 22.3796 78.286 22.1215 79.3025 22.1215C80.1313 22.1215 80.8741 22.3014 81.531 22.6611C82.1878 23.0207 82.696 23.5055 83.0557 24.1154V22.4187H86.5508ZM82.352 30.9024C82.8211 30.3082 83.0557 29.4481 83.0557 28.3221C83.0557 27.1962 82.8211 26.336 82.352 25.734C81.8828 25.1319 81.2104 24.8348 80.3346 24.8348C79.4589 24.8348 78.7786 25.1475 78.2938 25.7731C77.809 26.3986 77.5667 27.2665 77.5667 28.3768C77.5667 29.4872 77.8012 30.3316 78.2782 30.9181C78.7552 31.5045 79.4354 31.7938 80.3268 31.7938C81.2104 31.7938 81.8828 31.4967 82.352 30.9024ZM47.3848 34.4758H42.9904L38.2677 29.0884V34.4758H34.6865V17H38.2677V27.6106L42.7793 22.4578H47.0798L41.974 28.2283L47.3848 34.4758Z" fill="#CACACA"></path><path d="M24.8586 34.4758L17.9856 26.5628L21.7388 34.4758H19.135L15.3036 26.4064L16.8988 34.4758H15.2958L13.7007 26.3908V34.4758H13.0752V17H13.7007V25.7183L15.3193 17H16.9144L15.288 25.7574L19.1976 17H21.7701L17.884 25.7262L24.9446 17H28.9871L21.6762 26.0233L29.0184 34.4758H24.8586Z" fill="#CACACA"></path><path d="M89.5143 34.2884C90.5853 34.2884 91.4535 33.4203 91.4535 32.3493C91.4535 31.2783 90.5853 30.4102 89.5143 30.4102C88.4434 30.4102 87.5752 31.2783 87.5752 32.3493C87.5752 33.4203 88.4434 34.2884 89.5143 34.2884Z" fill="#CACACA"></path></g><path d="M158.646 253.72C156.747 253.72 154.876 253.72 153.005 253.72C152.698 254.558 152.391 255.395 152.084 256.233C150.548 256.233 149.041 256.233 147.505 256.233C147.533 256.177 147.561 256.121 147.561 256.065C148.706 253.357 149.822 250.649 150.967 247.94C152 245.483 153.005 243.054 154.039 240.597C154.29 239.955 154.737 239.536 155.407 239.368C155.602 239.313 155.798 239.312 155.965 239.312C157.138 239.312 158.31 239.312 159.483 239.312C159.539 239.312 159.567 239.312 159.623 239.312C160.795 244.953 161.968 250.593 163.169 256.233C161.829 256.233 160.488 256.233 159.12 256.233C159.008 255.395 158.841 254.558 158.646 253.72ZM157.92 250.23C157.92 250.23 157.92 250.202 157.92 250.174C157.473 248.08 157.054 246.014 156.607 243.92C156.607 243.92 156.607 243.92 156.579 243.92C155.825 246.014 155.044 248.108 154.29 250.23C154.429 250.258 157.78 250.258 157.92 250.23Z" fill="#CACACA"></path><path d="M122.487 256.26C120.951 256.26 119.416 256.26 117.88 256.26C117.852 256.204 117.852 256.176 117.824 256.121C116.791 252.1 115.758 248.107 114.725 244.086C114.585 243.556 114.446 243.025 114.306 242.495C114.166 241.881 113.803 241.462 113.245 241.211C112.575 240.876 111.905 240.624 111.179 240.401C110.509 240.177 109.839 240.01 109.141 239.842C109.085 239.842 109.057 239.814 109.001 239.814C109.001 239.647 109.057 239.507 109.085 239.34C109.141 239.34 109.196 239.34 109.252 239.34C111.654 239.34 114.027 239.34 116.428 239.34C116.735 239.34 117.042 239.368 117.322 239.507C117.992 239.815 118.383 240.345 118.55 241.043C118.746 242.048 118.941 243.053 119.136 244.086C119.36 245.343 119.611 246.599 119.834 247.856C120.002 248.805 120.197 249.727 120.365 250.676C120.365 250.732 120.393 250.788 120.393 250.843H120.421C120.421 250.843 120.421 250.816 120.449 250.816C120.449 250.816 120.449 250.788 120.477 250.76C121.984 246.962 123.464 243.193 124.972 239.396C124.972 239.396 124.972 239.396 125 239.368C126.508 239.368 128.015 239.368 129.579 239.368C127.206 244.98 124.832 250.62 122.487 256.26Z" fill="#CACACA"></path><path d="M135.247 255.618C135.526 254.362 135.778 253.161 136.029 251.905C136.085 251.933 136.141 251.961 136.224 251.989C136.727 252.24 137.257 252.463 137.816 252.603C138.765 252.882 139.77 252.994 140.776 252.966C141.278 252.938 141.753 252.854 142.2 252.631C142.423 252.519 142.646 252.38 142.842 252.212C143.316 251.709 143.344 251.011 142.898 250.481C142.73 250.285 142.507 250.118 142.283 249.95C141.892 249.671 141.474 249.448 141.027 249.252C140.496 249.001 139.966 248.722 139.463 248.387C138.989 248.08 138.542 247.717 138.151 247.298C137.648 246.739 137.285 246.125 137.146 245.371C137.034 244.841 137.062 244.31 137.146 243.78C137.397 242.3 138.207 241.183 139.435 240.345C140.217 239.815 141.111 239.452 142.032 239.257C142.925 239.061 143.847 238.977 144.74 239.005C145.997 239.033 147.225 239.284 148.426 239.703C148.454 239.703 148.482 239.731 148.51 239.731C148.51 239.731 148.538 239.731 148.538 239.759C148.286 240.932 148.035 242.105 147.784 243.305C147.728 243.277 147.7 243.277 147.672 243.277C146.862 242.914 145.997 242.691 145.131 242.579C144.517 242.523 143.903 242.495 143.288 242.607C142.925 242.663 142.59 242.775 142.283 242.97C142.06 243.11 141.864 243.277 141.753 243.529C141.557 243.892 141.557 244.254 141.809 244.59C141.92 244.729 142.032 244.869 142.2 244.98C142.451 245.176 142.702 245.343 142.981 245.511C143.428 245.762 143.875 245.986 144.322 246.237C144.824 246.516 145.327 246.795 145.773 247.13C146.136 247.382 146.471 247.689 146.751 248.024C147.421 248.778 147.756 249.671 147.756 250.676C147.756 252.771 146.779 254.334 144.992 255.395C144.21 255.842 143.372 256.121 142.507 256.317C141.557 256.512 140.58 256.568 139.603 256.512C138.346 256.456 137.118 256.261 135.917 255.87C135.666 255.786 135.47 255.702 135.247 255.618Z" fill="#CACACA"></path><path d="M135.833 239.312C134.632 244.981 133.432 250.593 132.203 256.233C130.751 256.233 129.299 256.233 127.819 256.233C129.02 250.593 130.221 244.953 131.449 239.312C132.929 239.312 134.381 239.312 135.833 239.312Z" fill="#CACACA"></path><path d="M131.454 274.098H88.6177V276.517H131.454V274.098Z" fill="#00CAF5"></path><path d="M173.815 274.098C172.409 275.59 170.391 276.517 168.191 276.517H131.454V274.098H173.815Z" fill="#48D38A"></path><path d="M88.6173 274.098H45.395V276.517H88.6173V274.098Z" fill="#FFC700"></path><path d="M3.03516 274.098C4.44113 275.59 6.45938 276.517 8.65904 276.517H45.3957V274.098H3.03516Z" fill="#F7685B"></path><mask id="mask2_40094_15568" maskUnits="userSpaceOnUse" x="13" y="239" width="19" height="18" style="mask-type: alpha;"><path d="M13.0742 241.622C13.0742 240.174 14.2481 239 15.6962 239H28.8272C30.2753 239 31.4492 240.174 31.4492 241.622V253.878C31.4492 255.327 30.2753 256.5 28.8272 256.5H15.6962C14.2481 256.5 13.0742 255.327 13.0742 253.878V241.622Z" fill="#E94D1E"></path></mask><g mask="url(#mask2_40094_15568)"><g clip-path="url(#clip2_40094_15568)"><path d="M5.45215 235.408H38.6168V260.281H5.45215V235.408Z" fill="#008751"></path><path d="M17.7964 235.315H27.0088V260.189H17.7964V235.315Z" fill="white"></path></g></g><defs><clipPath id="clip0_40094_15568"><rect width="78.3623" height="17.4916" fill="white" transform="translate(13.0005 7)"></rect></clipPath><clipPath id="clip1_40094_15568"><rect width="78.3615" height="17.4914" fill="white" transform="translate(13.0752 17)"></rect></clipPath><clipPath id="clip2_40094_15568"><rect width="33.1647" height="24.8735" fill="white" transform="translate(5.45215 235.408)"></rect></clipPath></defs></svg>