<svg viewBox="0 0 63 63" fill="none" xmlns="http://www.w3.org/2000/svg"><g clip-path="url(#clip0_40396_101022)"><circle cx="31.5" cy="31.5" r="31.5" fill="#DFE3FF"/><g clip-path="url(#clip1_40396_101022)"><path d="M30.5872 18.5C30.5872 19.0422 30.5872 19.4988 30.5872 19.9839C30.5872 23.7508 30.5872 27.5462 30.5872 31.3131C30.5872 31.8553 30.7582 32.1692 31.2428 32.426C34.5494 34.3951 37.8275 36.3927 41.1056 38.3902C41.3051 38.5044 41.5046 38.6471 41.6757 38.7612C38.5116 43.213 32.155 45.3818 26.3399 42.8705C20.7529 40.4449 17.6459 34.2239 19.0711 28.1455C20.5534 21.953 26.1689 18.5571 30.5872 18.5Z" fill="#40196D"/><path d="M31.8129 18.3867C36.7443 18.7006 40.4785 20.9265 42.7589 25.2641C44.9823 29.459 44.6973 33.711 42.3598 37.8774C39.9084 36.3935 37.4855 34.9381 35.0625 33.4542C34.0934 32.8549 33.0957 32.2842 32.155 31.6564C31.9555 31.5137 31.7559 31.2283 31.7274 31C31.6989 26.8907 31.6989 22.7814 31.7274 18.6721C31.7274 18.6436 31.7559 18.5579 31.8129 18.3867Z" fill="white"/></g></g><defs><clipPath id="clip0_40396_101022"><rect width="63" height="63" fill="white"/></clipPath><clipPath id="clip1_40396_101022"><rect width="25.5405" height="25.5405" fill="white" transform="translate(18.7295 18.3867)"/></clipPath></defs></svg>