<svg viewBox="0 0 46 51" fill="none" xmlns="http://www.w3.org/2000/svg"><g filter="url(#filter0_d_40094_14692)"><path d="M32.5299 10H13.6354C12.673 9.99835 11.7493 10.3651 11.0675 11.0196C10.3857 11.6741 10.0017 12.5627 10 13.49V37.0192C10.0274 38.9305 11.6195 40.4782 13.603 40.5217H32.3644C33.3268 40.5234 34.2506 40.1566 34.9323 39.5021C35.6141 38.8476 35.9981 37.959 35.9998 37.0317V13.4118C36.0093 12.5161 35.6491 11.6533 34.9984 11.0135C34.3476 10.3737 33.4597 10.0091 32.5299 10Z" fill="white"></path></g><path fill-rule="evenodd" clip-rule="evenodd" d="M18.2197 20.1743C17.1152 20.1743 16.2197 21.0697 16.2197 22.1743V22.2706C16.2793 22.2612 16.3403 22.2563 16.4025 22.2563H29.7517C29.7628 22.2563 29.7739 22.2565 29.7849 22.2568V22.1743C29.7849 21.0697 28.8895 20.1743 27.7849 20.1743H18.2197ZM29.7849 24.582C29.7739 24.5823 29.7628 24.5824 29.7517 24.5824H16.4025C16.3403 24.5824 16.2793 24.5776 16.2197 24.5682V27.9714C16.2197 29.076 17.1152 29.9714 18.2197 29.9714H27.7849C28.8895 29.9714 29.7849 29.076 29.7849 27.9714V24.582Z" fill="#1DCBEF"></path><defs><filter id="filter0_d_40094_14692" x="0" y="0" width="46" height="50.522" filterUnits="userSpaceOnUse" color-interpolation-filters="sRGB"><feFlood flood-opacity="0" result="BackgroundImageFix"></feFlood><feColorMatrix in="SourceAlpha" type="matrix" values="0 0 0 0 0 0 0 0 0 0 0 0 0 0 0 0 0 0 127 0" result="hardAlpha"></feColorMatrix><feOffset></feOffset><feGaussianBlur stdDeviation="5"></feGaussianBlur><feColorMatrix type="matrix" values="0 0 0 0 0 0 0 0 0 0 0 0 0 0 0 0 0 0 0.06 0"></feColorMatrix><feBlend mode="normal" in2="BackgroundImageFix" result="effect1_dropShadow_40094_14692"></feBlend><feBlend mode="normal" in="SourceGraphic" in2="effect1_dropShadow_40094_14692" result="shape"></feBlend></filter></defs></svg>