<svg viewBox="0 0 55 80" fill="none" xmlns="http://www.w3.org/2000/svg" class="investment__stock-image-box"><circle cx="19.5" cy="37.5" r="17" fill="white" stroke="#DBDCE0"></circle><g clip-path="url(#clip0_37760_54669)"><path d="M31.622 37.7814C31.622 36.9487 31.5545 36.1115 31.4104 35.2922H19.8516V40.0095H26.4708C26.1961 41.5309 25.3135 42.8767 24.0212 43.732V46.7928H27.9702C30.2892 44.6592 31.622 41.5084 31.622 37.7814Z" fill="#4285F4"></path><path d="M19.8523 49.75C23.1574 49.75 25.9447 48.6652 27.9755 46.7928L24.0265 43.7319C22.9278 44.4791 21.5094 44.9023 19.8568 44.9023C16.6598 44.9023 13.9491 42.7462 12.9764 39.8474H8.90137V43.0027C10.9817 47.1393 15.2189 49.75 19.8523 49.75Z" fill="#34A853"></path><path d="M12.9718 39.8473C12.4585 38.3259 12.4585 36.6784 12.9718 35.157V32.0017H8.90123C7.16313 35.4631 7.16313 39.5412 8.90123 43.0026L12.9718 39.8473Z" fill="#FBBC04"></path><path d="M19.8523 30.0979C21.5994 30.0709 23.288 30.728 24.5533 31.9344L28.052 28.4369C25.8366 26.3574 22.8962 25.2141 19.8523 25.2501C15.2189 25.2501 10.9817 27.8608 8.90137 32.0019L12.9719 35.1572C13.9401 32.254 16.6553 30.0979 19.8523 30.0979Z" fill="#EA4335"></path></g><circle cx="17.5" cy="68.5" r="17.5" fill="#999999"></circle><path d="M21.7059 75.5421C20.8272 76.4074 19.8578 76.2725 18.9337 75.8646C17.9513 75.4484 17.0532 75.4221 16.0157 75.8646C14.7236 76.4304 14.0379 76.2659 13.2597 75.5421C8.86644 70.9526 9.5149 63.9613 14.508 63.6981C15.719 63.7639 16.5669 64.3775 17.2802 64.4285C18.3404 64.2097 19.3552 63.583 20.49 63.6652C21.8534 63.7771 22.8731 64.3232 23.554 65.3053C20.7494 67.0161 21.4141 70.7667 23.9901 71.8195C23.4745 73.1931 22.8131 74.5502 21.7042 75.5537L21.7059 75.5421ZM17.1829 63.6488C17.0516 61.609 18.6808 59.9311 20.5549 59.7666C20.8126 62.119 18.4474 63.8791 17.1829 63.6488Z" fill="white"></path><circle cx="45.5" cy="17.5" r="17.5" fill="#E82127"></circle><circle cx="45.5" cy="17.5" r="17" stroke="#8B909D" stroke-opacity="0.1"></circle><mask id="mask0_37760_54669" maskUnits="userSpaceOnUse" x="28" y="0" width="35" height="35" style="mask-type: alpha;"><circle cx="45.5" cy="17.5" r="17" fill="#C4C4C4" stroke="black"></circle></mask><g mask="url(#mask0_37760_54669)"><path d="M45.4822 26.6111L47.98 12.5636C50.3608 12.5636 51.1117 12.8247 51.2201 13.8903C51.2201 13.8903 52.8172 13.2948 53.6228 12.0854C50.4794 10.6288 47.321 10.5631 47.321 10.5631L45.4781 12.8078L45.4822 12.8075L43.6393 10.5627C43.6393 10.5627 40.4808 10.6285 37.3379 12.0851C38.1427 13.2945 39.7404 13.89 39.7404 13.89C39.8495 12.8243 40.5995 12.5633 42.9644 12.5616L45.4822 26.6111Z" fill="white"></path><path d="M45.4817 9.91518C48.0226 9.89575 50.9311 10.3083 53.9084 11.6059C54.3063 10.8897 54.4086 10.5731 54.4086 10.5731C51.154 9.28547 48.106 8.84479 45.4813 8.83374C42.8568 8.84479 39.8089 9.28554 36.5547 10.5731C36.5547 10.5731 36.6999 10.963 37.0546 11.6059C40.0314 10.3083 42.9403 9.89575 45.4813 9.91518H45.4817Z" fill="white"></path></g><circle cx="44.5" cy="44.5" r="17.5" fill="black"></circle><path d="M34.0379 49.7724C34.1009 49.6712 34.2019 49.6649 34.3407 49.7534C37.4953 51.5874 40.9275 52.5044 44.6374 52.5044C47.1106 52.5044 49.5523 52.0427 51.9624 51.1194C52.0255 51.0941 52.117 51.0562 52.2369 51.0056C52.3567 50.955 52.4419 50.917 52.4924 50.8917C52.6817 50.8158 52.8299 50.8538 52.9372 51.0056C53.0444 51.1573 53.0097 51.2965 52.8331 51.4229C52.606 51.5874 52.3157 51.7771 51.9624 51.9921C50.8772 52.6372 49.6658 53.1367 48.3283 53.4909C46.9907 53.8451 45.6847 54.0221 44.4103 54.0221C42.4418 54.0221 40.5805 53.6775 38.8266 52.9881C37.0726 52.2988 35.5016 51.3281 34.1136 50.0759C34.0379 50.0127 34 49.9494 34 49.8862C34 49.8483 34.0126 49.8103 34.0379 49.7724ZM39.7351 44.3653C39.7351 43.4926 39.9496 42.7464 40.3786 42.1266C40.8077 41.5069 41.3944 41.0389 42.1389 40.7227C42.8203 40.4318 43.6594 40.2231 44.6563 40.0966C44.997 40.0587 45.5522 40.0081 46.322 39.9448V39.6223C46.322 38.8128 46.2336 38.269 46.057 37.9907C45.792 37.6113 45.3756 37.4216 44.8077 37.4216H44.6563C44.2399 37.4595 43.8803 37.5923 43.5774 37.82C43.2746 38.0476 43.079 38.3638 42.9907 38.7686C42.9402 39.0215 42.814 39.167 42.6121 39.2049L40.4354 38.9393C40.2209 38.8887 40.1137 38.7749 40.1137 38.5978C40.1137 38.5599 40.12 38.5156 40.1326 38.465C40.3471 37.3394 40.8739 36.5046 41.713 35.9607C42.5522 35.4168 43.5333 35.1133 44.6563 35.05H45.1295C46.568 35.05 47.6911 35.4232 48.4986 36.1694C48.6253 36.2965 48.7424 36.4328 48.8488 36.5773C48.956 36.7228 49.0412 36.8524 49.1043 36.9662C49.1674 37.0801 49.2242 37.2445 49.2747 37.4595C49.3251 37.6745 49.363 37.8231 49.3882 37.9053C49.4135 37.9876 49.4324 38.1646 49.445 38.4366C49.4576 38.7085 49.464 38.8698 49.464 38.9204V43.5116C49.464 43.8404 49.5113 44.1408 49.6059 44.4128C49.7006 44.6847 49.792 44.8807 49.8804 45.0009C49.9687 45.121 50.1138 45.3139 50.3157 45.5795C50.3914 45.6934 50.4293 45.7946 50.4293 45.8831C50.4293 45.9843 50.3788 46.0728 50.2778 46.1487C49.2305 47.0594 48.6627 47.5526 48.5744 47.6285C48.4229 47.7424 48.24 47.755 48.0254 47.6665C47.8488 47.5147 47.6942 47.3692 47.5617 47.2301C47.4292 47.091 47.3346 46.9898 47.2778 46.9266C47.221 46.8633 47.1295 46.74 47.0033 46.5566C46.8772 46.3732 46.7888 46.2499 46.7384 46.1867C46.0317 46.9582 45.3377 47.4388 44.6563 47.6285C44.2273 47.755 43.6973 47.8183 43.0664 47.8183C42.0947 47.8183 41.2966 47.5179 40.672 46.9171C40.0474 46.3163 39.7351 45.4657 39.7351 44.3653ZM42.9907 43.9859C42.9907 44.4792 43.1137 44.8744 43.3598 45.1716C43.6058 45.4689 43.9371 45.6175 44.3535 45.6175C44.3913 45.6175 44.4449 45.6112 44.5144 45.5985C44.5837 45.5859 44.6311 45.5795 44.6563 45.5795C45.1863 45.4404 45.5964 45.0989 45.8866 44.5551C46.0254 44.3147 46.1295 44.0523 46.1989 43.7677C46.2683 43.4831 46.3062 43.2523 46.3125 43.0752C46.3188 42.8982 46.322 42.6073 46.322 42.2025V41.7282C45.5901 41.7282 45.0349 41.7788 44.6563 41.88C43.5459 42.1962 42.9907 42.8982 42.9907 43.9859ZM50.9403 50.0949C50.9655 50.0443 51.0034 49.9937 51.0539 49.9431C51.3693 49.7281 51.6722 49.5827 51.9624 49.5068C52.4419 49.3803 52.9088 49.3107 53.3631 49.2981C53.4892 49.2854 53.6091 49.2918 53.7227 49.317C54.2905 49.3676 54.6312 49.4625 54.7448 49.6016C54.7953 49.6775 54.8205 49.7913 54.8205 49.9431V50.0759C54.8205 50.5186 54.7006 51.0403 54.4609 51.6411C54.2211 52.2419 53.8867 52.7257 53.4577 53.0925C53.3946 53.1431 53.3378 53.1684 53.2874 53.1684C53.2621 53.1684 53.2369 53.1621 53.2116 53.1494C53.1359 53.1115 53.117 53.0419 53.1549 52.9407C53.6217 51.8403 53.8552 51.0751 53.8552 50.6451C53.8552 50.506 53.8299 50.4048 53.7795 50.3415C53.6533 50.1898 53.3 50.1139 52.7195 50.1139C52.505 50.1139 52.2526 50.1265 51.9624 50.1518C51.6469 50.1898 51.3567 50.2277 51.0917 50.2656C51.016 50.2656 50.9655 50.253 50.9403 50.2277C50.9151 50.2024 50.9088 50.1771 50.9214 50.1518C50.9214 50.1392 50.9277 50.1202 50.9403 50.0949Z" fill="white"></path><path d="M34.0379 49.7712C34.1009 49.67 34.2019 49.6636 34.3407 49.7522C37.4953 51.5862 40.9275 52.5031 44.6374 52.5031C47.1106 52.5031 49.5523 52.0415 51.9624 51.1182C52.0255 51.0929 52.117 51.0549 52.2369 51.0043C52.3567 50.9537 52.4419 50.9158 52.4924 50.8905C52.6817 50.8146 52.8299 50.8526 52.9372 51.0043C53.0444 51.1561 53.0097 51.2952 52.8331 51.4217C52.606 51.5862 52.3157 51.7759 51.9624 51.9909C50.8772 52.6359 49.6658 53.1355 48.3283 53.4897C46.9907 53.8438 45.6847 54.0209 44.4103 54.0209C42.4418 54.0209 40.5805 53.6762 38.8266 52.9869C37.0726 52.2976 35.5016 51.3269 34.1136 50.0747C34.0379 50.0115 34 49.9482 34 49.885C34 49.847 34.0126 49.8091 34.0379 49.7712ZM50.9403 50.0937C50.9655 50.0431 51.0034 49.9925 51.0539 49.9419C51.3693 49.7269 51.6722 49.5814 51.9624 49.5055C52.4419 49.3791 52.9088 49.3095 53.3631 49.2969C53.4892 49.2842 53.6091 49.2905 53.7227 49.3158C54.2905 49.3664 54.6312 49.4613 54.7448 49.6004C54.7953 49.6763 54.8205 49.7901 54.8205 49.9419V50.0747C54.8205 50.5174 54.7006 51.0391 54.4609 51.6399C54.2211 52.2407 53.8867 52.7245 53.4577 53.0913C53.3946 53.1419 53.3378 53.1672 53.2874 53.1672C53.2621 53.1672 53.2369 53.1608 53.2116 53.1482C53.1359 53.1102 53.117 53.0407 53.1549 52.9395C53.6217 51.8391 53.8552 51.0739 53.8552 50.6439C53.8552 50.5047 53.8299 50.4036 53.7795 50.3403C53.6533 50.1885 53.3 50.1127 52.7195 50.1127C52.505 50.1127 52.2526 50.1253 51.9624 50.1506C51.6469 50.1885 51.3567 50.2265 51.0917 50.2644C51.016 50.2644 50.9655 50.2518 50.9403 50.2265C50.9151 50.2012 50.9088 50.1759 50.9214 50.1506C50.9214 50.1379 50.9277 50.119 50.9403 50.0937Z" fill="#FF9900"></path><path d="M60 66.5C60 56.835 52.165 49 42.5 49C32.835 49 25 56.835 25 66.5C25 75.2346 31.3995 82.4746 39.7656 83.7874V71.5586H35.3223V66.5H39.7656V62.6445C39.7656 58.2586 42.3783 55.8359 46.3756 55.8359C48.2897 55.8359 50.293 56.1777 50.293 56.1777V60.4844H48.0863C45.9125 60.4844 45.2344 61.8334 45.2344 63.2188V66.5H50.0879L49.312 71.5586H45.2344V83.7874C53.6005 82.4746 60 75.2346 60 66.5Z" fill="#1877F2"></path><path d="M49.312 71.5586L50.0879 66.5H45.2344V63.2188C45.2344 61.8348 45.9125 60.4844 48.0863 60.4844H50.293V56.1777C50.293 56.1777 48.2904 55.8359 46.3756 55.8359C42.3783 55.8359 39.7656 58.2586 39.7656 62.6445V66.5H35.3223V71.5586H39.7656V83.7874C41.5775 84.0709 43.4225 84.0709 45.2344 83.7874V71.5586H49.312Z" fill="white"></path><defs><clipPath id="clip0_37760_54669"><rect width="24.0227" height="24.5" fill="white" transform="translate(7.59961 25.25)"></rect></clipPath></defs></svg>