<svg viewBox="0 0 417 176" fill="none" xmlns="http://www.w3.org/2000/svg"><g filter="url(#filter0_d_37760_54934)"><rect x="-66" y="25" width="97" height="126" rx="10" fill="white"></rect></g><mask id="mask0_37760_54934" maskUnits="userSpaceOnUse" x="-66" y="25" width="97" height="126" style="mask-type: alpha;"><rect x="-66" y="25" width="97" height="126" rx="10" fill="white"></rect></mask><g mask="url(#mask0_37760_54934)"><g filter="url(#filter1_d_37760_54934)"><path d="M34.5703 96C30.0703 98.8889 21.5703 112.5 11.3717 104C2.57031 99.5 2.41085 115.895 -4.8268 115.895C-12.0645 115.895 -13.7877 107.427 -20.6807 107.427C-27.5737 107.427 -34.1221 122.145 -44.4616 115.895C-54.8011 109.645 -57.5583 129.202 -70.9997 129.403" stroke="#E82127" stroke-width="3" stroke-linecap="round" stroke-linejoin="round"></path></g></g><g filter="url(#filter2_d_37760_54934)"><rect x="47" y="25" width="97" height="126" rx="10" fill="white"></rect></g><mask id="mask1_37760_54934" maskUnits="userSpaceOnUse" x="47" y="25" width="97" height="126" style="mask-type: alpha;"><rect x="47" y="25" width="97" height="126" rx="10" fill="white"></rect></mask><g mask="url(#mask1_37760_54934)"><path d="M113 54.5C113 44.835 105.165 37 95.5 37C85.835 37 78 44.835 78 54.5C78 63.2346 84.3995 70.4746 92.7656 71.7874V59.5586H88.3223V54.5H92.7656V50.6445C92.7656 46.2586 95.3783 43.8359 99.3756 43.8359C101.29 43.8359 103.293 44.1777 103.293 44.1777V48.4844H101.086C98.9125 48.4844 98.2344 49.8334 98.2344 51.2188V54.5H103.088L102.312 59.5586H98.2344V71.7874C106.601 70.4746 113 63.2346 113 54.5Z" fill="#1877F2"></path><path d="M102.312 59.5586L103.088 54.5H98.2344V51.2188C98.2344 49.8348 98.9125 48.4844 101.086 48.4844H103.293V44.1777C103.293 44.1777 101.29 43.8359 99.3756 43.8359C95.3783 43.8359 92.7656 46.2586 92.7656 50.6445V54.5H88.3223V59.5586H92.7656V71.7874C94.5775 72.0709 96.4225 72.0709 98.2344 71.7874V59.5586H102.312Z" fill="white"></path><g filter="url(#filter3_d_37760_54934)"><path d="M147.57 96C143.07 98.8889 134.57 112.5 124.372 104C115.57 99.5 115.411 115.895 108.173 115.895C100.936 115.895 99.2123 107.427 92.3193 107.427C85.4263 107.427 78.8779 122.145 68.5384 115.895C58.1989 109.645 55.4417 129.202 42.0003 129.403" stroke="#1877F2" stroke-width="3" stroke-linecap="round" stroke-linejoin="round"></path></g></g><g filter="url(#filter4_d_37760_54934)"><rect x="160" y="25" width="97" height="126" rx="10" fill="white"></rect></g><mask id="mask2_37760_54934" maskUnits="userSpaceOnUse" x="160" y="25" width="97" height="126" style="mask-type: alpha;"><rect x="160" y="25" width="97" height="126" rx="10" fill="white"></rect></mask><g mask="url(#mask2_37760_54934)"><circle cx="208.5" cy="54.5" r="17.5" fill="black"></circle><path d="M198.038 59.7724C198.101 59.6712 198.202 59.6649 198.341 59.7534C201.495 61.5874 204.928 62.5044 208.637 62.5044C211.111 62.5044 213.552 62.0427 215.962 61.1194C216.026 61.0941 216.117 61.0562 216.237 61.0056C216.357 60.955 216.442 60.917 216.492 60.8917C216.682 60.8158 216.83 60.8538 216.937 61.0056C217.044 61.1573 217.01 61.2965 216.833 61.4229C216.606 61.5874 216.316 61.7771 215.962 61.9921C214.877 62.6372 213.666 63.1367 212.328 63.4909C210.991 63.8451 209.685 64.0221 208.41 64.0221C206.442 64.0221 204.581 63.6775 202.827 62.9881C201.073 62.2988 199.502 61.3281 198.114 60.0759C198.038 60.0127 198 59.9494 198 59.8862C198 59.8483 198.013 59.8103 198.038 59.7724ZM203.735 54.3653C203.735 53.4926 203.95 52.7464 204.379 52.1266C204.808 51.5069 205.394 51.0389 206.139 50.7227C206.82 50.4318 207.659 50.2231 208.656 50.0966C208.997 50.0587 209.552 50.0081 210.322 49.9448V49.6223C210.322 48.8128 210.234 48.269 210.057 47.9907C209.792 47.6113 209.376 47.4216 208.808 47.4216H208.656C208.24 47.4595 207.88 47.5923 207.577 47.82C207.275 48.0476 207.079 48.3638 206.991 48.7686C206.94 49.0215 206.814 49.167 206.612 49.2049L204.435 48.9393C204.221 48.8887 204.114 48.7749 204.114 48.5978C204.114 48.5599 204.12 48.5156 204.133 48.465C204.347 47.3394 204.874 46.5046 205.713 45.9607C206.552 45.4168 207.533 45.1133 208.656 45.05H209.13C210.568 45.05 211.691 45.4232 212.499 46.1694C212.625 46.2965 212.742 46.4328 212.849 46.5773C212.956 46.7228 213.041 46.8524 213.104 46.9662C213.167 47.0801 213.224 47.2445 213.275 47.4595C213.325 47.6745 213.363 47.8231 213.388 47.9053C213.413 47.9876 213.432 48.1646 213.445 48.4366C213.458 48.7085 213.464 48.8698 213.464 48.9204V53.5116C213.464 53.8404 213.511 54.1408 213.606 54.4128C213.701 54.6847 213.792 54.8807 213.88 55.0009C213.969 55.121 214.114 55.3139 214.316 55.5795C214.391 55.6934 214.429 55.7946 214.429 55.8831C214.429 55.9843 214.379 56.0728 214.278 56.1487C213.231 57.0594 212.663 57.5526 212.574 57.6285C212.423 57.7424 212.24 57.755 212.025 57.6665C211.849 57.5147 211.694 57.3692 211.562 57.2301C211.429 57.091 211.335 56.9898 211.278 56.9266C211.221 56.8633 211.13 56.74 211.003 56.5566C210.877 56.3732 210.789 56.2499 210.738 56.1867C210.032 56.9582 209.338 57.4388 208.656 57.6285C208.227 57.755 207.697 57.8183 207.066 57.8183C206.095 57.8183 205.297 57.5179 204.672 56.9171C204.047 56.3163 203.735 55.4657 203.735 54.3653ZM206.991 53.9859C206.991 54.4792 207.114 54.8744 207.36 55.1716C207.606 55.4689 207.937 55.6175 208.353 55.6175C208.391 55.6175 208.445 55.6112 208.514 55.5985C208.584 55.5859 208.631 55.5795 208.656 55.5795C209.186 55.4404 209.596 55.0989 209.887 54.5551C210.025 54.3147 210.13 54.0523 210.199 53.7677C210.268 53.4831 210.306 53.2523 210.312 53.0752C210.319 52.8982 210.322 52.6073 210.322 52.2025V51.7282C209.59 51.7282 209.035 51.7788 208.656 51.88C207.546 52.1962 206.991 52.8982 206.991 53.9859ZM214.94 60.0949C214.966 60.0443 215.003 59.9937 215.054 59.9431C215.369 59.7281 215.672 59.5827 215.962 59.5068C216.442 59.3803 216.909 59.3107 217.363 59.2981C217.489 59.2854 217.609 59.2918 217.723 59.317C218.291 59.3676 218.631 59.4625 218.745 59.6016C218.795 59.6775 218.821 59.7913 218.821 59.9431V60.0759C218.821 60.5186 218.701 61.0403 218.461 61.6411C218.221 62.2419 217.887 62.7257 217.458 63.0925C217.395 63.1431 217.338 63.1684 217.287 63.1684C217.262 63.1684 217.237 63.1621 217.212 63.1494C217.136 63.1115 217.117 63.0419 217.155 62.9407C217.622 61.8403 217.855 61.0751 217.855 60.6451C217.855 60.506 217.83 60.4048 217.779 60.3415C217.653 60.1898 217.3 60.1139 216.72 60.1139C216.505 60.1139 216.253 60.1265 215.962 60.1518C215.647 60.1898 215.357 60.2277 215.092 60.2656C215.016 60.2656 214.966 60.253 214.94 60.2277C214.915 60.2024 214.909 60.1771 214.921 60.1518C214.921 60.1392 214.928 60.1202 214.94 60.0949Z" fill="white"></path><path d="M198.038 59.7712C198.101 59.67 198.202 59.6636 198.341 59.7522C201.495 61.5862 204.928 62.5031 208.637 62.5031C211.111 62.5031 213.552 62.0415 215.962 61.1182C216.026 61.0929 216.117 61.0549 216.237 61.0043C216.357 60.9537 216.442 60.9158 216.492 60.8905C216.682 60.8146 216.83 60.8526 216.937 61.0043C217.044 61.1561 217.01 61.2952 216.833 61.4217C216.606 61.5862 216.316 61.7759 215.962 61.9909C214.877 62.6359 213.666 63.1355 212.328 63.4897C210.991 63.8438 209.685 64.0209 208.41 64.0209C206.442 64.0209 204.581 63.6762 202.827 62.9869C201.073 62.2976 199.502 61.3269 198.114 60.0747C198.038 60.0115 198 59.9482 198 59.885C198 59.847 198.013 59.8091 198.038 59.7712ZM214.94 60.0937C214.966 60.0431 215.003 59.9925 215.054 59.9419C215.369 59.7269 215.672 59.5814 215.962 59.5055C216.442 59.3791 216.909 59.3095 217.363 59.2969C217.489 59.2842 217.609 59.2905 217.723 59.3158C218.291 59.3664 218.631 59.4613 218.745 59.6004C218.795 59.6763 218.821 59.7901 218.821 59.9419V60.0747C218.821 60.5174 218.701 61.0391 218.461 61.6399C218.221 62.2407 217.887 62.7245 217.458 63.0913C217.395 63.1419 217.338 63.1672 217.287 63.1672C217.262 63.1672 217.237 63.1608 217.212 63.1482C217.136 63.1102 217.117 63.0407 217.155 62.9395C217.622 61.8391 217.855 61.0739 217.855 60.6439C217.855 60.5047 217.83 60.4036 217.779 60.3403C217.653 60.1885 217.3 60.1127 216.72 60.1127C216.505 60.1127 216.253 60.1253 215.962 60.1506C215.647 60.1885 215.357 60.2265 215.092 60.2644C215.016 60.2644 214.966 60.2518 214.94 60.2265C214.915 60.2012 214.909 60.1759 214.921 60.1506C214.921 60.1379 214.928 60.119 214.94 60.0937Z" fill="#FF9900"></path><g filter="url(#filter5_d_37760_54934)"><path d="M260.57 96C256.07 98.8889 247.57 112.5 237.372 104C228.57 99.5 228.411 115.895 221.173 115.895C213.936 115.895 212.212 107.427 205.319 107.427C198.426 107.427 191.878 122.145 181.538 115.895C171.199 109.645 168.442 129.202 155 129.403" stroke="#FF9900" stroke-width="3" stroke-linecap="round" stroke-linejoin="round"></path></g></g><g filter="url(#filter6_d_37760_54934)"><rect x="273" y="25" width="97" height="126" rx="10" fill="white"></rect></g><mask id="mask3_37760_54934" maskUnits="userSpaceOnUse" x="273" y="25" width="97" height="126" style="mask-type: alpha;"><rect x="273" y="25" width="97" height="126" rx="10" fill="white"></rect></mask><g mask="url(#mask3_37760_54934)"><circle cx="321.5" cy="54.5" r="17" fill="white" stroke="#DBDCE0"></circle><g clip-path="url(#clip0_37760_54934)"><path d="M333.622 54.7814C333.622 53.9487 333.554 53.1115 333.41 52.2922H321.852V57.0095H328.471C328.196 58.5309 327.314 59.8767 326.021 60.732V63.7928H329.97C332.289 61.6592 333.622 58.5084 333.622 54.7814Z" fill="#4285F4"></path><path d="M321.852 66.75C325.157 66.75 327.945 65.6652 329.975 63.7928L326.026 60.7319C324.928 61.4791 323.509 61.9023 321.857 61.9023C318.66 61.9023 315.949 59.7462 314.976 56.8474H310.901V60.0027C312.982 64.1393 317.219 66.75 321.852 66.75Z" fill="#34A853"></path><path d="M314.972 56.8473C314.458 55.3259 314.458 53.6784 314.972 52.157V49.0017H310.901C309.163 52.4631 309.163 56.5412 310.901 60.0026L314.972 56.8473Z" fill="#FBBC04"></path><path d="M321.852 47.0979C323.599 47.0709 325.288 47.728 326.553 48.9344L330.052 45.4369C327.837 43.3574 324.896 42.2141 321.852 42.2501C317.219 42.2501 312.982 44.8608 310.901 49.0019L314.972 52.1572C315.94 49.254 318.655 47.0979 321.852 47.0979Z" fill="#EA4335"></path></g><g filter="url(#filter7_d_37760_54934)"><path d="M373.57 96C369.07 98.8889 360.57 112.5 350.372 104C341.57 99.5 341.411 115.895 334.173 115.895C326.936 115.895 325.212 107.427 318.319 107.427C311.426 107.427 304.878 122.145 294.538 115.895C284.199 109.645 281.442 129.202 268 129.403" stroke="#4285F4" stroke-width="3" stroke-linecap="round" stroke-linejoin="round"></path></g></g><g filter="url(#filter8_d_37760_54934)"><rect x="386" y="25" width="97" height="126" rx="10" fill="white"></rect></g><mask id="mask4_37760_54934" maskUnits="userSpaceOnUse" x="386" y="25" width="97" height="126" style="mask-type: alpha;"><rect x="386" y="25" width="97" height="126" rx="10" fill="white"></rect></mask><g mask="url(#mask4_37760_54934)"><g filter="url(#filter9_d_37760_54934)"><path d="M486.57 96C482.07 98.8889 473.57 112.5 463.372 104C454.57 99.5 454.411 115.895 447.173 115.895C439.936 115.895 438.212 107.427 431.319 107.427C424.426 107.427 417.878 122.145 407.538 115.895C397.199 109.645 394.442 129.202 381 129.403" stroke="#999999" stroke-width="3" stroke-linecap="round" stroke-linejoin="round"></path></g></g><defs><filter id="filter0_d_37760_54934" x="-91" y="0" width="147" height="176" filterUnits="userSpaceOnUse" color-interpolation-filters="sRGB"><feFlood flood-opacity="0" result="BackgroundImageFix"></feFlood><feColorMatrix in="SourceAlpha" type="matrix" values="0 0 0 0 0 0 0 0 0 0 0 0 0 0 0 0 0 0 127 0" result="hardAlpha"></feColorMatrix><feOffset></feOffset><feGaussianBlur stdDeviation="12.5"></feGaussianBlur><feColorMatrix type="matrix" values="0 0 0 0 0 0 0 0 0 0 0 0 0 0 0 0 0 0 0.06 0"></feColorMatrix><feBlend mode="normal" in2="BackgroundImageFix" result="effect1_dropShadow_37760_54934"></feBlend><feBlend mode="normal" in="SourceGraphic" in2="effect1_dropShadow_37760_54934" result="shape"></feBlend></filter><filter id="filter1_d_37760_54934" x="-76.5" y="94.4998" width="116.57" height="55.4033" filterUnits="userSpaceOnUse" color-interpolation-filters="sRGB"><feFlood flood-opacity="0" result="BackgroundImageFix"></feFlood><feColorMatrix in="SourceAlpha" type="matrix" values="0 0 0 0 0 0 0 0 0 0 0 0 0 0 0 0 0 0 127 0" result="hardAlpha"></feColorMatrix><feOffset dy="15"></feOffset><feGaussianBlur stdDeviation="2"></feGaussianBlur><feColorMatrix type="matrix" values="0 0 0 0 0.909804 0 0 0 0 0.129412 0 0 0 0 0.152941 0 0 0 0.3 0"></feColorMatrix><feBlend mode="normal" in2="BackgroundImageFix" result="effect1_dropShadow_37760_54934"></feBlend><feBlend mode="normal" in="SourceGraphic" in2="effect1_dropShadow_37760_54934" result="shape"></feBlend></filter><filter id="filter2_d_37760_54934" x="22" y="0" width="147" height="176" filterUnits="userSpaceOnUse" color-interpolation-filters="sRGB"><feFlood flood-opacity="0" result="BackgroundImageFix"></feFlood><feColorMatrix in="SourceAlpha" type="matrix" values="0 0 0 0 0 0 0 0 0 0 0 0 0 0 0 0 0 0 127 0" result="hardAlpha"></feColorMatrix><feOffset></feOffset><feGaussianBlur stdDeviation="12.5"></feGaussianBlur><feColorMatrix type="matrix" values="0 0 0 0 0 0 0 0 0 0 0 0 0 0 0 0 0 0 0.06 0"></feColorMatrix><feBlend mode="normal" in2="BackgroundImageFix" result="effect1_dropShadow_37760_54934"></feBlend><feBlend mode="normal" in="SourceGraphic" in2="effect1_dropShadow_37760_54934" result="shape"></feBlend></filter><filter id="filter3_d_37760_54934" x="36.5" y="94.4998" width="116.57" height="55.4033" filterUnits="userSpaceOnUse" color-interpolation-filters="sRGB"><feFlood flood-opacity="0" result="BackgroundImageFix"></feFlood><feColorMatrix in="SourceAlpha" type="matrix" values="0 0 0 0 0 0 0 0 0 0 0 0 0 0 0 0 0 0 127 0" result="hardAlpha"></feColorMatrix><feOffset dy="15"></feOffset><feGaussianBlur stdDeviation="2"></feGaussianBlur><feColorMatrix type="matrix" values="0 0 0 0 0.0941176 0 0 0 0 0.466667 0 0 0 0 0.94902 0 0 0 0.3 0"></feColorMatrix><feBlend mode="normal" in2="BackgroundImageFix" result="effect1_dropShadow_37760_54934"></feBlend><feBlend mode="normal" in="SourceGraphic" in2="effect1_dropShadow_37760_54934" result="shape"></feBlend></filter><filter id="filter4_d_37760_54934" x="135" y="0" width="147" height="176" filterUnits="userSpaceOnUse" color-interpolation-filters="sRGB"><feFlood flood-opacity="0" result="BackgroundImageFix"></feFlood><feColorMatrix in="SourceAlpha" type="matrix" values="0 0 0 0 0 0 0 0 0 0 0 0 0 0 0 0 0 0 127 0" result="hardAlpha"></feColorMatrix><feOffset></feOffset><feGaussianBlur stdDeviation="12.5"></feGaussianBlur><feColorMatrix type="matrix" values="0 0 0 0 0 0 0 0 0 0 0 0 0 0 0 0 0 0 0.06 0"></feColorMatrix><feBlend mode="normal" in2="BackgroundImageFix" result="effect1_dropShadow_37760_54934"></feBlend><feBlend mode="normal" in="SourceGraphic" in2="effect1_dropShadow_37760_54934" result="shape"></feBlend></filter><filter id="filter5_d_37760_54934" x="149.5" y="94.4998" width="116.57" height="55.4033" filterUnits="userSpaceOnUse" color-interpolation-filters="sRGB"><feFlood flood-opacity="0" result="BackgroundImageFix"></feFlood><feColorMatrix in="SourceAlpha" type="matrix" values="0 0 0 0 0 0 0 0 0 0 0 0 0 0 0 0 0 0 127 0" result="hardAlpha"></feColorMatrix><feOffset dy="15"></feOffset><feGaussianBlur stdDeviation="2"></feGaussianBlur><feColorMatrix type="matrix" values="0 0 0 0 1 0 0 0 0 0.6 0 0 0 0 0 0 0 0 0.3 0"></feColorMatrix><feBlend mode="normal" in2="BackgroundImageFix" result="effect1_dropShadow_37760_54934"></feBlend><feBlend mode="normal" in="SourceGraphic" in2="effect1_dropShadow_37760_54934" result="shape"></feBlend></filter><filter id="filter6_d_37760_54934" x="248" y="0" width="147" height="176" filterUnits="userSpaceOnUse" color-interpolation-filters="sRGB"><feFlood flood-opacity="0" result="BackgroundImageFix"></feFlood><feColorMatrix in="SourceAlpha" type="matrix" values="0 0 0 0 0 0 0 0 0 0 0 0 0 0 0 0 0 0 127 0" result="hardAlpha"></feColorMatrix><feOffset></feOffset><feGaussianBlur stdDeviation="12.5"></feGaussianBlur><feColorMatrix type="matrix" values="0 0 0 0 0 0 0 0 0 0 0 0 0 0 0 0 0 0 0.06 0"></feColorMatrix><feBlend mode="normal" in2="BackgroundImageFix" result="effect1_dropShadow_37760_54934"></feBlend><feBlend mode="normal" in="SourceGraphic" in2="effect1_dropShadow_37760_54934" result="shape"></feBlend></filter><filter id="filter7_d_37760_54934" x="262.5" y="94.4998" width="116.57" height="55.4033" filterUnits="userSpaceOnUse" color-interpolation-filters="sRGB"><feFlood flood-opacity="0" result="BackgroundImageFix"></feFlood><feColorMatrix in="SourceAlpha" type="matrix" values="0 0 0 0 0 0 0 0 0 0 0 0 0 0 0 0 0 0 127 0" result="hardAlpha"></feColorMatrix><feOffset dy="15"></feOffset><feGaussianBlur stdDeviation="2"></feGaussianBlur><feColorMatrix type="matrix" values="0 0 0 0 0.258824 0 0 0 0 0.521569 0 0 0 0 0.956863 0 0 0 0.3 0"></feColorMatrix><feBlend mode="normal" in2="BackgroundImageFix" result="effect1_dropShadow_37760_54934"></feBlend><feBlend mode="normal" in="SourceGraphic" in2="effect1_dropShadow_37760_54934" result="shape"></feBlend></filter><filter id="filter8_d_37760_54934" x="361" y="0" width="147" height="176" filterUnits="userSpaceOnUse" color-interpolation-filters="sRGB"><feFlood flood-opacity="0" result="BackgroundImageFix"></feFlood><feColorMatrix in="SourceAlpha" type="matrix" values="0 0 0 0 0 0 0 0 0 0 0 0 0 0 0 0 0 0 127 0" result="hardAlpha"></feColorMatrix><feOffset></feOffset><feGaussianBlur stdDeviation="12.5"></feGaussianBlur><feColorMatrix type="matrix" values="0 0 0 0 0 0 0 0 0 0 0 0 0 0 0 0 0 0 0.06 0"></feColorMatrix><feBlend mode="normal" in2="BackgroundImageFix" result="effect1_dropShadow_37760_54934"></feBlend><feBlend mode="normal" in="SourceGraphic" in2="effect1_dropShadow_37760_54934" result="shape"></feBlend></filter><filter id="filter9_d_37760_54934" x="375.5" y="94.4998" width="116.57" height="55.4033" filterUnits="userSpaceOnUse" color-interpolation-filters="sRGB"><feFlood flood-opacity="0" result="BackgroundImageFix"></feFlood><feColorMatrix in="SourceAlpha" type="matrix" values="0 0 0 0 0 0 0 0 0 0 0 0 0 0 0 0 0 0 127 0" result="hardAlpha"></feColorMatrix><feOffset dy="15"></feOffset><feGaussianBlur stdDeviation="2"></feGaussianBlur><feColorMatrix type="matrix" values="0 0 0 0 0.6 0 0 0 0 0.6 0 0 0 0 0.6 0 0 0 0.3 0"></feColorMatrix><feBlend mode="normal" in2="BackgroundImageFix" result="effect1_dropShadow_37760_54934"></feBlend><feBlend mode="normal" in="SourceGraphic" in2="effect1_dropShadow_37760_54934" result="shape"></feBlend></filter><clipPath id="clip0_37760_54934"><rect width="24.0227" height="24.5" fill="white" transform="translate(309.6 42.25)"></rect></clipPath></defs></svg>