<svg viewBox="0 0 12 14" fill="none" xmlns="http://www.w3.org/2000/svg"><mask id="path-1-inside-1_37825_10056" fill="white"><path fill-rule="evenodd" clip-rule="evenodd" d="M9.97072 0.666506H2.09801C1.69699 0.665831 1.31211 0.815052 1.02804 1.08134C0.743962 1.34763 0.583969 1.70918 0.583252 2.08645V11.6596C0.59468 12.4372 1.25806 13.0669 2.08449 13.0846H9.90175C10.3028 13.0853 10.6877 12.9361 10.9717 12.6698C11.2558 12.4035 11.4158 12.042 11.4165 11.6647V2.05464C11.4205 1.69019 11.2704 1.33919 10.9992 1.07886C10.7281 0.818528 10.3581 0.670199 9.97072 0.666506ZM2.24959 3.73992C2.24959 3.49063 2.45169 3.28853 2.70098 3.28853H9.2982C9.5475 3.28853 9.74959 3.49063 9.74959 3.73992C9.74959 3.98922 9.5475 4.19131 9.2982 4.19131H2.70098C2.45169 4.19131 2.24959 3.98922 2.24959 3.73992ZM2.70133 5.59639C2.45203 5.59639 2.24994 5.79849 2.24994 6.04778C2.24994 6.29708 2.45203 6.49917 2.70133 6.49917H6.79855C7.04785 6.49917 7.24994 6.29708 7.24994 6.04778C7.24994 5.79849 7.04784 5.59639 6.79855 5.59639H2.70133Z"></path></mask><path fill-rule="evenodd" clip-rule="evenodd" d="M9.97072 0.666506H2.09801C1.69699 0.665831 1.31211 0.815052 1.02804 1.08134C0.743962 1.34763 0.583969 1.70918 0.583252 2.08645V11.6596C0.59468 12.4372 1.25806 13.0669 2.08449 13.0846H9.90175C10.3028 13.0853 10.6877 12.9361 10.9717 12.6698C11.2558 12.4035 11.4158 12.042 11.4165 11.6647V2.05464C11.4205 1.69019 11.2704 1.33919 10.9992 1.07886C10.7281 0.818528 10.3581 0.670199 9.97072 0.666506ZM2.24959 3.73992C2.24959 3.49063 2.45169 3.28853 2.70098 3.28853H9.2982C9.5475 3.28853 9.74959 3.49063 9.74959 3.73992C9.74959 3.98922 9.5475 4.19131 9.2982 4.19131H2.70098C2.45169 4.19131 2.24959 3.98922 2.24959 3.73992ZM2.70133 5.59639C2.45203 5.59639 2.24994 5.79849 2.24994 6.04778C2.24994 6.29708 2.45203 6.49917 2.70133 6.49917H6.79855C7.04785 6.49917 7.24994 6.29708 7.24994 6.04778C7.24994 5.79849 7.04784 5.59639 6.79855 5.59639H2.70133Z" fill="#1DCBEF"></path><path d="M2.09801 0.666506L2.09633 1.66651H2.09801V0.666506ZM9.97072 0.666506L9.98026 -0.333494H9.97072V0.666506ZM0.583252 2.08645L-0.416748 2.08455V2.08645H0.583252ZM0.583252 11.6596H-0.416748V11.667L-0.41664 11.6743L0.583252 11.6596ZM2.08449 13.0846L2.06305 14.0844L2.07377 14.0846H2.08449V13.0846ZM9.90175 13.0846L9.90343 12.0846H9.90175V13.0846ZM10.9717 12.6698L11.6556 13.3994L11.6556 13.3994L10.9717 12.6698ZM11.4165 11.6647L12.4165 11.6666V11.6647H11.4165ZM11.4165 2.05464L10.4165 2.04376V2.05464H11.4165ZM10.9992 1.07886L10.3067 1.8002L10.3067 1.8002L10.9992 1.07886ZM2.09801 1.66651H9.97072V-0.333494H2.09801V1.66651ZM1.71194 1.81092C1.80417 1.72445 1.94149 1.66624 2.09633 1.6665L2.0997 -0.333492C1.4525 -0.334583 0.820042 -0.0943493 0.344132 0.351771L1.71194 1.81092ZM1.58325 2.08835C1.58342 1.99668 1.62177 1.89544 1.71194 1.81092L0.344132 0.351771C-0.133848 0.79983 -0.415487 1.42169 -0.416746 2.08455L1.58325 2.08835ZM1.58325 11.6596V2.08645H-0.416748V11.6596H1.58325ZM2.10593 12.0849C1.76231 12.0775 1.58587 11.8307 1.58314 11.6449L-0.41664 11.6743C-0.396514 13.0437 0.753811 14.0563 2.06305 14.0844L2.10593 12.0849ZM9.90175 12.0846H2.08449V14.0846H9.90175V12.0846ZM10.2878 11.9402C10.1956 12.0267 10.0583 12.0849 9.90343 12.0846L9.90006 14.0846C10.5473 14.0857 11.1797 13.8455 11.6556 13.3994L10.2878 11.9402ZM10.4165 11.6628C10.4163 11.7545 10.378 11.8557 10.2878 11.9402L11.6556 13.3994C12.1336 12.9513 12.4152 12.3295 12.4165 11.6666L10.4165 11.6628ZM10.4165 2.05464V11.6647H12.4165V2.05464H10.4165ZM10.3067 1.8002C10.3857 1.87611 10.4174 1.96496 10.4166 2.04376L12.4164 2.06552C12.4235 1.41542 12.155 0.802269 11.6918 0.357515L10.3067 1.8002ZM9.96119 1.66646C10.1024 1.66781 10.2255 1.72231 10.3067 1.8002L11.6918 0.357516C11.2307 -0.0852496 10.6139 -0.327408 9.98026 -0.333448L9.96119 1.66646ZM2.70098 2.28853C1.8994 2.28853 1.24959 2.93834 1.24959 3.73992H3.24959C3.24959 4.04291 3.00397 4.28853 2.70098 4.28853V2.28853ZM9.2982 2.28853H2.70098V4.28853H9.2982V2.28853ZM10.7496 3.73992C10.7496 2.93834 10.0998 2.28853 9.2982 2.28853V4.28853C8.99522 4.28853 8.74959 4.04291 8.74959 3.73992H10.7496ZM9.2982 5.19131C10.0998 5.19131 10.7496 4.5415 10.7496 3.73992H8.74959C8.74959 3.43693 8.99521 3.19131 9.2982 3.19131V5.19131ZM2.70098 5.19131H9.2982V3.19131H2.70098V5.19131ZM1.24959 3.73992C1.24959 4.5415 1.8994 5.19131 2.70098 5.19131V3.19131C3.00397 3.19131 3.24959 3.43693 3.24959 3.73992H1.24959ZM3.24994 6.04778C3.24994 6.35077 3.00432 6.59639 2.70133 6.59639V4.59639C1.89975 4.59639 1.24994 5.2462 1.24994 6.04778H3.24994ZM2.70133 5.49917C3.00432 5.49917 3.24994 5.74479 3.24994 6.04778H1.24994C1.24994 6.84937 1.89975 7.49917 2.70133 7.49917V5.49917ZM6.79855 5.49917H2.70133V7.49917H6.79855V5.49917ZM6.24994 6.04778C6.24994 5.74479 6.49556 5.49917 6.79855 5.49917V7.49917C7.60013 7.49917 8.24994 6.84936 8.24994 6.04778H6.24994ZM6.79855 6.59639C6.49556 6.59639 6.24994 6.35077 6.24994 6.04778H8.24994C8.24994 5.2462 7.60013 4.59639 6.79855 4.59639V6.59639ZM2.70133 6.59639H6.79855V4.59639H2.70133V6.59639Z" fill="#1DCBEF" mask="url(#path-1-inside-1_37825_10056)"></path></svg>