<svg viewBox="0 0 10 12" fill="currentColor" xmlns="http://www.w3.org/2000/svg"><path fill-rule="evenodd" clip-rule="evenodd" d="M2.55081 3.57609V3.10507C2.55081 1.8044 3.60521 0.75 4.90588 0.75C6.20655 0.75 7.26095 1.8044 7.26095 3.10507V3.57609H8.00094C8.39876 3.57609 8.54302 3.61751 8.68845 3.69529C8.83389 3.77307 8.94803 3.88721 9.02581 4.03264C9.10359 4.17808 9.14501 4.32234 9.14501 4.72015V10.4393C9.14501 10.8371 9.10359 10.9813 9.02581 11.1268C8.94803 11.2722 8.83389 11.3864 8.68845 11.4641C8.54302 11.5419 8.39876 11.5833 8.00094 11.5833H1.81082C1.413 11.5833 1.26874 11.5419 1.1233 11.4641C0.977868 11.3864 0.863729 11.2722 0.785949 11.1268C0.708169 10.9813 0.666748 10.8371 0.666748 10.4393V4.72015C0.666748 4.32234 0.708169 4.17808 0.785949 4.03264C0.863729 3.88721 0.977868 3.77307 1.1233 3.69529C1.26874 3.61751 1.413 3.57609 1.81082 3.57609H2.55081ZM6.31827 3.5762V3.10518C6.31827 2.32478 5.68563 1.69214 4.90523 1.69214C4.12483 1.69214 3.49219 2.32478 3.49219 3.10518V3.5762H6.31827Z" fill="currentColor"></path></svg>