<svg viewBox="0 0 12 12" fill="currentColor" xmlns="http://www.w3.org/2000/svg"><path d="M2.45171 11.5833H9.54813C10.7855 11.5833 11.4166 10.9585 11.4166 9.73344V2.59371C11.4166 1.37488 10.7855 0.75 9.54813 0.75H2.45171C1.21432 0.75 0.583252 1.36869 0.583252 2.59371V9.73344C0.583252 10.9585 1.21432 11.5833 2.45171 11.5833ZM5.87927 7.39477C5.54518 7.39477 5.35957 7.22773 5.35957 6.89982V6.82558C5.35957 6.244 5.68129 5.92847 6.11438 5.62531C6.64027 5.26028 6.89393 5.0623 6.89393 4.66633C6.89393 4.22706 6.54746 3.93009 6.02776 3.93009C5.63798 3.93009 5.36576 4.12188 5.16778 4.4436C4.96979 4.66015 4.90792 4.84575 4.56145 4.84575C4.33254 4.84575 4.10362 4.68489 4.10362 4.40648C4.10362 4.3013 4.12837 4.19613 4.16549 4.09714C4.33873 3.53412 5.02548 3.05773 6.07107 3.05773C7.11666 3.05773 8.01995 3.60837 8.01995 4.61684C8.01995 5.33452 7.61162 5.68718 7.01767 6.07077C6.60933 6.34299 6.40516 6.55335 6.39898 6.88744C6.39898 6.90601 6.39898 6.93075 6.39898 6.9555C6.39279 7.20298 6.19481 7.39477 5.87927 7.39477ZM5.8669 9.21373C5.50187 9.21373 5.19252 8.93532 5.19252 8.57648C5.19252 8.21764 5.49568 7.93304 5.8669 7.93304C6.23812 7.93304 6.54746 8.21145 6.54746 8.57648C6.54746 8.94151 6.23193 9.21373 5.8669 9.21373Z" fill="currentColor"></path></svg>