<svg viewBox="0 0 13 11" fill="#CACACA" xmlns="http://www.w3.org/2000/svg"><path d="M12.9951 1.43767C12.9951 1.31583 12.9854 1.194 12.9561 1.07703C12.7855 0.40937 12.2396 0 11.5279 0C8.17437 0 4.8208 0 1.46723 0C1.44285 0 1.41848 0 1.39899 0C1.29662 0.00487346 1.19426 0.0146204 1.09677 0.0341142C0.438734 0.190065 -0.0048346 0.784627 3.97744e-05 1.45229C0.00978853 3.26034 0.00491415 5.06352 0.00491415 6.87158C0.00491415 7.53437 0.00491415 8.19716 0.00978853 8.85507C0.00978853 9.14261 0.11215 9.39603 0.282754 9.62021C0.584965 10.015 0.989538 10.1904 1.48672 10.1904C3.15376 10.1855 4.82567 10.1904 6.49271 10.1904C8.01839 10.1904 9.54894 10.1904 11.0746 10.1904C11.2598 10.1904 11.4499 10.1953 11.6352 10.1855C12.3566 10.1514 12.8928 9.64945 12.9854 8.95742C12.9951 8.88919 13 8.82583 13 8.75273C13 6.316 13 3.87927 12.9951 1.43767Z" fill="#40196D"></path><path d="M10.7395 3.63623H7.44929C7.31769 3.63623 7.21045 3.74345 7.21045 3.87503C7.21045 4.00661 7.31769 4.11383 7.44929 4.11383H10.7395C10.8711 4.11383 10.9783 4.00661 10.9783 3.87503C10.9783 3.74345 10.8711 3.63623 10.7395 3.63623Z" fill="white"></path><path d="M10.74 4.854H7.44978C7.31817 4.854 7.21094 4.96122 7.21094 5.0928C7.21094 5.22438 7.31817 5.3316 7.44978 5.3316H10.74C10.8716 5.3316 10.9788 5.22438 10.9788 5.0928C10.9788 4.96122 10.8716 4.854 10.74 4.854Z" fill="white"></path><path d="M10.74 6.07275H7.44978C7.31817 6.07275 7.21094 6.17997 7.21094 6.31155C7.21094 6.44314 7.31817 6.55035 7.44978 6.55035H10.74C10.8716 6.55035 10.9788 6.44314 10.9788 6.31155C10.9788 6.17997 10.8716 6.07275 10.74 6.07275Z" fill="white"></path><path d="M4.24167 5.05936C3.38378 4.98138 2.55027 5.4736 2.20419 6.25336C2.03846 6.62374 2.01896 7.01362 2.02383 7.40837C2.02871 7.68128 2.14569 7.80312 2.41866 7.80312C2.95484 7.80312 3.49102 7.80312 4.0272 7.80312C4.57801 7.80312 5.13369 7.80312 5.68449 7.80312C5.88921 7.80312 6.04032 7.69103 6.04032 7.51071C6.04032 7.21343 6.05007 6.9064 5.99158 6.61399C5.82097 5.77576 5.08982 5.13734 4.24167 5.05936Z" fill="white"></path><path d="M4.02253 4.74267C4.67569 4.74755 5.21187 4.22121 5.21675 3.56817C5.22162 2.92487 4.69519 2.39367 4.04202 2.38392C3.40348 2.37417 2.86243 2.91513 2.85755 3.55842C2.8478 4.1871 3.38886 4.7378 4.02253 4.74267Z" fill="white"></path></svg>