<svg viewBox="0 0 12 12" fill="currentColor" xmlns="http://www.w3.org/2000/svg"><path d="M6.00008 0.75C8.99887 0.75 11.4167 3.16787 11.4167 6.16667C11.4167 9.16546 8.99887 11.5833 6.00008 11.5833C3.00129 11.5833 0.583414 9.16546 0.583414 6.16667C0.583414 3.16787 3.00129 0.75 6.00008 0.75ZM6.00008 7.25C6.40829 7.25 6.738 6.92029 6.738 6.51208C6.738 6.41787 6.7223 6.33937 6.6909 6.26087L7.68003 5.27174L7.24042 4.83213L6.25129 5.82126C6.17279 5.78986 6.09428 5.77415 6.00008 5.77415C5.59187 5.77415 5.26216 6.10387 5.26216 6.51208C5.26216 6.92029 5.59187 7.25 6.00008 7.25ZM2.46747 6.08816C2.46747 4.1256 4.03752 2.61836 6.00008 2.61836C7.96264 2.61836 9.53269 4.1256 9.53269 6.08816H10.1607C10.1607 3.78019 8.30805 1.99034 6.00008 1.99034C3.69211 1.99034 1.83945 3.78019 1.83945 6.08816H2.46747Z" fill="#1dcf9f"></path></svg>