<svg viewBox="0 0 11 11" fill="currentColor" xmlns="http://www.w3.org/2000/svg"><path d="M2.30798 10.8818H8.85852C10.0007 10.8818 10.5833 10.305 10.5833 9.17424V2.58372C10.5833 1.45865 10.0007 0.881836 8.85852 0.881836H2.30798C1.16578 0.881836 0.583252 1.45294 0.583252 2.58372V9.17424C0.583252 10.305 1.16578 10.8818 2.30798 10.8818ZM5.47189 7.01547C5.16349 7.01547 4.99216 6.86128 4.99216 6.55859V6.49006C4.99216 5.95322 5.28913 5.66196 5.68891 5.38212C6.17434 5.04517 6.40849 4.86242 6.40849 4.49691C6.40849 4.09143 6.08868 3.8173 5.60895 3.8173C5.24916 3.8173 4.99787 3.99434 4.81512 4.29132C4.63237 4.4912 4.57526 4.66253 4.25544 4.66253C4.04413 4.66253 3.83282 4.51405 3.83282 4.25705C3.83282 4.15996 3.85567 4.06288 3.88993 3.9715C4.04984 3.4518 4.68377 3.01205 5.64893 3.01205C6.61409 3.01205 7.4479 3.52033 7.4479 4.45123C7.4479 5.1137 7.07097 5.43923 6.52272 5.79332C6.14579 6.0446 5.95732 6.23877 5.95161 6.54717C5.95161 6.5643 5.95161 6.58715 5.95161 6.60999C5.9459 6.83843 5.76315 7.01547 5.47189 7.01547ZM5.46047 8.69451C5.12352 8.69451 4.83796 8.43752 4.83796 8.10628C4.83796 7.77504 5.1178 7.51233 5.46047 7.51233C5.80313 7.51233 6.08868 7.76933 6.08868 8.10628C6.08868 8.44323 5.79742 8.69451 5.46047 8.69451Z" fill="currentColor"></path></svg>