<svg viewBox="0 0 12 12" fill="currentColor" xmlns="http://www.w3.org/2000/svg"><path d="M6 12C9.29052 12 11.9939 9.29664 11.9939 6C11.9939 2.70336 9.29052 0 5.99388 0C2.70336 0 0 2.70336 0 6C0 9.29664 2.70336 12 6 12ZM6 2.39755C7.14985 2.39755 8.06728 3.42508 8.06728 4.64832C8.06728 5.95107 7.1682 6.94801 6 6.94801C4.82569 6.9419 3.92661 5.95107 3.92661 4.64832C3.92049 3.42508 4.84404 2.39755 6 2.39755ZM9.93272 9.59633V9.68196C9.03364 10.6911 7.66972 11.4251 6 11.4251C4.33028 11.4251 2.96024 10.6911 2.06116 9.68196L2.06728 9.59633C2.78287 8.70336 4.36086 8.00612 6 8.00612C7.63303 8.00612 9.21712 8.70336 9.93272 9.59633Z" fill="currentColor"></path></svg>