<svg viewBox="0 0 11 11" fill="currentColor" xmlns="http://www.w3.org/2000/svg"><path fill-rule="evenodd" clip-rule="evenodd" d="M9.24861 0.882324H1.98149C1.61132 0.881782 1.25604 1.00195 0.993821 1.21638C0.7316 1.43082 0.583914 1.72196 0.583252 2.02577V9.73478C0.593801 10.361 1.20615 10.868 1.96901 10.8823H9.18494C9.55511 10.8829 9.91039 10.7627 10.1726 10.5483C10.4348 10.3338 10.5825 10.0427 10.5832 9.73888V2.00015C10.5868 1.70667 10.4483 1.42402 10.198 1.21438C9.94772 1.00475 9.60621 0.8853 9.24861 0.882324ZM2.12134 3.35714C2.12134 3.15639 2.28408 2.99365 2.48483 2.99365H8.68092C8.88167 2.99365 9.04442 3.15639 9.04442 3.35714C9.04442 3.55789 8.88167 3.72064 8.68092 3.72064H2.48483C2.28408 3.72064 2.12134 3.55789 2.12134 3.35714ZM2.48513 4.85205C2.28438 4.85205 2.12164 5.01479 2.12164 5.21554C2.12164 5.41629 2.28438 5.57903 2.48513 5.57903H6.37354C6.57429 5.57903 6.73703 5.41629 6.73703 5.21554C6.73703 5.01479 6.57429 4.85205 6.37354 4.85205H2.48513Z" fill="currentColor"></path></svg>