<svg xmlns="http://www.w3.org/2000/svg" viewBox="0 0 907 215" preserveAspectRatio="xMidYMid slice" style="width: 100%; height: 100%; transform: translate3d(0px, 0px, 0px); content-visibility: visible;"><defs><clipPath id="__lottie_element_2"><rect width="907" height="215" x="0" y="0"></rect></clipPath><mask id="__lottie_element_3" mask-type="alpha"><g style="display: block;" transform="matrix(0.7196784019470215,0,0,1.0000003576278687,38.62575912475586,107.5001220703125)" opacity="1"><g opacity="1" transform="matrix(1,0,0,1,0,0)"><path fill="rgb(248,247,250)" fill-opacity="1" d=" M1053.1109619140625,-96 C1053.1109619140625,-96 195.11099243164062,-100 195.11099243164062,-100 C195.11099243164062,-100 124,-2 124,-2 C124,-2 200,109 200,109 C200,109 1046,111 1046,111 C1046,111 1053.1109619140625,-96 1053.1109619140625,-96z"></path></g></g></mask><clipPath id="__lottie_element_8"><path d="M0,0 L1500,0 L1500,1500 L0,1500z"></path></clipPath><clipPath id="__lottie_element_12"><path d="M0,0 L1500,0 L1500,1500 L0,1500z"></path></clipPath><clipPath id="__lottie_element_13"><path fill="#ffffff" clip-rule="nonzero" d=" M1114,644 C1114,644 319,644 319,644 C319,644 319,861 319,861 C319,861 1114,861 1114,861 C1114,861 1114,644 1114,644" fill-opacity="1"></path></clipPath><clipPath id="__lottie_element_19"><path d="M0,0 L1920,0 L1920,1080 L0,1080z"></path></clipPath><clipPath id="__lottie_element_23"><path d="M0,0 L1920,0 L1920,1080 L0,1080z"></path></clipPath></defs><g clip-path="url(#__lottie_element_2)"><g clip-path="url(#__lottie_element_19)" style="display: block;" transform="matrix(0.31360000371932983,0,0,0.31360000371932983,-189.09991455078125,-63.84391403198242)" opacity="1"><g clip-path="url(#__lottie_element_23)" style="display: block;" transform="matrix(1,0,0,1,0,0)" opacity="1"><g style="display: block;" transform="matrix(1,0,0,1,960,540)" opacity="1"><g opacity="1" transform="matrix(1,0,0,1,0,0)"><path fill="rgb(64,25,109)" fill-opacity="1" d=" M217,-266.75 C217,-266.75 92,-267 92,-267 C92,-267 -133.75,6.5 -133.75,6.5 C-133.75,6.5 90.75,265.5 90.75,265.5 C90.75,265.5 218.75,265.75 218.75,265.75 C218.75,265.75 -5,7 -5,7 C-5,7 217,-266.75 217,-266.75z"></path></g></g><g style="display: block;" transform="matrix(1,0,0,1,826,540.25)" opacity="1"><g opacity="1" transform="matrix(1,0,0,1,0,0)"><path fill="rgb(64,25,109)" fill-opacity="1" d=" M-114.5,-267.25 C-114.5,-267.25 -133.5,-267.5 -133.5,-267.5 C-133.5,-267.5 -133.75,6.5 -133.75,6.5 C-133.75,6.5 -133.25,265 -133.25,265 C-133.25,265 -115.75,265.25 -115.75,265.25 C-115.75,265.25 -115.5,6 -115.5,6 C-115.5,6 -114.5,-267.25 -114.5,-267.25z"></path></g></g><g style="display: block;" transform="matrix(1,0,0,1,839.5,540.25)" opacity="1"><g opacity="1" transform="matrix(1,0,0,1,0,0)"><path fill="rgb(64,25,109)" fill-opacity="1" d=" M-31,-267.25 C-31,-267.25 -80,-267 -80,-267 C-80,-267 -133.75,6.5 -133.75,6.5 C-133.75,6.5 -79.75,265 -79.75,265 C-79.75,265 -30.75,265.25 -30.75,265.25 C-30.75,265.25 -82.5,6 -82.5,6 C-82.5,6 -31,-267.25 -31,-267.25z"></path></g></g><g style="display: block;" transform="matrix(1,0,0,1,885.5,540)" opacity="1"><g opacity="1" transform="matrix(1,0,0,1,0,0)"><path fill="rgb(64,25,109)" fill-opacity="1" d=" M70,-267.25 C70,-267.25 -8,-267 -8,-267 C-8,-267 -133.75,6.5 -133.75,6.5 C-133.75,6.5 -8.75,265.5 -8.75,265.5 C-8.75,265.5 70.25,265.25 70.25,265.25 C70.25,265.25 -50.5,6.5 -50.5,6.5 C-50.5,6.5 70,-267.25 70,-267.25z"></path></g></g></g></g><g mask="url(#__lottie_element_3)" style="display: block;"><g clip-path="url(#__lottie_element_8)" transform="matrix(0.800000011920929,0,0,0.800000011920929,-100.5,-494.5)" opacity="1"><g clip-path="url(#__lottie_element_12)" style="display: block;" transform="matrix(1,0,0,1,0,0)" opacity="1"><g clip-path="url(#__lottie_element_13)"><g style="display: block;" transform="matrix(1,0,0,1,-54,56.5)" opacity="1"><g opacity="1" transform="matrix(1,0,0,1,516.5809936523438,692.6500244140625)"><path fill="rgb(64,25,109)" fill-opacity="1" d=" M67.84200286865234,103.01799774169922 C67.84200286865234,103.01799774169922 23.69499969482422,103.01799774169922 23.69499969482422,103.01799774169922 C23.69499969482422,103.01799774169922 -29.87700080871582,36.152000427246094 -29.87700080871582,36.152000427246094 C-29.87700080871582,36.152000427246094 -29.87700080871582,103.01799774169922 -29.87700080871582,103.01799774169922 C-29.87700080871582,103.01799774169922 -67.84200286865234,103.01799774169922 -67.84200286865234,103.01799774169922 C-67.84200286865234,103.01799774169922 -67.84200286865234,-103.01799774169922 -67.84200286865234,-103.01799774169922 C-67.84200286865234,-103.01799774169922 -29.87700080871582,-103.01799774169922 -29.87700080871582,-103.01799774169922 C-29.87700080871582,-103.01799774169922 -29.87700080871582,20.854000091552734 -29.87700080871582,20.854000091552734 C-29.87700080871582,20.854000091552734 20.746999740600586,-44.1510009765625 20.746999740600586,-44.1510009765625 C20.746999740600586,-44.1510009765625 66.0780029296875,-44.1510009765625 66.0780029296875,-44.1510009765625 C66.0780029296875,-44.1510009765625 6.921000003814697,28.554000854492188 6.921000003814697,28.554000854492188 C6.921000003814697,28.554000854492188 67.84200286865234,103.01799774169922 67.84200286865234,103.01799774169922z"></path></g><g opacity="1" transform="matrix(1,0,0,1,657.8629760742188,724.1439819335938)"><path fill="rgb(64,25,109)" fill-opacity="1" d=" M30.761999130249023,-75.6449966430664 C30.761999130249023,-75.6449966430664 68.72799682617188,-75.6449966430664 68.72799682617188,-75.6449966430664 C68.72799682617188,-75.6449966430664 68.72799682617188,71.5250015258789 68.72799682617188,71.5250015258789 C68.72799682617188,71.5250015258789 30.761999130249023,71.5250015258789 30.761999130249023,71.5250015258789 C30.761999130249023,71.5250015258789 30.761999130249023,55.04100036621094 30.761999130249023,55.04100036621094 C21.531999588012695,68.77799987792969 6.915999889373779,75.6449966430664 -13.098999977111816,75.6449966430664 C-29.191999435424805,75.6449966430664 -42.48500061035156,70.2509994506836 -52.98400115966797,59.45500183105469 C-63.483001708984375,48.66600036621094 -68.72799682617188,33.75199890136719 -68.72799682617188,14.71500015258789 C-68.72799682617188,14.71500015258789 -68.72799682617188,-75.6449966430664 -68.72799682617188,-75.6449966430664 C-68.72799682617188,-75.6449966430664 -30.7549991607666,-75.6449966430664 -30.7549991607666,-75.6449966430664 C-30.7549991607666,-75.6449966430664 -30.7549991607666,10.006999969482422 -30.7549991607666,10.006999969482422 C-30.7549991607666,19.82200050354004 -28.108999252319336,27.32699966430664 -22.80900001525879,32.5260009765625 C-17.509000778198242,37.724998474121094 -10.446000099182129,40.32500076293945 -1.6169999837875366,40.32500076293945 C8.192999839782715,40.32500076293945 16.04599952697754,37.28499984741211 21.927000045776367,31.200000762939453 C27.81399917602539,25.121999740600586 30.761999130249023,15.996000289916992 30.761999130249023,3.8259999752044678 C30.761999130249023,3.8259999752044678 30.761999130249023,-75.6449966430664 30.761999130249023,-75.6449966430664z"></path></g><g opacity="1" transform="matrix(1,0,0,1,826.2249755859375,694.7109985351562)"><path fill="rgb(64,25,109)" fill-opacity="1" d=" M40.77000045776367,-105.0790023803711 C40.77000045776367,-105.0790023803711 78.73600006103516,-105.0790023803711 78.73600006103516,-105.0790023803711 C78.73600006103516,-105.0790023803711 78.73600006103516,100.95800018310547 78.73600006103516,100.95800018310547 C78.73600006103516,100.95800018310547 40.77000045776367,100.95800018310547 40.77000045776367,100.95800018310547 C40.77000045776367,100.95800018310547 40.77000045776367,83.59200286865234 40.77000045776367,83.59200286865234 C29.582000732421875,97.91699981689453 13.6899995803833,105.0780029296875 -6.913000106811523,105.0780029296875 C-26.736000061035156,105.0780029296875 -43.66400146484375,97.572998046875 -57.691001892089844,82.56199645996094 C-71.71800231933594,67.54900360107422 -78.73600006103516,49.15399932861328 -78.73600006103516,27.375 C-78.73600006103516,5.591000080108643 -71.71800231933594,-12.803999900817871 -57.691001892089844,-27.816999435424805 C-43.66400146484375,-42.82699966430664 -26.736000061035156,-50.332000732421875 -6.913000106811523,-50.332000732421875 C13.6899995803833,-50.332000732421875 29.582000732421875,-43.167999267578125 40.77000045776367,-28.847000122070312 C40.77000045776367,-28.847000122070312 40.77000045776367,-105.0790023803711 40.77000045776367,-105.0790023803711z M-29.134000778198242,57.24700164794922 C-21.388999938964844,65.00399780273438 -11.625,68.8759994506836 0.1509999930858612,68.8759994506836 C11.927000045776367,68.8759994506836 21.636999130249023,65.00399780273438 29.288000106811523,57.24700164794922 C36.939998626708984,49.499000549316406 40.77000045776367,39.54100036621094 40.77000045776367,27.375 C40.77000045776367,15.208000183105469 36.939998626708984,5.250999927520752 29.288000106811523,-2.502000093460083 C21.636999130249023,-10.25 11.927000045776367,-14.130999565124512 0.1509999930858612,-14.130999565124512 C-11.625,-14.130999565124512 -21.388999938964844,-10.25 -29.134000778198242,-2.502000093460083 C-36.89400100708008,5.250999927520752 -40.76300048828125,15.208000183105469 -40.76300048828125,27.375 C-40.76300048828125,39.54100036621094 -36.89400100708008,49.499000549316406 -29.134000778198242,57.24700164794922z"></path></g><g opacity="1" transform="matrix(1,0,0,1,1004.8809814453125,722.083984375)"><path fill="rgb(64,25,109)" fill-opacity="1" d=" M40.77000045776367,-73.58499908447266 C40.77000045776367,-73.58499908447266 78.73600006103516,-73.58499908447266 78.73600006103516,-73.58499908447266 C78.73600006103516,-73.58499908447266 78.73600006103516,73.58499908447266 78.73600006103516,73.58499908447266 C78.73600006103516,73.58499908447266 40.77000045776367,73.58499908447266 40.77000045776367,73.58499908447266 C40.77000045776367,73.58499908447266 40.77000045776367,56.21900177001953 40.77000045776367,56.21900177001953 C29.38800048828125,70.54399871826172 13.395999908447266,77.70500183105469 -7.206999778747559,77.70500183105469 C-26.836000442504883,77.70500183105469 -43.66400146484375,70.19999694824219 -57.69200134277344,55.18899917602539 C-71.71900177001953,40.17599868774414 -78.73600006103516,21.7810001373291 -78.73600006103516,0.0020000000949949026 C-78.73600006103516,-21.781999588012695 -71.71900177001953,-40.176998138427734 -57.69200134277344,-55.189998626708984 C-43.66400146484375,-70.19999694824219 -26.836000442504883,-77.70500183105469 -7.206999778747559,-77.70500183105469 C13.395999908447266,-77.70500183105469 29.38800048828125,-70.54100036621094 40.77000045776367,-56.220001220703125 C40.77000045776367,-56.220001220703125 40.77000045776367,-73.58499908447266 40.77000045776367,-73.58499908447266z M-29.2810001373291,29.874000549316406 C-21.628999710083008,37.63100051879883 -11.918999671936035,41.50299835205078 -0.14399999380111694,41.50299835205078 C11.631999969482422,41.50299835205078 21.38800048828125,37.63100051879883 29.141000747680664,29.874000549316406 C36.893001556396484,22.125999450683594 40.77000045776367,12.168000221252441 40.77000045776367,0.0020000000949949026 C40.77000045776367,-12.164999961853027 36.893001556396484,-22.121999740600586 29.141000747680664,-29.875 C21.38800048828125,-37.62300109863281 11.631999969482422,-41.50400161743164 -0.14399999380111694,-41.50400161743164 C-11.918999671936035,-41.50400161743164 -21.628999710083008,-37.62300109863281 -29.2810001373291,-29.875 C-36.93299865722656,-22.121999740600586 -40.76300048828125,-12.164999961853027 -40.76300048828125,0.0020000000949949026 C-40.76300048828125,12.168000221252441 -36.93299865722656,22.125999450683594 -29.2810001373291,29.874000549316406z"></path></g><g opacity="1" transform="matrix(1,0,0,1,1134.2430419921875,774.4760131835938)"><path fill="rgb(64,25,109)" fill-opacity="1" d=" M17.65999984741211,17.65999984741211 C12.755000114440918,22.56100082397461 6.867000102996826,25.01799964904785 0.004000000189989805,25.01799964904785 C-6.866000175476074,25.01799964904785 -12.755000114440918,22.56100082397461 -17.65999984741211,17.65999984741211 C-22.56599998474121,12.758999824523926 -25.017000198364258,6.870999813079834 -25.017000198364258,0 C-25.017000198364258,-6.866000175476074 -22.56599998474121,-12.753999710083008 -17.65999984741211,-17.659000396728516 C-12.755000114440918,-22.565000534057617 -6.866000175476074,-25.01799964904785 0.004000000189989805,-25.01799964904785 C6.867000102996826,-25.01799964904785 12.755000114440918,-22.565000534057617 17.65999984741211,-17.659000396728516 C22.565000534057617,-12.753999710083008 25.017000198364258,-6.866000175476074 25.017000198364258,0 C25.017000198364258,6.870999813079834 22.565000534057617,12.758999824523926 17.65999984741211,17.65999984741211z"></path></g></g></g></g></g></g></g></svg>