<svg viewBox="0 0 14 14" fill="currentColor" xmlns="http://www.w3.org/2000/svg"><circle cx="6.99565" cy="7.07012" r="4.2" fill="currentColor"></circle><path d="M7 12.5C6.86739 12.5 6.74021 12.5527 6.64645 12.6464C6.55268 12.7402 6.5 12.8674 6.5 13V13.5C6.5 13.6326 6.55268 13.7598 6.64645 13.8536C6.74021 13.9473 6.86739 14 7 14C7.13261 14 7.25979 13.9473 7.35355 13.8536C7.44732 13.7598 7.5 13.6326 7.5 13.5V13C7.5 12.8674 7.44732 12.7402 7.35355 12.6464C7.25979 12.5527 7.13261 12.5 7 12.5Z" fill="currentColor"></path><path d="M2.40477 10.8898L2.04977 11.2448C1.99743 11.2896 1.95492 11.3447 1.92491 11.4068C1.8949 11.4688 1.87803 11.5364 1.87537 11.6052C1.87271 11.6741 1.88432 11.7428 1.90945 11.8069C1.93459 11.8711 1.97272 11.9294 2.02145 11.9781C2.07017 12.0268 2.12845 12.0649 2.19261 12.0901C2.25677 12.1152 2.32544 12.1268 2.3943 12.1242C2.46316 12.1215 2.53072 12.1046 2.59276 12.0746C2.65479 12.0446 2.70995 12.0021 2.75477 11.9498L3.10977 11.5948C3.19169 11.4991 3.23449 11.3761 3.22963 11.2502C3.22477 11.1244 3.1726 11.005 3.08355 10.916C2.99451 10.8269 2.87514 10.7748 2.7493 10.7699C2.62346 10.765 2.50042 10.8078 2.40477 10.8898Z" fill="currentColor"></path><path d="M1 6.5H0.5C0.367392 6.5 0.240215 6.55268 0.146447 6.64645C0.0526785 6.74021 0 6.86739 0 7C0 7.13261 0.0526785 7.25979 0.146447 7.35355C0.240215 7.44732 0.367392 7.5 0.5 7.5H1C1.13261 7.5 1.25979 7.44732 1.35355 7.35355C1.44732 7.25979 1.5 7.13261 1.5 7C1.5 6.86739 1.44732 6.74021 1.35355 6.64645C1.25979 6.55268 1.13261 6.5 1 6.5Z" fill="currentColor"></path><path d="M2.40492 3.10992C2.50057 3.19183 2.6236 3.23463 2.74944 3.22977C2.87528 3.22491 2.99465 3.17275 3.0837 3.0837C3.17275 2.99465 3.22491 2.87528 3.22977 2.74944C3.23463 2.6236 3.19183 2.50057 3.10992 2.40492L2.75492 2.04992C2.65927 1.968 2.53623 1.9252 2.41039 1.93006C2.28455 1.93492 2.16518 1.98709 2.07613 2.07613C1.98709 2.16518 1.93492 2.28455 1.93006 2.41039C1.9252 2.53623 1.968 2.65927 2.04992 2.75492L2.40492 3.10992Z" fill="currentColor"></path><path d="M7 1.5C7.13261 1.5 7.25979 1.44732 7.35355 1.35355C7.44732 1.25979 7.5 1.13261 7.5 1V0.5C7.5 0.367392 7.44732 0.240215 7.35355 0.146447C7.25979 0.0526784 7.13261 0 7 0C6.86739 0 6.74021 0.0526784 6.64645 0.146447C6.55268 0.240215 6.5 0.367392 6.5 0.5V1C6.5 1.13261 6.55268 1.25979 6.64645 1.35355C6.74021 1.44732 6.86739 1.5 7 1.5Z" fill="currentColor"></path><path d="M9.42501 3.2098C8.58313 2.67123 7.58593 2.42824 6.59067 2.51915C5.59541 2.61006 4.65873 3.0297 3.92836 3.71188C3.19799 4.39406 2.7155 5.29996 2.55698 6.28671C2.39845 7.27346 2.57292 8.28491 3.05286 9.16153C3.53281 10.0381 4.29091 10.7301 5.20762 11.1281C6.12432 11.5262 7.14746 11.6078 8.11566 11.36C9.08386 11.1122 9.94203 10.5492 10.5548 9.75971C11.1676 8.97022 11.5002 7.9992 11.5 6.9998C11.5027 6.24418 11.3137 5.50022 10.9509 4.83743C10.588 4.17464 10.063 3.61465 9.42501 3.2098ZM3.50001 6.9998C3.49979 6.15801 3.80297 5.34435 4.35396 4.70795C4.90496 4.07155 5.66686 3.65505 6.50001 3.5348V10.4648C5.66686 10.3445 4.90496 9.92804 4.35396 9.29164C3.80297 8.65524 3.49979 7.84158 3.50001 6.9998Z" fill="currentColor"></path><path d="M6.91089 12.5C7.0435 12.5 7.17067 12.5527 7.26444 12.6464C7.35821 12.7402 7.41089 12.8674 7.41089 13V13.5C7.41089 13.6326 7.35821 13.7598 7.26444 13.8536C7.17067 13.9473 7.0435 14 6.91089 14C6.77828 14 6.6511 13.9473 6.55733 13.8536C6.46357 13.7598 6.41089 13.6326 6.41089 13.5V13C6.41089 12.8674 6.46357 12.7402 6.55733 12.6464C6.6511 12.5527 6.77828 12.5 6.91089 12.5Z" fill="currentColor"></path><path d="M11.5061 10.8898L11.8611 11.2448C11.9135 11.2896 11.956 11.3447 11.986 11.4068C12.016 11.4688 12.0329 11.5364 12.0355 11.6052C12.0382 11.6741 12.0266 11.7428 12.0014 11.8069C11.9763 11.8711 11.9382 11.9294 11.8894 11.9781C11.8407 12.0268 11.7824 12.0649 11.7183 12.0901C11.6541 12.1152 11.5854 12.1268 11.5166 12.1242C11.4477 12.1215 11.3802 12.1046 11.3181 12.0746C11.2561 12.0446 11.2009 12.0021 11.1561 11.9498L10.8011 11.5948C10.7192 11.4991 10.6764 11.3761 10.6813 11.2502C10.6861 11.1244 10.7383 11.005 10.8273 10.916C10.9164 10.8269 11.0358 10.7748 11.1616 10.7699C11.2874 10.765 11.4105 10.8078 11.5061 10.8898Z" fill="currentColor"></path><path d="M12.9109 6.5H13.4109C13.5435 6.5 13.6707 6.55268 13.7644 6.64645C13.8582 6.74021 13.9109 6.86739 13.9109 7C13.9109 7.13261 13.8582 7.25979 13.7644 7.35355C13.6707 7.44732 13.5435 7.5 13.4109 7.5H12.9109C12.7783 7.5 12.6511 7.44732 12.5573 7.35355C12.4636 7.25979 12.4109 7.13261 12.4109 7C12.4109 6.86739 12.4636 6.74021 12.5573 6.64645C12.6511 6.55268 12.7783 6.5 12.9109 6.5Z" fill="currentColor"></path><path d="M11.506 3.10992C11.4103 3.19183 11.2873 3.23463 11.1614 3.22977C11.0356 3.22491 10.9162 3.17275 10.8272 3.0837C10.7381 2.99465 10.686 2.87528 10.6811 2.74944C10.6763 2.6236 10.7191 2.50057 10.801 2.40492L11.156 2.04992C11.2516 1.968 11.3747 1.9252 11.5005 1.93006C11.6263 1.93492 11.7457 1.98709 11.8348 2.07613C11.9238 2.16518 11.976 2.28455 11.9808 2.41039C11.9857 2.53623 11.9429 2.65927 11.861 2.75492L11.506 3.10992Z" fill="currentColor"></path><path d="M6.91089 1.5C6.77828 1.5 6.6511 1.44732 6.55733 1.35355C6.46357 1.25979 6.41089 1.13261 6.41089 1V0.5C6.41089 0.367392 6.46357 0.240215 6.55733 0.146447C6.6511 0.0526784 6.77828 0 6.91089 0C7.0435 0 7.17067 0.0526784 7.26444 0.146447C7.35821 0.240215 7.41089 0.367392 7.41089 0.5V1C7.41089 1.13261 7.35821 1.25979 7.26444 1.35355C7.17067 1.44732 7.0435 1.5 6.91089 1.5Z" fill="currentColor"></path></svg>