<svg viewBox="0 0 14 12" fill="currentColor" xmlns="http://www.w3.org/2000/svg"><path fill-rule="evenodd" clip-rule="evenodd" d="M12.6066 10.8995C12.8019 11.0947 12.8019 11.4113 12.6066 11.6066C12.4114 11.8018 12.0948 11.8018 11.8995 11.6066L10.3366 10.0437C9.36999 10.4918 8.24509 10.7915 7.00273 10.7915C2.9069 10.7915 0 7.43741 0 6.39573C0 5.71001 1.24659 4.0373 3.25731 2.96434L2.00004 1.70707C1.80478 1.51181 1.80478 1.19522 2.00004 0.999962C2.1953 0.8047 2.51188 0.8047 2.70714 0.999962L12.6066 10.8995ZM4.82126 4.52829C4.3904 5.02547 4.13155 5.67572 4.13401 6.39573C4.14492 7.95008 5.41021 9.25354 7.00273 9.25354C7.71176 9.25354 8.35983 8.99338 8.85989 8.56692L7.56653 7.27356C7.4043 7.37702 7.21249 7.43741 7.00818 7.43741C6.42462 7.43741 5.95014 6.96293 5.95014 6.39573C5.95014 6.18743 6.01291 5.99213 6.12088 5.82792L4.82126 4.52829ZM14 6.39573C14 6.91374 13.2974 8.00357 12.0798 8.96842L9.85045 6.73903C9.86431 6.62628 9.87145 6.51171 9.87145 6.39573C9.87145 4.80321 8.58979 3.54338 7.00273 3.54338C6.89116 3.54338 6.78113 3.54953 6.67295 3.56153L5.30459 2.19317C5.84227 2.07006 6.41005 1.99994 7.00273 1.99994C11.1476 1.99994 14 5.34859 14 6.39573Z" fill="#EF4444"></path></svg>