<svg viewBox="0 0 22 18" fill="currentColor" xmlns="http://www.w3.org/2000/svg"><path fill-rule="evenodd" clip-rule="evenodd" d="M19.4372 4.89074C19.4372 10.6936 15.0228 17.3826 6.94957 17.3826C4.55694 17.3813 2.21739 16.6956 0.221436 15.4106C0.568881 15.4485 0.918111 15.4688 1.26772 15.4714C3.25332 15.4715 5.17841 14.8058 6.71944 13.5864C4.82156 13.5408 3.16756 12.3152 2.61638 10.5459C2.88898 10.5984 3.16624 10.6246 3.44412 10.6241C3.83628 10.6255 4.22666 10.5728 4.60369 10.4678C2.53101 10.0292 1.05954 8.2333 1.0804 6.16772C1.69004 6.44852 2.37199 6.63607 3.07039 6.66288C1.13516 5.34034 0.547297 2.8029 1.71192 0.799198C3.90756 3.52655 7.20494 5.19839 10.7583 5.3859C10.6826 5.05801 10.6447 4.72296 10.645 4.3869C10.6133 1.99504 12.5784 0.0309844 15.0344 0C16.2539 0.000556895 17.4166 0.502074 18.2366 1.38122C19.2234 1.19161 20.1678 0.832765 21.0258 0.321417C20.7046 1.33063 20.0181 2.19191 19.0937 2.74507C19.9654 2.64343 20.8159 2.41198 21.6153 2.0588C21.0292 2.93478 20.2881 3.70245 19.4264 4.32609C19.4345 4.5172 19.4372 4.70832 19.4372 4.89074Z" fill="currentColor"/></svg>