<svg viewBox="0 0 230 268" fill="none" xmlns="http://www.w3.org/2000/svg" width='230' height='268' ><g filter="url(#filter0_d_40094_14630)"><path d="M191.715 194.995H79.444C76.4355 194.995 74 192.56 74 189.551V6.44404C74 3.43549 76.4355 1 79.444 1H191.715C194.724 1 197.159 3.43549 197.159 6.44404V189.536C197.175 192.56 194.724 194.995 191.715 194.995Z" fill="#F4E6FF"></path><path d="M191.715 194.995H79.444C76.4355 194.995 74 192.56 74 189.551V6.44404C74 3.43549 76.4355 1 79.444 1H191.715C194.724 1 197.159 3.43549 197.159 6.44404V189.536C197.175 192.56 194.724 194.995 191.715 194.995Z" stroke="#DBDCE0" stroke-opacity="0.5"></path></g><g opacity="0.4"><mask id="mask0_40094_14630" maskUnits="userSpaceOnUse" x="74" y="42" width="124" height="43" style="mask-type: alpha;"><path d="M101.123 83.5038H92.3174L81.6333 70.2882V83.5038H74.0605V42.751H81.6333V67.2026L91.7304 54.3946H100.771L88.9713 68.7745L101.123 83.5038Z" fill="white"></path><path d="M120.78 54.3946H128.353V83.5038H120.78V80.2435C118.941 82.9604 116.025 84.3188 112.034 84.3188C108.824 84.3188 106.163 83.2515 104.05 81.1168C101.976 78.9821 100.939 76.0324 100.939 72.2676V54.3946H108.511V71.3361C108.511 73.2768 109.04 74.771 110.096 75.819C111.153 76.8281 112.562 77.3326 114.323 77.3326C116.28 77.3326 117.845 76.731 119.019 75.5279C120.193 74.3247 120.78 72.5199 120.78 70.1136V54.3946Z" fill="white"></path><path d="M155.19 42.751H162.762V83.5038H155.19V80.0689C152.959 82.9022 149.789 84.3188 145.68 84.3188C141.727 84.3188 138.342 82.844 135.524 79.8942C132.745 76.9057 131.356 73.2573 131.356 68.9492C131.356 64.641 132.745 61.0121 135.524 58.0624C138.342 55.0738 141.727 53.5796 145.68 53.5796C149.789 53.5796 152.959 54.9962 155.19 57.8295V42.751ZM141.218 74.8875C142.783 76.4011 144.74 77.158 147.088 77.158C149.437 77.158 151.374 76.4011 152.9 74.8875C154.426 73.335 155.19 71.3556 155.19 68.9492C155.19 66.5428 154.426 64.5828 152.9 63.0692C151.374 61.5167 149.437 60.7404 147.088 60.7404C144.74 60.7404 142.783 61.5167 141.218 63.0692C139.692 64.5828 138.929 66.5428 138.929 68.9492C138.929 71.3556 139.692 73.335 141.218 74.8875Z" fill="white"></path><path d="M189.647 54.3946H197.22V83.5038H189.647V80.0689C187.377 82.9022 184.188 84.3188 180.079 84.3188C176.165 84.3188 172.799 82.844 169.981 79.8942C167.203 76.9057 165.814 73.2573 165.814 68.9492C165.814 64.641 167.203 61.0121 169.981 58.0624C172.799 55.0738 176.165 53.5796 180.079 53.5796C184.188 53.5796 187.377 54.9962 189.647 57.8295V54.3946ZM175.676 74.8875C177.202 76.4011 179.139 77.158 181.487 77.158C183.836 77.158 185.773 76.4011 187.299 74.8875C188.865 73.335 189.647 71.3556 189.647 68.9492C189.647 66.5428 188.865 64.5828 187.299 63.0692C185.773 61.5167 183.836 60.7404 181.487 60.7404C179.139 60.7404 177.202 61.5167 175.676 63.0692C174.149 64.5828 173.386 66.5428 173.386 68.9492C173.386 71.3556 174.149 73.335 175.676 74.8875Z" fill="white"></path></mask><g mask="url(#mask0_40094_14630)"><rect x="57.6357" y="34.8936" width="139.542" height="53.4447" fill="white"></rect></g></g><path d="M91.9506 12.2656H95.1126L89.5591 19.2753L95.2383 26.2849H91.9191L86.0514 19.5581L91.9506 12.2656Z" fill="#8369A0"></path><path d="M87.3552 12.2656H89.5648L86.1951 19.5581L89.4077 26.2849H87.0095L84.1427 19.4953L87.3552 12.2656Z" fill="#8369A0"></path><path d="M84.2523 12.2656H85.5095L84.1608 19.4953L85.5095 26.2849H84.2523L82.935 19.4953L84.2523 12.2656Z" fill="#8369A0"></path><path d="M82.4492 12.2656H83.154V26.2849H82.4492V12.2656Z" fill="#8369A0"></path><circle cx="97.0782" cy="24.7764" r="1.57132" fill="#8369A0"></circle><path d="M185 178.944C183.663 178.944 182.345 178.944 181.028 178.944C180.812 179.534 180.596 180.123 180.379 180.713C179.298 180.713 178.237 180.713 177.155 180.713C177.175 180.674 177.195 180.635 177.195 180.595C178.001 178.688 178.787 176.781 179.593 174.874C180.321 173.144 181.028 171.434 181.756 169.704C181.933 169.252 182.247 168.957 182.719 168.839C182.857 168.799 182.994 168.799 183.112 168.799C183.938 168.799 184.764 168.799 185.589 168.799C185.629 168.799 185.648 168.799 185.688 168.799C186.513 172.771 187.339 176.742 188.184 180.713C187.241 180.713 186.297 180.713 185.334 180.713C185.255 180.123 185.137 179.534 185 178.944ZM184.488 176.486C184.488 176.486 184.488 176.467 184.488 176.447C184.174 174.973 183.879 173.518 183.564 172.043C183.564 172.043 183.564 172.043 183.545 172.043C183.014 173.518 182.463 174.992 181.933 176.486C182.031 176.506 184.39 176.506 184.488 176.486Z" fill="#8369A0"></path><path d="M159.54 180.733C158.458 180.733 157.377 180.733 156.296 180.733C156.276 180.694 156.276 180.674 156.256 180.635C155.529 177.804 154.802 174.993 154.074 172.162C153.976 171.788 153.878 171.414 153.779 171.041C153.681 170.608 153.425 170.313 153.032 170.137C152.56 169.901 152.089 169.724 151.577 169.566C151.106 169.409 150.634 169.291 150.142 169.173C150.103 169.173 150.083 169.154 150.044 169.154C150.044 169.036 150.083 168.937 150.103 168.819C150.142 168.819 150.182 168.819 150.221 168.819C151.912 168.819 153.583 168.819 155.273 168.819C155.49 168.819 155.706 168.839 155.903 168.937C156.374 169.154 156.65 169.527 156.768 170.019C156.905 170.726 157.043 171.434 157.18 172.162C157.338 173.046 157.515 173.931 157.672 174.816C157.79 175.484 157.928 176.133 158.046 176.801C158.046 176.841 158.065 176.88 158.065 176.919H158.085C158.085 176.919 158.085 176.9 158.104 176.9C158.104 176.9 158.104 176.88 158.124 176.86C159.186 174.186 160.228 171.532 161.289 168.859C161.289 168.859 161.289 168.859 161.309 168.839C162.371 168.839 163.432 168.839 164.533 168.839C162.862 172.791 161.191 176.762 159.54 180.733Z" fill="#8369A0"></path><path d="M168.524 180.281C168.721 179.396 168.898 178.551 169.075 177.666C169.114 177.686 169.154 177.705 169.213 177.725C169.566 177.902 169.94 178.059 170.333 178.158C171.002 178.354 171.709 178.433 172.417 178.413C172.771 178.394 173.105 178.335 173.42 178.177C173.577 178.099 173.734 178 173.872 177.882C174.206 177.529 174.226 177.037 173.911 176.663C173.793 176.526 173.636 176.408 173.479 176.29C173.203 176.093 172.909 175.936 172.594 175.798C172.22 175.622 171.847 175.425 171.493 175.189C171.159 174.973 170.844 174.717 170.569 174.422C170.215 174.029 169.96 173.597 169.861 173.066C169.783 172.692 169.802 172.319 169.861 171.945C170.038 170.903 170.608 170.117 171.473 169.527C172.024 169.153 172.653 168.898 173.302 168.76C173.931 168.623 174.58 168.564 175.209 168.583C176.093 168.603 176.958 168.78 177.804 169.075C177.824 169.075 177.843 169.094 177.863 169.094C177.863 169.094 177.883 169.094 177.883 169.114C177.706 169.94 177.529 170.766 177.352 171.611C177.312 171.591 177.293 171.591 177.273 171.591C176.703 171.336 176.093 171.178 175.484 171.1C175.051 171.06 174.619 171.041 174.186 171.119C173.931 171.159 173.695 171.237 173.479 171.375C173.321 171.473 173.184 171.591 173.105 171.768C172.968 172.024 172.968 172.279 173.144 172.515C173.223 172.614 173.302 172.712 173.42 172.79C173.597 172.928 173.774 173.046 173.97 173.164C174.285 173.341 174.599 173.498 174.914 173.675C175.268 173.872 175.622 174.068 175.936 174.304C176.192 174.481 176.428 174.698 176.624 174.933C177.096 175.464 177.332 176.093 177.332 176.801C177.332 178.276 176.644 179.377 175.386 180.124C174.835 180.438 174.245 180.635 173.636 180.772C172.968 180.91 172.279 180.949 171.591 180.91C170.707 180.871 169.842 180.733 168.996 180.458C168.819 180.399 168.682 180.34 168.524 180.281Z" fill="#8369A0"></path><path d="M168.937 168.799C168.091 172.79 167.246 176.742 166.381 180.713C165.359 180.713 164.336 180.713 163.294 180.713C164.14 176.742 164.985 172.771 165.85 168.799C166.892 168.799 167.915 168.799 168.937 168.799Z" fill="#8369A0"></path><path d="M145.523 11.9995H146.494V15.9495H145.731L143.959 13.7082V15.9495H142.998V11.9995H143.75L145.523 14.2297V11.9995Z" fill="#8369A0"></path><path d="M150.181 15.9495L149.835 15.134H148.1L147.755 15.9495H146.723L148.551 11.9995H149.363L151.196 15.9495H150.181ZM148.435 14.3517H149.5L148.968 13.1035L148.435 14.3517Z" fill="#8369A0"></path><path d="M151.419 15.9495V11.9995H152.451V15.9495H151.419Z" fill="#8369A0"></path><path d="M156.553 15.9495L155.461 15.9495L154.956 14.6347C154.897 14.4867 154.76 14.4128 154.544 14.4128H154.171V15.9495H153.155V11.9995L154.972 11.9995C155.444 11.9995 155.799 12.1031 156.037 12.3102C156.275 12.5136 156.394 12.8058 156.394 13.1867C156.394 13.453 156.322 13.6842 156.18 13.8802C156.04 14.0725 155.843 14.2094 155.587 14.2907C155.697 14.3129 155.795 14.3647 155.883 14.4461C155.971 14.5274 156.04 14.6365 156.092 14.7734L156.553 15.9495ZM154.807 13.6361C155.027 13.6361 155.186 13.6028 155.285 13.5362C155.384 13.466 155.433 13.3587 155.433 13.2145C155.433 13.0628 155.384 12.9537 155.285 12.8871C155.19 12.8206 155.031 12.7873 154.807 12.7873L154.16 12.7873V13.6361H154.807Z" fill="#8369A0"></path><path d="M159.995 15.9495L159.649 15.134H157.915L157.569 15.9495H156.537L158.365 11.9995H159.177L161.01 15.9495H159.995ZM158.249 14.3517H159.314L158.782 13.1035L158.249 14.3517Z" fill="#8369A0"></path><path d="M165.684 11.9995H166.722L164.943 15.9495H164.126L162.347 11.9995H163.418L164.543 14.6513L165.684 11.9995Z" fill="#8369A0"></path><path d="M166.947 15.9495V11.9995H167.978V15.9495H166.947Z" fill="#8369A0"></path><path d="M172.081 15.9495H170.988L170.484 14.6347C170.425 14.4867 170.288 14.4128 170.072 14.4128H169.699V15.9495H168.683V11.9995H170.5C170.972 11.9995 171.327 12.1031 171.565 12.3102C171.803 12.5136 171.922 12.8058 171.922 13.1867C171.922 13.453 171.85 13.6842 171.708 13.8802C171.568 14.0725 171.371 14.2094 171.115 14.2907C171.225 14.3129 171.323 14.3647 171.411 14.4461C171.499 14.5274 171.568 14.6365 171.62 14.7734L172.081 15.9495ZM170.335 13.6361C170.555 13.6361 170.714 13.6028 170.813 13.5362C170.912 13.466 170.961 13.3587 170.961 13.2145C170.961 13.0628 170.912 12.9537 170.813 12.8871C170.718 12.8206 170.559 12.7873 170.335 12.7873H169.688V13.6361H170.335Z" fill="#8369A0"></path><path d="M173.372 15.9495V12.8428H172.209V11.9995L175.579 11.9995V12.8428H174.415V15.9495H173.372Z" fill="#8369A0"></path><path d="M177.712 15.9994C177.141 15.9994 176.71 15.8552 176.417 15.5667C176.124 15.2745 175.978 14.8473 175.978 14.2852V11.9995H176.982V14.324C176.982 14.6088 177.044 14.827 177.169 14.9786C177.297 15.1303 177.478 15.2061 177.712 15.2061C177.943 15.2061 178.12 15.1303 178.245 14.9786C178.369 14.8233 178.431 14.6051 178.431 14.324V11.9995H179.447V14.2852C179.447 14.8399 179.297 15.2653 178.997 15.5611C178.7 15.8533 178.272 15.9994 177.712 15.9994Z" fill="#8369A0"></path><path d="M183.075 15.9495L182.729 15.134H180.995L180.649 15.9495H179.617L181.445 11.9995H182.257L184.09 15.9495H183.075ZM181.33 14.3517H182.394L181.862 13.1035L181.33 14.3517Z" fill="#8369A0"></path><path d="M184.313 15.9495V11.9995H185.345V15.1062H186.997V15.9495H184.313Z" fill="#8369A0"></path><path d="M165.853 193.292H135.691V194.996H165.853V193.292Z" fill="#00CAF5"></path><path d="M195.682 193.292C194.692 194.343 193.271 194.996 191.722 194.996H165.855V193.292H195.682Z" fill="#48D38A"></path><path d="M135.691 193.292H105.258V194.996H135.691V193.292Z" fill="#FFC700"></path><path d="M75.4326 193.292C76.4226 194.343 77.8437 194.996 79.3925 194.996H105.259V193.292H75.4326Z" fill="#F7685B"></path><g filter="url(#filter1_d_40094_14630)"><path d="M118.718 240H6.44416C3.43555 240 1 237.564 1 234.556V51.4442C1 48.4355 3.43555 46 6.44416 46H118.718C121.727 46 124.162 48.4355 124.162 51.4442V234.54C124.178 237.564 121.727 240 118.718 240Z" fill="#40196D"></path><path d="M118.718 240H6.44416C3.43555 240 1 237.564 1 234.556V51.4442C1 48.4355 3.43555 46 6.44416 46H118.718C121.727 46 124.162 48.4355 124.162 51.4442V234.54C124.178 237.564 121.727 240 118.718 240Z" stroke="#DBDCE0" stroke-opacity="0.5"></path></g><g opacity="0.13"><mask id="mask1_40094_14630" maskUnits="userSpaceOnUse" x="1" y="87" width="124" height="43" style="mask-type: alpha;"><path d="M28.1236 128.506H19.3178L8.6335 115.29V128.506H1.06055V87.752H8.6335V112.204L18.7308 99.3959H27.7713L15.9716 113.776L28.1236 128.506Z" fill="#DFE3FF"></path><path d="M47.7815 99.3959H55.3545V128.506H47.7815V125.245C45.9421 127.962 43.0264 129.321 39.0345 129.321C35.8253 129.321 33.164 128.253 31.0506 126.119C28.9763 123.984 27.9392 121.034 27.9392 117.269V99.3959H35.5122V116.338C35.5122 118.278 36.0405 119.773 37.0972 120.821C38.1539 121.83 39.5628 122.334 41.324 122.334C43.2808 122.334 44.8463 121.733 46.0204 120.53C47.1945 119.326 47.7815 117.522 47.7815 115.115V99.3959Z" fill="#DFE3FF"></path><path d="M82.1914 87.752H89.7644V128.506H82.1914V125.071C79.9606 127.904 76.7905 129.321 72.6812 129.321C68.7284 129.321 65.343 127.846 62.5252 124.896C59.7465 121.907 58.3571 118.259 58.3571 113.951C58.3571 109.643 59.7465 106.014 62.5252 103.064C65.343 100.075 68.7284 98.5808 72.6812 98.5808C76.7905 98.5808 79.9606 99.9975 82.1914 102.831V87.752ZM68.2196 119.889C69.7851 121.403 71.7419 122.16 74.0901 122.16C76.4383 122.16 78.3756 121.403 79.9019 119.889C81.4282 118.337 82.1914 116.357 82.1914 113.951C82.1914 111.544 81.4282 109.584 79.9019 108.071C78.3756 106.518 76.4383 105.742 74.0901 105.742C71.7419 105.742 69.7851 106.518 68.2196 108.071C66.6933 109.584 65.9301 111.544 65.9301 113.951C65.9301 116.357 66.6933 118.337 68.2196 119.889Z" fill="#DFE3FF"></path><path d="M116.65 99.3959H124.223V128.506H116.65V125.071C114.38 127.904 111.19 129.321 107.081 129.321C103.167 129.321 99.8016 127.846 96.9837 124.896C94.205 121.907 92.8157 118.259 92.8157 113.951C92.8157 109.643 94.205 106.014 96.9837 103.064C99.8016 100.075 103.167 98.5808 107.081 98.5808C111.19 98.5808 114.38 99.9975 116.65 102.831V99.3959ZM102.678 119.889C104.204 121.403 106.142 122.16 108.49 122.16C110.838 122.16 112.775 121.403 114.302 119.889C115.867 118.337 116.65 116.357 116.65 113.951C116.65 111.544 115.867 109.584 114.302 108.071C112.775 106.518 110.838 105.742 108.49 105.742C106.142 105.742 104.204 106.518 102.678 108.071C101.152 109.584 100.389 111.544 100.389 113.951C100.389 116.357 101.152 118.337 102.678 119.889Z" fill="#DFE3FF"></path></mask><g mask="url(#mask1_40094_14630)"><rect x="-15.3643" y="79.8945" width="139.546" height="53.4459" fill="#DFE3FF"></rect></g></g><g clip-path="url(#clip0_40094_14630)"><path d="M42.449 60.7769V69.1455H40.021V67.9233C39.7567 68.3637 39.4098 68.6996 38.9804 68.9308C38.5509 69.162 38.0664 69.2777 37.5269 69.2777C36.4808 69.2777 35.699 68.9859 35.1815 68.4023C34.6639 67.8186 34.4051 66.9377 34.4051 65.7595V60.7769H36.8992V65.8091C36.8992 66.8221 37.3342 67.3286 38.2041 67.3286C38.7216 67.3286 39.14 67.1525 39.4594 66.8001C39.7787 66.4477 39.9384 65.9853 39.9384 65.4127V60.7769H42.449ZM51.9628 56.9614V69.1455H49.5018V67.9067C49.2485 68.3362 48.8906 68.672 48.4281 68.9143C47.9657 69.1565 47.4426 69.2777 46.859 69.2777C46.1433 69.2777 45.5046 69.096 44.943 68.7271C44.3815 68.3582 43.9465 67.8407 43.6327 67.1745C43.3189 66.5083 43.1647 65.7485 43.1647 64.8896C43.1647 64.0307 43.3189 63.2765 43.6327 62.6213C43.9465 61.9661 44.3815 61.4596 44.9375 61.1017C45.4936 60.7438 46.1323 60.5677 46.859 60.5677C47.4206 60.5677 47.9326 60.6888 48.3951 60.92C48.8576 61.1568 49.2155 61.4816 49.4687 61.9V56.9614H51.9628ZM49.0062 66.745C49.3366 66.3211 49.5018 65.7155 49.5018 64.9227C49.5018 64.1408 49.3366 63.5407 49.0007 63.1168C48.6649 62.6929 48.1969 62.4836 47.5913 62.4836C46.9746 62.4836 46.4956 62.6929 46.1543 63.1113C45.8129 63.5297 45.6423 64.1243 45.6423 64.8951C45.6423 65.6879 45.8129 66.2991 46.1543 66.734C46.4956 67.169 46.9746 67.3837 47.5913 67.3837C48.2079 67.3782 48.6759 67.169 49.0062 66.745ZM61.4821 60.7769V69.1455H59.0211V67.9067C58.7678 68.3362 58.41 68.672 57.9475 68.9143C57.485 69.1565 56.962 69.2777 56.3784 69.2777C55.6516 69.2777 55.013 69.1015 54.4569 68.7491C53.9008 68.3967 53.4659 67.8957 53.152 67.2406C52.8382 66.5854 52.684 65.8311 52.684 64.9722C52.684 64.1133 52.8382 63.348 53.152 62.6763C53.4659 62.0046 53.9008 61.4871 54.4624 61.1182C55.024 60.7493 55.6626 60.5677 56.3784 60.5677C56.962 60.5677 57.485 60.6943 57.9475 60.9475C58.41 61.2008 58.7678 61.5422 59.0211 61.9716V60.7769H61.4821ZM58.5256 66.7505C58.8559 66.3321 59.0211 65.7265 59.0211 64.9337C59.0211 64.1408 58.8559 63.5352 58.5256 63.1113C58.1952 62.6873 57.7217 62.4781 57.1051 62.4781C56.4885 62.4781 56.0095 62.6984 55.6681 63.1388C55.3268 63.5793 55.1561 64.1904 55.1561 64.9722C55.1561 65.754 55.3213 66.3486 55.6571 66.7616C55.993 67.1745 56.472 67.3782 57.0996 67.3782C57.7217 67.3782 58.1952 67.169 58.5256 66.7505ZM33.9041 69.2666H30.8099L27.4845 65.4732V69.2666H24.9629V56.9614H27.4845V64.4326L30.6613 60.8044H33.6894L30.0942 64.8676L33.9041 69.2666Z" fill="#CACACA"></path><path d="M18.0422 69.2666L13.2027 63.6949L15.8454 69.2666H14.012L11.3142 63.5848L12.4374 69.2666H11.3087L10.1856 63.5738V69.2666H9.74512V56.9614H10.1856V63.1003L11.3253 56.9614H12.4484L11.3032 63.1278L14.0561 56.9614H15.8674L13.1311 63.1058L18.1028 56.9614H20.9492L15.8014 63.315L20.9712 69.2666H18.0422Z" fill="#CACACA"></path><path d="M63.5685 69.1346C64.3226 69.1346 64.9339 68.5233 64.9339 67.7692C64.9339 67.0151 64.3226 66.4038 63.5685 66.4038C62.8144 66.4038 62.2031 67.0151 62.2031 67.7692C62.2031 68.5233 62.8144 69.1346 63.5685 69.1346Z" fill="#CACACA"></path></g><path d="M112.956 223.642C111.619 223.642 110.302 223.642 108.984 223.642C108.768 224.232 108.552 224.822 108.336 225.412C107.254 225.412 106.193 225.412 105.111 225.412C105.131 225.372 105.151 225.333 105.151 225.294C105.957 223.387 106.743 221.48 107.549 219.573C108.277 217.842 108.984 216.132 109.712 214.402C109.889 213.95 110.203 213.655 110.675 213.537C110.813 213.498 110.95 213.498 111.068 213.498C111.894 213.498 112.72 213.498 113.546 213.498C113.585 213.498 113.605 213.498 113.644 213.498C114.47 217.469 115.295 221.44 116.141 225.412C115.197 225.412 114.253 225.412 113.29 225.412C113.211 224.822 113.093 224.232 112.956 223.642ZM112.445 221.185C112.445 221.185 112.445 221.165 112.445 221.145C112.13 219.671 111.835 218.216 111.521 216.742C111.521 216.742 111.521 216.742 111.501 216.742C110.97 218.216 110.42 219.691 109.889 221.185C109.987 221.204 112.346 221.204 112.445 221.185Z" fill="#CACACA"></path><path d="M87.4959 225.432C86.4146 225.432 85.3333 225.432 84.252 225.432C84.2323 225.392 84.2323 225.373 84.2127 225.333C83.4852 222.502 82.7578 219.691 82.0304 216.86C81.9321 216.486 81.8338 216.113 81.7355 215.739C81.6372 215.307 81.3816 215.012 80.9884 214.835C80.5165 214.599 80.0447 214.422 79.5335 214.265C79.0617 214.107 78.5898 213.989 78.0983 213.871C78.059 213.871 78.0393 213.852 78 213.852C78 213.734 78.0393 213.636 78.059 213.518C78.0983 213.518 78.1376 213.518 78.1769 213.518C79.8677 213.518 81.5389 213.518 83.2296 213.518C83.4459 213.518 83.6622 213.537 83.8588 213.636C84.3306 213.852 84.6059 214.225 84.7238 214.717C84.8614 215.425 84.9991 216.132 85.1367 216.86C85.294 217.745 85.4709 218.629 85.6282 219.514C85.7462 220.182 85.8838 220.831 86.0017 221.5C86.0017 221.539 86.0214 221.578 86.0214 221.618H86.0411C86.0411 221.618 86.0411 221.598 86.0607 221.598C86.0607 221.598 86.0607 221.578 86.0804 221.559C87.142 218.885 88.184 216.231 89.2457 213.557C89.2457 213.557 89.2457 213.557 89.2654 213.537C90.327 213.537 91.3887 213.537 92.4897 213.537C90.8185 217.489 89.1474 221.46 87.4959 225.432Z" fill="#CACACA"></path><path d="M96.4805 224.979C96.6771 224.095 96.854 223.249 97.031 222.365C97.0703 222.384 97.1096 222.404 97.1686 222.424C97.5225 222.601 97.896 222.758 98.2892 222.856C98.9577 223.053 99.6654 223.131 100.373 223.112C100.727 223.092 101.061 223.033 101.376 222.876C101.533 222.797 101.69 222.699 101.828 222.581C102.162 222.227 102.182 221.735 101.867 221.362C101.749 221.224 101.592 221.106 101.435 220.988C101.16 220.792 100.865 220.634 100.55 220.497C100.177 220.32 99.8031 220.123 99.4492 219.887C99.115 219.671 98.8004 219.416 98.5251 219.121C98.1713 218.727 97.9157 218.295 97.8174 217.764C97.7387 217.391 97.7584 217.017 97.8174 216.643C97.9943 215.601 98.5645 214.815 99.4295 214.225C99.98 213.852 100.609 213.596 101.258 213.458C101.887 213.321 102.536 213.262 103.165 213.282C104.05 213.301 104.915 213.478 105.76 213.773C105.78 213.773 105.799 213.793 105.819 213.793C105.819 213.793 105.839 213.793 105.839 213.812C105.662 214.638 105.485 215.464 105.308 216.309C105.269 216.29 105.249 216.29 105.229 216.29C104.659 216.034 104.05 215.877 103.44 215.798C103.008 215.759 102.575 215.739 102.143 215.818C101.887 215.857 101.651 215.936 101.435 216.073C101.278 216.172 101.14 216.29 101.061 216.467C100.924 216.722 100.924 216.978 101.101 217.214C101.179 217.312 101.258 217.41 101.376 217.489C101.553 217.626 101.73 217.744 101.926 217.862C102.241 218.039 102.556 218.197 102.87 218.374C103.224 218.57 103.578 218.767 103.892 219.003C104.148 219.18 104.384 219.396 104.581 219.632C105.052 220.163 105.288 220.792 105.288 221.5C105.288 222.974 104.6 224.075 103.342 224.822C102.791 225.137 102.202 225.333 101.592 225.471C100.924 225.609 100.236 225.648 99.5475 225.609C98.6628 225.569 97.7977 225.432 96.9523 225.156C96.7754 225.097 96.6378 225.038 96.4805 224.979Z" fill="#CACACA"></path><path d="M96.8935 213.498C96.0481 217.489 95.2027 221.44 94.3376 225.412C93.3153 225.412 92.293 225.412 91.251 225.412C92.0964 221.44 92.9418 217.469 93.8068 213.498C94.8488 213.498 95.8712 213.498 96.8935 213.498Z" fill="#CACACA"></path><path d="M92.856 238.297H62.6934V240H92.856V238.297Z" fill="#00CAF5"></path><path d="M122.684 238.297C121.694 239.348 120.272 240 118.724 240H92.8562V238.297H122.684Z" fill="#48D38A"></path><path d="M62.6929 238.297H32.2588V240H62.6929V238.297Z" fill="#FFC700"></path><path d="M2.43262 238.297C3.4226 239.348 4.84372 240 6.39257 240H32.26V238.297H2.43262Z" fill="#F7685B"></path><defs><filter id="filter0_d_40094_14630" x="73.5" y="0.5" width="156.16" height="221.996" filterUnits="userSpaceOnUse" color-interpolation-filters="sRGB"><feFlood flood-opacity="0" result="BackgroundImageFix"></feFlood><feColorMatrix in="SourceAlpha" type="matrix" values="0 0 0 0 0 0 0 0 0 0 0 0 0 0 0 0 0 0 127 0" result="hardAlpha"></feColorMatrix><feOffset dx="20" dy="15"></feOffset><feGaussianBlur stdDeviation="6"></feGaussianBlur><feColorMatrix type="matrix" values="0 0 0 0 0.25098 0 0 0 0 0.0980392 0 0 0 0 0.427451 0 0 0 0.1 0"></feColorMatrix><feBlend mode="normal" in2="BackgroundImageFix" result="effect1_dropShadow_40094_14630"></feBlend><feBlend mode="normal" in="SourceGraphic" in2="effect1_dropShadow_40094_14630" result="shape"></feBlend></filter><filter id="filter1_d_40094_14630" x="0.5" y="45.5" width="156.162" height="222" filterUnits="userSpaceOnUse" color-interpolation-filters="sRGB"><feFlood flood-opacity="0" result="BackgroundImageFix"></feFlood><feColorMatrix in="SourceAlpha" type="matrix" values="0 0 0 0 0 0 0 0 0 0 0 0 0 0 0 0 0 0 127 0" result="hardAlpha"></feColorMatrix><feOffset dx="20" dy="15"></feOffset><feGaussianBlur stdDeviation="6"></feGaussianBlur><feColorMatrix type="matrix" values="0 0 0 0 0.25098 0 0 0 0 0.0980392 0 0 0 0 0.427451 0 0 0 0.1 0"></feColorMatrix><feBlend mode="normal" in2="BackgroundImageFix" result="effect1_dropShadow_40094_14630"></feBlend><feBlend mode="normal" in="SourceGraphic" in2="effect1_dropShadow_40094_14630" result="shape"></feBlend></filter><clipPath id="clip0_40094_14630"><rect width="55.1767" height="12.3162" fill="white" transform="translate(9.74512 56.9614)"></rect></clipPath></defs></svg>