<svg viewBox="0 0 125 196" fill="none" xmlns="http://www.w3.org/2000/svg"><path d="M118.506 194.65H6.43434C3.43115 194.65 1 192.219 1 189.216V6.43434C1 3.43115 3.43115 1 6.43434 1H118.506C121.509 1 123.94 3.43115 123.94 6.43434V189.2C123.956 192.219 121.509 194.65 118.506 194.65Z" fill="#F4E6FF" stroke="#DBDCE0" stroke-opacity="0.5"></path><mask id="mask0_40099_18543" maskUnits="userSpaceOnUse" x="13" y="169" width="14" height="12" style="mask-type: alpha;"><path d="M13 170.798C13 169.805 13.8944 169 14.9977 169H25.0023C26.1056 169 27 169.805 27 170.798V179.202C27 180.195 26.1056 181 25.0023 181H14.9977C13.8944 181 13 180.195 13 179.202V170.798Z" fill="#E94D1E"></path></mask><g mask="url(#mask0_40099_18543)"><g clip-path="url(#clip0_40099_18543)"><path d="M7.19336 166.537H32.4617V183.593H7.19336V166.537Z" fill="#008751"></path><path d="M16.5977 166.475H23.6166V183.531H16.5977V166.475Z" fill="white"></path></g></g><g opacity="0.4"><mask id="mask1_40099_18543" maskUnits="userSpaceOnUse" x="1" y="42" width="123" height="43" style="mask-type: alpha;"><path d="M28.0748 83.3579H19.2849L8.61984 70.1659V83.3579H1.06055V42.6777H8.61984V67.0859L18.6989 54.3007H27.7232L15.9447 68.655L28.0748 83.3579Z" fill="white"></path><path d="M47.6972 54.3007H55.2565V83.3579H47.6972V80.1035C45.8611 82.8155 42.9507 84.1715 38.966 84.1715C35.7625 84.1715 33.106 83.1061 30.9965 80.9752C28.926 78.8444 27.8907 75.8999 27.8907 72.1418V54.3007H35.45V71.212C35.45 73.1491 35.9774 74.6408 37.0322 75.6868C38.087 76.6941 39.4933 77.1978 41.2513 77.1978C43.2046 77.1978 44.7673 76.5973 45.9393 75.3962C47.1112 74.1952 47.6972 72.3937 47.6972 69.9916V54.3007Z" fill="white"></path><path d="M82.045 42.6777H89.6043V83.3579H82.045V79.9292C79.8183 82.7574 76.6539 84.1715 72.552 84.1715C68.6063 84.1715 65.2271 82.6993 62.4143 79.7548C59.6406 76.7716 58.2538 73.1298 58.2538 68.8293C58.2538 64.5288 59.6406 60.9063 62.4143 57.9619C65.2271 54.9787 68.6063 53.487 72.552 53.487C76.6539 53.487 79.8183 54.9012 82.045 57.7294V42.6777ZM68.0984 74.757C69.6611 76.268 71.6144 77.0234 73.9583 77.0234C76.3023 77.0234 78.2361 76.268 79.7597 74.757C81.2832 73.2073 82.045 71.2314 82.045 68.8293C82.045 66.4272 81.2832 64.4707 79.7597 62.9597C78.2361 61.41 76.3023 60.6351 73.9583 60.6351C71.6144 60.6351 69.6611 61.41 68.0984 62.9597C66.5749 64.4707 65.8131 66.4272 65.8131 68.8293C65.8131 71.2314 66.5749 73.2073 68.0984 74.757Z" fill="white"></path><path d="M116.441 54.3007H124.001V83.3579H116.441V79.9292C114.176 82.7574 110.992 84.1715 106.89 84.1715C102.983 84.1715 99.6234 82.6993 96.8107 79.7548C94.037 76.7716 92.6501 73.1298 92.6501 68.8293C92.6501 64.5288 94.037 60.9063 96.8107 57.9619C99.6234 54.9787 102.983 53.487 106.89 53.487C110.992 53.487 114.176 54.9012 116.441 57.7294V54.3007ZM102.495 74.757C104.018 76.268 105.952 77.0234 108.296 77.0234C110.64 77.0234 112.574 76.268 114.097 74.757C115.66 73.2073 116.441 71.2314 116.441 68.8293C116.441 66.4272 115.66 64.4707 114.097 62.9597C112.574 61.41 110.64 60.6351 108.296 60.6351C105.952 60.6351 104.018 61.41 102.495 62.9597C100.971 64.4707 100.209 66.4272 100.209 68.8293C100.209 71.2314 100.971 73.2073 102.495 74.757Z" fill="white"></path></mask><g mask="url(#mask1_40099_18543)"><rect x="-15.334" y="34.834" width="139.294" height="53.3495" fill="white"></rect></g></g><path d="M18.918 12.2461H22.0744L16.5308 19.2433L22.1999 26.2404H18.8866L13.0293 19.5256L18.918 12.2461Z" fill="#8369A0"></path><path d="M14.3309 12.2461H16.5365L13.1728 19.5256L16.3797 26.2404H13.9858L11.124 19.4629L14.3309 12.2461Z" fill="#8369A0"></path><path d="M11.2335 12.2461H12.4885L11.1421 19.4629L12.4885 26.2404H11.2335L9.9185 19.4629L11.2335 12.2461Z" fill="#8369A0"></path><path d="M9.43359 12.2461H10.1371V26.2404H9.43359V12.2461Z" fill="#8369A0"></path><circle cx="24.0373" cy="24.7345" r="1.56852" fill="#8369A0"></circle><path d="M111.801 178.626C110.467 178.626 109.152 178.626 107.837 178.626C107.621 179.215 107.405 179.804 107.189 180.393C106.11 180.393 105.05 180.393 103.971 180.393C103.99 180.353 104.01 180.314 104.01 180.275C104.815 178.371 105.6 176.468 106.404 174.564C107.13 172.837 107.837 171.13 108.563 169.403C108.74 168.951 109.054 168.657 109.525 168.539C109.662 168.5 109.799 168.5 109.917 168.5C110.741 168.5 111.566 168.5 112.39 168.5C112.429 168.5 112.449 168.5 112.488 168.5C113.312 172.464 114.136 176.428 114.98 180.393C114.038 180.393 113.096 180.393 112.135 180.393C112.056 179.804 111.938 179.215 111.801 178.626ZM111.291 176.173C111.291 176.173 111.291 176.154 111.291 176.134C110.977 174.662 110.682 173.21 110.368 171.738C110.368 171.738 110.368 171.738 110.349 171.738C109.819 173.21 109.269 174.682 108.74 176.173C108.838 176.193 111.193 176.193 111.291 176.173Z" fill="#8369A0"></path><path d="M86.387 180.412C85.3076 180.412 84.2283 180.412 83.1489 180.412C83.1293 180.373 83.1293 180.353 83.1097 180.314C82.3835 177.488 81.6574 174.682 80.9313 171.856C80.8332 171.483 80.735 171.11 80.6369 170.737C80.5388 170.305 80.2837 170.011 79.8912 169.834C79.4202 169.599 78.9492 169.422 78.4389 169.265C77.9679 169.108 77.4969 168.991 77.0063 168.873C76.9671 168.873 76.9475 168.853 76.9082 168.853C76.9082 168.735 76.9475 168.637 76.9671 168.52C77.0063 168.52 77.0456 168.52 77.0848 168.52C78.7726 168.52 80.4407 168.52 82.1284 168.52C82.3443 168.52 82.5602 168.539 82.7564 168.637C83.2274 168.853 83.5021 169.226 83.6199 169.717C83.7573 170.423 83.8947 171.13 84.032 171.856C84.189 172.739 84.3656 173.622 84.5226 174.505C84.6404 175.172 84.7778 175.82 84.8955 176.487C84.8955 176.526 84.9151 176.566 84.9151 176.605H84.9348C84.9348 176.605 84.9348 176.585 84.9544 176.585C84.9544 176.585 84.9544 176.566 84.974 176.546C86.0338 173.877 87.0739 171.228 88.1336 168.559C88.1336 168.559 88.1336 168.559 88.1532 168.539C89.213 168.539 90.2727 168.539 91.3717 168.539C89.7036 172.484 88.0355 176.448 86.387 180.412Z" fill="#8369A0"></path><path d="M95.3555 179.962C95.5517 179.079 95.7284 178.235 95.905 177.352C95.9442 177.371 95.9835 177.391 96.0423 177.41C96.3956 177.587 96.7685 177.744 97.161 177.842C97.8282 178.038 98.5347 178.117 99.2412 178.097C99.5944 178.078 99.9281 178.019 100.242 177.862C100.399 177.783 100.556 177.685 100.693 177.567C101.027 177.214 101.047 176.724 100.733 176.351C100.615 176.213 100.458 176.096 100.301 175.978C100.026 175.782 99.7318 175.625 99.4178 175.487C99.0449 175.311 98.6721 175.114 98.3188 174.879C97.9852 174.663 97.6712 174.408 97.3965 174.114C97.0432 173.721 96.7881 173.289 96.69 172.759C96.6115 172.387 96.6311 172.014 96.69 171.641C96.8666 170.601 97.4357 169.816 98.2992 169.227C98.8487 168.854 99.4767 168.599 100.124 168.462C100.752 168.324 101.4 168.265 102.028 168.285C102.911 168.305 103.775 168.481 104.618 168.776C104.638 168.776 104.658 168.795 104.677 168.795C104.677 168.795 104.697 168.795 104.697 168.815C104.52 169.639 104.344 170.463 104.167 171.307C104.128 171.288 104.108 171.288 104.089 171.288C103.519 171.032 102.911 170.875 102.303 170.797C101.871 170.758 101.439 170.738 101.007 170.817C100.752 170.856 100.517 170.934 100.301 171.072C100.144 171.17 100.007 171.288 99.9281 171.464C99.7907 171.719 99.7907 171.974 99.9673 172.21C100.046 172.308 100.124 172.406 100.242 172.485C100.419 172.622 100.595 172.74 100.792 172.858C101.106 173.034 101.42 173.191 101.734 173.368C102.087 173.564 102.44 173.76 102.754 173.996C103.009 174.172 103.245 174.388 103.441 174.624C103.912 175.154 104.147 175.782 104.147 176.488C104.147 177.96 103.461 179.059 102.205 179.805C101.655 180.119 101.066 180.315 100.458 180.452C99.7907 180.59 99.1038 180.629 98.417 180.59C97.5338 180.55 96.6703 180.413 95.8265 180.138C95.6498 180.079 95.5125 180.021 95.3555 179.962Z" fill="#8369A0"></path><path d="M95.7671 168.5C94.9232 172.484 94.0794 176.428 93.2159 180.393C92.1954 180.393 91.1749 180.393 90.1348 180.393C90.9786 176.428 91.8225 172.464 92.686 168.5C93.7261 168.5 94.7466 168.5 95.7671 168.5Z" fill="#8369A0"></path><path d="M72.3953 11.9805H73.365V15.9234H72.6035L70.8338 13.6861V15.9234H69.875V11.9805H70.6256L72.3953 14.2067V11.9805Z" fill="#8369A0"></path><path d="M77.0448 15.9234L76.6996 15.1093H74.9683L74.6231 15.9234H73.5931L75.4176 11.9805H76.2285L78.0584 15.9234H77.0448ZM75.3025 14.3285H76.3654L75.834 13.0825L75.3025 14.3285Z" fill="#8369A0"></path><path d="M78.2806 15.9234V11.9805H79.3106V15.9234H78.2806Z" fill="#8369A0"></path><path d="M83.4056 15.9234L82.3153 15.9234L81.8112 14.6109C81.7528 14.4633 81.6158 14.3894 81.4003 14.3894H81.0277V15.9234H80.0141V11.9805L81.8277 11.9805C82.2988 11.9805 82.6531 12.0838 82.8906 12.2906C83.128 12.4936 83.2467 12.7853 83.2467 13.1656C83.2467 13.4314 83.1755 13.6621 83.033 13.8578C82.8942 14.0498 82.697 14.1864 82.4413 14.2676C82.5509 14.2897 82.6495 14.3414 82.7372 14.4227C82.8248 14.5039 82.8942 14.6128 82.9453 14.7494L83.4056 15.9234ZM81.6633 13.6141C81.8824 13.6141 82.0413 13.5809 82.14 13.5145C82.2386 13.4443 82.2879 13.3372 82.2879 13.1933C82.2879 13.0419 82.2386 12.933 82.14 12.8665C82.045 12.8001 81.8861 12.7668 81.6633 12.7668L81.0168 12.7668V13.6141H81.6633Z" fill="#8369A0"></path><path d="M86.8415 15.9234L86.4964 15.1093H84.765L84.4199 15.9234H83.3898L85.2143 11.9805H86.0252L87.8551 15.9234H86.8415ZM85.0992 14.3285H86.1621L85.6307 13.0825L85.0992 14.3285Z" fill="#8369A0"></path><path d="M92.5209 11.9805H93.5564L91.7812 15.9234H90.9649L89.1897 11.9805H90.2581L91.3813 14.6276L92.5209 11.9805Z" fill="#8369A0"></path><path d="M93.7809 15.9234V11.9805H94.8109V15.9234H93.7809Z" fill="#8369A0"></path><path d="M98.9059 15.9234H97.8156L97.3115 14.6109C97.2531 14.4633 97.1161 14.3894 96.9006 14.3894H96.5281V15.9234H95.5145V11.9805H97.328C97.7992 11.9805 98.1535 12.0838 98.3909 12.2906C98.6283 12.4936 98.747 12.7853 98.747 13.1656C98.747 13.4314 98.6758 13.6621 98.5333 13.8578C98.3945 14.0498 98.1973 14.1864 97.9416 14.2676C98.0512 14.2897 98.1498 14.3414 98.2375 14.4227C98.3251 14.5039 98.3945 14.6128 98.4457 14.7494L98.9059 15.9234ZM97.1636 13.6141C97.3828 13.6141 97.5417 13.5809 97.6403 13.5145C97.7389 13.4443 97.7882 13.3372 97.7882 13.1933C97.7882 13.0419 97.7389 12.933 97.6403 12.8665C97.5453 12.8001 97.3864 12.7668 97.1636 12.7668H96.5171V13.6141H97.1636Z" fill="#8369A0"></path><path d="M100.195 15.9234V12.8222H99.0337V11.9805L102.398 11.9805V12.8222H101.236V15.9234H100.195Z" fill="#8369A0"></path><path d="M104.527 15.9733C103.958 15.9733 103.527 15.8293 103.234 15.5413C102.942 15.2496 102.796 14.8232 102.796 14.2621V11.9805H103.799V14.3008C103.799 14.5851 103.861 14.8029 103.985 14.9543C104.113 15.1057 104.294 15.1813 104.527 15.1813C104.758 15.1813 104.935 15.1057 105.059 14.9543C105.183 14.7992 105.245 14.5814 105.245 14.3008V11.9805H106.259V14.2621C106.259 14.8158 106.109 15.2404 105.809 15.5358C105.514 15.8274 105.086 15.9733 104.527 15.9733Z" fill="#8369A0"></path><path d="M109.881 15.9234L109.535 15.1093H107.804L107.459 15.9234H106.429L108.253 11.9805H109.064L110.894 15.9234H109.881ZM108.138 14.3285H109.201L108.67 13.0825L108.138 14.3285Z" fill="#8369A0"></path><path d="M111.116 15.9234V11.9805H112.146V15.0817H113.796V15.9234H111.116Z" fill="#8369A0"></path><path d="M92.6883 192.949H62.5801V194.649H92.6883V192.949Z" fill="#00CAF5"></path><path d="M122.465 192.949C121.477 193.998 120.058 194.649 118.512 194.649H92.6913V192.949H122.465Z" fill="#48D38A"></path><path d="M62.5804 192.949H32.2012V194.649H62.5804V192.949Z" fill="#FFC700"></path><path d="M2.42969 192.949C3.41789 193.998 4.83644 194.649 6.38249 194.649H32.2032V192.949H2.42969Z" fill="#F7685B"></path><defs><clipPath id="clip0_40099_18543"><rect width="25.2683" height="17.0561" fill="white" transform="translate(7.19336 166.537)"></rect></clipPath></defs></svg>